<svg version="1.1" viewBox="0.0 0.0 752.0 1200.0" fill="none" stroke="none" stroke-linecap="square" stroke-miterlimit="10" xmlns:xlink="http://www.w3.org/1999/xlink" xmlns="http://www.w3.org/2000/svg"><clipPath id="p.0"><path d="m0 0l752.0 0l0 1200.0l-752.0 0l0 -1200.0z" clip-rule="nonzero"/></clipPath><g clip-path="url(#p.0)"><path fill="#ffffff" d="m0 0l752.0 0l0 1200.0l-752.0 0z" fill-rule="evenodd"/><path fill="#000000" fill-opacity="0.0" d="m239.22835 247.14867l273.54333 0l0 41.417313l-273.54333 0z" fill-rule="evenodd"/><path fill="#393f4d" d="m264.2898 259.79044q2.140625 0 3.78125 1.015625q1.640625 1.0 2.5 2.859375q0.875 1.84375 0.875 4.0625q0 3.4375 -1.953125 5.6875q-1.9375 2.25 -5.203125 2.25q-3.296875 0 -5.25 -2.21875q-1.9375 -2.234375 -1.9375 -5.71875q0 -3.484375 1.953125 -5.703125q1.953125 -2.234375 5.234375 -2.234375zm-5.75 7.9375q0 2.875 1.515625 4.78125q1.515625 1.90625 4.234375 1.90625q2.671875 0 4.1875 -1.890625q1.515625 -1.90625 1.515625 -4.796875q0 -2.875 -1.515625 -4.78125q-1.5 -1.921875 -4.21875 -1.921875q-2.640625 0 -4.1875 1.875q-1.53125 1.875 -1.53125 4.828125zm20.027374 -3.546875l0.328125 0l0 1.34375l-0.15625 0q-1.78125 0 -2.859375 1.140625q-1.078125 1.140625 -1.078125 2.84375l0 5.828125l-1.34375 0l0 -11.0l1.234375 0l0 2.578125l0.046875 0q0.5 -1.296875 1.515625 -2.015625q1.015625 -0.71875 2.3125 -0.71875zm2.9671326 -4.0625l0 2.15625l-1.34375 0l0 -2.15625l1.34375 0zm0 4.21875l0 11.0l-1.34375 0l0 -11.0l1.34375 0zm6.9938354 -0.3125q1.171875 0 2.125 0.625q0.953125 0.609375 1.390625 1.578125l0.03125 0l0 -1.890625l1.34375 0l0 10.21875q0 2.546875 -1.1875 3.859375q-1.1875 1.3125 -3.6875 1.3125q-1.875 0 -3.15625 -0.875q-1.28125 -0.859375 -1.40625 -2.453125l1.34375 0q0.15625 1.046875 1.0 1.625q0.859375 0.578125 2.21875 0.578125q1.78125 0 2.65625 -1.03125q0.875 -1.015625 0.875 -3.03125l0 -1.59375l-0.03125 0q-0.5 1.078125 -1.4375 1.671875q-0.9375 0.59375 -2.078125 0.59375q-2.359375 0 -3.65625 -1.484375q-1.296875 -1.484375 -1.296875 -4.15625q0 -2.421875 1.34375 -3.984375q1.34375 -1.5625 3.609375 -1.5625zm-3.609375 5.671875q0 1.953125 0.984375 3.171875q0.984375 1.203125 2.640625 1.203125q1.59375 0 2.5625 -1.25q0.96875 -1.265625 0.96875 -3.125q0 -1.953125 -0.9375 -3.25q-0.9375 -1.3125 -2.625 -1.3125q-1.65625 0 -2.625 1.265625q-0.96875 1.265625 -0.96875 3.296875zm12.424194 -9.578125l0 2.15625l-1.34375 0l0 -2.15625l1.34375 0zm0 4.21875l0 11.0l-1.34375 0l0 -11.0l1.34375 0zm7.4782104 -0.3125q2.125 0 3.078125 1.03125q0.953125 1.015625 0.953125 3.09375l0 7.1875l-1.34375 0l0 -6.953125q0 -1.59375 -0.703125 -2.421875q-0.6875 -0.828125 -2.09375 -0.828125q-1.109375 0 -1.90625 0.546875q-0.796875 0.53125 -1.171875 1.4375q-0.375 0.890625 -0.375 1.78125l0 6.4375l-1.34375 0l0 -11.0l1.34375 0l0 1.890625l0.03125 0q0.390625 -0.984375 1.359375 -1.59375q0.96875 -0.609375 2.171875 -0.609375zm10.908661 0q2.078125 0 3.0625 0.90625q0.984375 0.890625 0.984375 2.53125l0 5.984375q0 0.328125 0.1875 0.546875q0.1875 0.203125 0.59375 0.203125q0.125 0 0.21875 -0.015625q0.109375 -0.015625 0.203125 -0.0625l0 1.140625q-0.25 0.046875 -0.453125 0.0625q-0.1875 0.015625 -0.40625 0.015625q-0.875 0 -1.234375 -0.421875q-0.359375 -0.421875 -0.359375 -1.375l0 -0.125l-0.03125 0q-0.828125 1.25 -1.734375 1.75q-0.890625 0.5 -2.265625 0.5q-1.6875 0 -2.703125 -0.84375q-1.0 -0.84375 -1.0 -2.390625q0 -1.59375 1.109375 -2.390625q1.109375 -0.8125 4.953125 -1.15625q0.875 -0.078125 1.21875 -0.40625q0.359375 -0.328125 0.359375 -1.078125q0 -1.109375 -0.6875 -1.6875q-0.671875 -0.578125 -2.1875 -0.578125q-1.390625 0 -2.15625 0.65625q-0.75 0.65625 -0.796875 1.90625l-1.34375 0q0.09375 -1.8125 1.234375 -2.734375q1.15625 -0.9375 3.234375 -0.9375zm2.65625 5.296875q-0.203125 0.375 -1.28125 0.515625q-1.0625 0.140625 -2.359375 0.375q-1.28125 0.21875 -1.953125 0.734375q-0.65625 0.5 -0.65625 1.40625q0 0.96875 0.71875 1.578125q0.734375 0.59375 1.734375 0.59375q1.65625 0 2.75 -0.96875q1.09375 -0.984375 1.09375 -2.421875l0 -1.8125l-0.046875 0zm5.429596 -9.203125l0 15.21875l-1.34375 0l0 -15.21875l1.34375 0zm18.419464 0l0 1.234375l-8.203125 0l0 5.5l7.296875 0l0 1.234375l-7.296875 0l0 7.25l-1.453125 0l0 -15.21875l9.65625 0zm5.908661 4.0625l0.328125 0l0 1.34375l-0.15625 0q-1.78125 0 -2.859375 1.140625q-1.078125 1.140625 -1.078125 2.84375l0 5.828125l-1.34375 0l0 -11.0l1.234375 0l0 2.578125l0.046875 0q0.5 -1.296875 1.515625 -2.015625q1.015625 -0.71875 2.3125 -0.71875zm5.4410706 -0.15625q2.078125 0 3.0625 0.90625q0.984375 0.890625 0.984375 2.53125l0 5.984375q0 0.328125 0.1875 0.546875q0.1875 0.203125 0.59375 0.203125q0.125 0 0.21875 -0.015625q0.109375 -0.015625 0.203125 -0.0625l0 1.140625q-0.25 0.046875 -0.453125 0.0625q-0.1875 0.015625 -0.40625 0.015625q-0.875 0 -1.234375 -0.421875q-0.359375 -0.421875 -0.359375 -1.375l0 -0.125l-0.03125 0q-0.828125 1.25 -1.734375 1.75q-0.890625 0.5 -2.265625 0.5q-1.6875 0 -2.703125 -0.84375q-1.0 -0.84375 -1.0 -2.390625q0 -1.59375 1.109375 -2.390625q1.109375 -0.8125 4.953125 -1.15625q0.875 -0.078125 1.21875 -0.40625q0.359375 -0.328125 0.359375 -1.078125q0 -1.109375 -0.6875 -1.6875q-0.671875 -0.578125 -2.1875 -0.578125q-1.390625 0 -2.15625 0.65625q-0.75 0.65625 -0.796875 1.90625l-1.34375 0q0.09375 -1.8125 1.234375 -2.734375q1.15625 -0.9375 3.234375 -0.9375zm2.65625 5.296875q-0.203125 0.375 -1.28125 0.515625q-1.0625 0.140625 -2.359375 0.375q-1.28125 0.21875 -1.953125 0.734375q-0.65625 0.5 -0.65625 1.40625q0 0.96875 0.71875 1.578125q0.734375 0.59375 1.734375 0.59375q1.65625 0 2.75 -0.96875q1.09375 -0.984375 1.09375 -2.421875l0 -1.8125l-0.046875 0zm8.976471 -5.296875q1.140625 0 1.984375 0.546875q0.84375 0.53125 1.171875 1.59375q0.515625 -1.0625 1.421875 -1.59375q0.921875 -0.546875 2.078125 -0.546875q1.84375 0 2.734375 0.96875q0.90625 0.96875 0.90625 2.78125l0 7.5625l-1.34375 0l0 -7.484375q0 -1.40625 -0.625 -2.0625q-0.625 -0.65625 -1.96875 -0.65625q-1.46875 0 -2.234375 1.015625q-0.75 1.015625 -0.75 2.859375l0 6.328125l-1.359375 0l0 -7.546875q0 -1.234375 -0.578125 -1.9375q-0.5625 -0.71875 -1.71875 -0.71875q-1.609375 0 -2.453125 1.09375q-0.828125 1.09375 -0.828125 2.875l0 6.234375l-1.34375 0l0 -11.0l1.234375 0l0 1.84375l0.0625 0q0.578125 -1.078125 1.46875 -1.609375q0.90625 -0.546875 2.140625 -0.546875zm17.282135 0q2.234375 0 3.53125 1.625q1.3125 1.609375 1.3125 4.328125l0 0.21875l-8.46875 0q0.03125 1.90625 1.015625 3.125q1.0 1.203125 2.609375 1.203125q1.34375 0 2.203125 -0.6875q0.859375 -0.703125 1.25 -2.125l1.34375 0q-0.46875 1.984375 -1.65625 2.96875q-1.171875 0.984375 -3.140625 0.984375q-2.34375 0 -3.65625 -1.5625q-1.3125 -1.5625 -1.3125 -4.265625q0 -2.5625 1.3125 -4.1875q1.328125 -1.625 3.65625 -1.625zm3.5 5.046875q-0.0625 -1.640625 -1.03125 -2.78125q-0.96875 -1.15625 -2.5 -1.15625q-1.421875 0 -2.40625 1.0625q-0.96875 1.0625 -1.1875 2.875l7.125 0zm3.476471 -4.734375l2.8125 9.421875l0.03125 0l2.6875 -9.421875l1.515625 0l2.6875 9.421875l0.046875 0l2.8125 -9.421875l1.421875 0l-3.53125 10.953125l-0.015625 0.046875l-1.453125 0l-2.703125 -9.265625l-0.046875 0l-2.6875 9.265625l-1.484375 0l-3.53125 -11.0l1.4375 0zm20.121124 -0.3125q2.359375 0 3.78125 1.640625q1.421875 1.625 1.421875 4.171875q0 1.546875 -0.59375 2.875q-0.578125 1.328125 -1.78125 2.140625q-1.203125 0.8125 -2.828125 0.8125q-2.328125 0 -3.765625 -1.640625q-1.421875 -1.640625 -1.421875 -4.1875q0 -2.546875 1.421875 -4.171875q1.421875 -1.640625 3.765625 -1.640625zm-3.84375 5.8125q0 1.953125 1.046875 3.328125q1.046875 1.359375 2.796875 1.359375q1.75 0 2.8125 -1.375q1.0625 -1.375 1.0625 -3.3125q0 -1.9375 -1.0625 -3.3125q-1.0625 -1.390625 -2.828125 -1.390625q-1.703125 0 -2.765625 1.375q-1.0625 1.359375 -1.0625 3.328125zm16.174194 -5.65625l0.328125 0l0 1.34375l-0.15625 0q-1.78125 0 -2.859375 1.140625q-1.078125 1.140625 -1.078125 2.84375l0 5.828125l-1.34375 0l0 -11.0l1.234375 0l0 2.578125l0.046875 0q0.5 -1.296875 1.515625 -2.015625q1.015625 -0.71875 2.3125 -0.71875zm2.9515076 -4.0625l0 9.546875l6.109375 -5.328125l1.78125 0l-4.6875 4.0625l5.0 6.9375l-1.671875 0l-4.359375 -5.984375l-2.171875 1.8125l0 4.171875l-1.34375 0l0 -15.21875l1.34375 0zm21.964691 -0.328125q2.453125 0 4.171875 1.296875q1.734375 1.296875 2.171875 3.75l-1.4375 0q-0.1875 -1.5 -1.578125 -2.65625q-1.390625 -1.15625 -3.328125 -1.15625q-2.671875 0 -4.203125 1.875q-1.53125 1.875 -1.53125 4.828125q0 2.90625 1.515625 4.796875q1.53125 1.890625 4.21875 1.890625q2.34375 0 3.796875 -1.46875q1.46875 -1.46875 1.46875 -4.078125l0 -0.046875l-5.1875 0l0 -1.21875l6.46875 0l0 7.734375l-1.046875 0l-0.1875 -2.765625l-0.046875 0q-0.734375 1.515625 -2.109375 2.3125q-1.359375 0.78125 -3.15625 0.78125q-3.296875 0 -5.25 -2.234375q-1.9375 -2.234375 -1.9375 -5.703125q0 -3.484375 1.953125 -5.703125q1.953125 -2.234375 5.234375 -2.234375zm14.19928 4.390625l0.328125 0l0 1.34375l-0.15625 0q-1.78125 0 -2.859375 1.140625q-1.078125 1.140625 -1.078125 2.84375l0 5.828125l-1.34375 0l0 -11.0l1.234375 0l0 2.578125l0.046875 0q0.5 -1.296875 1.515625 -2.015625q1.015625 -0.71875 2.3125 -0.71875zm5.4410706 -0.15625q2.078125 0 3.0625 0.90625q0.984375 0.890625 0.984375 2.53125l0 5.984375q0 0.328125 0.1875 0.546875q0.1875 0.203125 0.59375 0.203125q0.125 0 0.21875 -0.015625q0.109375 -0.015625 0.203125 -0.0625l0 1.140625q-0.25 0.046875 -0.453125 0.0625q-0.1875 0.015625 -0.40625 0.015625q-0.875 0 -1.234375 -0.421875q-0.359375 -0.421875 -0.359375 -1.375l0 -0.125l-0.03125 0q-0.828125 1.25 -1.734375 1.75q-0.890625 0.5 -2.265625 0.5q-1.6875 0 -2.703125 -0.84375q-1.0 -0.84375 -1.0 -2.390625q0 -1.59375 1.109375 -2.390625q1.109375 -0.8125 4.953125 -1.15625q0.875 -0.078125 1.21875 -0.40625q0.359375 -0.328125 0.359375 -1.078125q0 -1.109375 -0.6875 -1.6875q-0.671875 -0.578125 -2.1875 -0.578125q-1.390625 0 -2.15625 0.65625q-0.75 0.65625 -0.796875 1.90625l-1.34375 0q0.09375 -1.8125 1.234375 -2.734375q1.15625 -0.9375 3.234375 -0.9375zm2.65625 5.296875q-0.203125 0.375 -1.28125 0.515625q-1.0625 0.140625 -2.359375 0.375q-1.28125 0.21875 -1.953125 0.734375q-0.65625 0.5 -0.65625 1.40625q0 0.96875 0.71875 1.578125q0.734375 0.59375 1.734375 0.59375q1.65625 0 2.75 -0.96875q1.09375 -0.984375 1.09375 -2.421875l0 -1.8125l-0.046875 0zm9.273346 -5.296875q2.3125 0 3.625 1.609375q1.328125 1.609375 1.328125 4.203125q0 2.578125 -1.328125 4.203125q-1.3125 1.625 -3.609375 1.625q-1.3125 0 -2.375 -0.640625q-1.046875 -0.65625 -1.453125 -1.78125l-0.046875 0l0 6.171875l-1.34375 0l0 -15.078125l1.234375 0l0 2.078125l0.046875 0q0.484375 -1.15625 1.53125 -1.765625q1.0625 -0.625 2.390625 -0.625zm-3.859375 5.796875q0 2.09375 1.0 3.40625q1.015625 1.296875 2.859375 1.296875q1.6875 0 2.640625 -1.328125q0.96875 -1.34375 0.96875 -3.359375q0 -2.015625 -0.96875 -3.359375q-0.953125 -1.34375 -2.671875 -1.34375q-1.859375 0 -2.84375 1.1875q-0.984375 1.171875 -0.984375 3.5zm12.231384 -9.703125l0 6.109375l0.03125 0q0.390625 -0.984375 1.359375 -1.59375q0.96875 -0.609375 2.171875 -0.609375q2.125 0 3.078125 1.03125q0.953125 1.015625 0.953125 3.09375l0 7.1875l-1.34375 0l0 -6.953125q0 -1.59375 -0.703125 -2.421875q-0.6875 -0.828125 -2.09375 -0.828125q-1.109375 0 -1.90625 0.546875q-0.796875 0.53125 -1.171875 1.4375q-0.375 0.890625 -0.375 1.78125l0 6.4375l-1.34375 0l0 -15.21875l1.34375 0z" fill-rule="nonzero"/><path fill="#000000" fill-opacity="0.0" d="m217.67697 66.74659l55.212585 16.09449" fill-rule="evenodd"/><path stroke="#393f4d" stroke-width="2.0" stroke-linejoin="round" stroke-linecap="butt" d="m217.67699 66.74659l43.692093 12.736259" fill-rule="evenodd"/><path fill="#393f4d" stroke="#393f4d" stroke-width="2.0" stroke-linecap="butt" d="m260.44458 82.65431l9.638031 -0.6314697l-7.7890625 -5.711464z" fill-rule="evenodd"/><path fill="#d4d4d4" d="m184.07068 66.74659l0 0c0 -9.280121 7.5230255 -16.803146 16.803146 -16.803146l0 0c4.4564667 0 8.730423 1.7703247 11.881622 4.921528c3.1511993 3.1511993 4.921524 7.425148 4.921524 11.8816185l0 0c0 9.2801285 -7.5230255 16.803154 -16.803146 16.803154l0 0c-9.280121 0 -16.803146 -7.5230255 -16.803146 -16.803154z" fill-rule="evenodd"/><path fill="#d4d4d4" d="m189.20515 162.74504l0 0c0 -9.280121 7.5230255 -16.803162 16.803146 -16.803162l0 0c4.456482 0 8.730423 1.77034 11.881622 4.9215393c3.1511993 3.1511993 4.921524 7.4251404 4.921524 11.881622l0 0c0 9.280121 -7.5230255 16.803146 -16.803146 16.803146l0 0c-9.280121 0 -16.803146 -7.5230255 -16.803146 -16.803146z" fill-rule="evenodd"/><path fill="#d4d4d4" d="m267.95404 94.70979l0 0c0 -9.2801285 7.5230103 -16.803154 16.803131 -16.803154l0 0c4.456482 0 8.730438 1.7703247 11.881622 4.9215317c3.1512146 3.1511993 4.9215393 7.425148 4.9215393 11.881622l0 0c0 9.280121 -7.5230103 16.803146 -16.803162 16.803146l0 0c-9.280121 0 -16.803131 -7.5230255 -16.803131 -16.803146z" fill-rule="evenodd"/><path fill="#d4d4d4" d="m332.03656 27.364464l0 0c0 -9.280123 7.5230103 -16.80315 16.803131 -16.80315l0 0c4.456482 0 8.730438 1.7703266 11.881622 4.921529c3.1512146 3.1512012 4.9215393 7.425148 4.9215393 11.88162l0 0c0 9.280125 -7.523041 16.80315 -16.803162 16.80315l0 0c-9.280121 0 -16.803131 -7.5230255 -16.803131 -16.80315z" fill-rule="evenodd"/><path fill="#d4d4d4" d="m253.73561 208.74329l0 0c0 -9.280121 7.5230255 -16.803146 16.803146 -16.803146l0 0c4.456482 0 8.730438 1.7703247 11.881622 4.921524c3.1512146 3.1512146 4.9215393 7.4251556 4.9215393 11.881622l0 0c0 9.280121 -7.523041 16.803146 -16.803162 16.803146l0 0c-9.280121 0 -16.803146 -7.5230255 -16.803146 -16.803146z" fill-rule="evenodd"/><path fill="#d4d4d4" d="m458.68436 69.158134l0 0c0 -9.280125 7.523041 -16.80315 16.803162 -16.80315l0 0c4.456482 0 8.730408 1.7703285 11.881622 4.921528c3.1512146 3.1512032 4.9215393 7.425148 4.9215393 11.881622l0 0c0 9.280121 -7.523041 16.803146 -16.803162 16.803146l0 0c-9.280121 0 -16.803162 -7.5230255 -16.803162 -16.803146z" fill-rule="evenodd"/><path fill="#d4d4d4" d="m332.47195 166.31184l0 0c0 -9.280121 7.5230103 -16.803146 16.803131 -16.803146l0 0c4.456482 0 8.730438 1.7703247 11.881622 4.921524c3.1512146 3.1511993 4.9215393 7.4251556 4.9215393 11.881622l0 0c0 9.280121 -7.523041 16.803146 -16.803162 16.803146l0 0c-9.280121 0 -16.803131 -7.5230255 -16.803131 -16.803146z" fill-rule="evenodd"/><path fill="#d4d4d4" d="m398.33572 203.34282l0 0c0 -9.280121 7.523041 -16.803162 16.803162 -16.803162l0 0c4.456482 0 8.730408 1.77034 11.881622 4.9215393c3.151184 3.1511993 4.921509 7.4251404 4.921509 11.881622l0 0c0 9.280121 -7.5230103 16.803146 -16.803131 16.803146l0 0c-9.280121 0 -16.803162 -7.5230255 -16.803162 -16.803146z" fill-rule="evenodd"/><path fill="#d4d4d4" d="m395.13046 102.71589l0 0c0 -9.280121 7.5230103 -16.803146 16.803162 -16.803146l0 0c4.4564514 0 8.730408 1.7703247 11.881622 4.921524c3.151184 3.151207 4.921509 7.425148 4.921509 11.881622l0 0c0 9.280121 -7.5230103 16.803146 -16.803131 16.803146l0 0c-9.280151 0 -16.803162 -7.5230255 -16.803162 -16.803146z" fill-rule="evenodd"/><path fill="#d4d4d4" d="m468.14133 151.04175l0 0c0 -9.280121 7.523041 -16.803146 16.803162 -16.803146l0 0c4.456482 0 8.730408 1.7703247 11.881622 4.9215393c3.1512146 3.1511993 4.9215393 7.4251404 4.9215393 11.881607l0 0c0 9.280136 -7.523041 16.803162 -16.803162 16.803162l0 0c-9.280121 0 -16.803162 -7.5230255 -16.803162 -16.803162z" fill-rule="evenodd"/><path fill="#d4d4d4" d="m528.5658 102.71587l0 0c0 -9.280121 7.5230103 -16.803146 16.803162 -16.803146l0 0c4.456482 0 8.730408 1.7703247 11.881592 4.921524c3.151245 3.151207 4.92157 7.425148 4.92157 11.881622l0 0c0 9.280121 -7.5230713 16.803154 -16.803162 16.803154l0 0c-9.280151 0 -16.803162 -7.523033 -16.803162 -16.803154z" fill-rule="evenodd"/><path fill="#d4d4d4" d="m551.09467 208.0894l0 0c-9.28009 0 -16.796082 -7.5230255 -16.787415 -16.803146l0 0c0.004211426 -4.4564667 1.7785645 -8.730423 4.932678 -11.881622c3.1541748 -3.1511993 7.4297485 -4.921524 11.88623 -4.921524l0 0c9.280151 0 16.796143 7.5230255 16.787415 16.803146l0 0c-0.008666992 9.280121 -7.5387573 16.803146 -16.818909 16.803146z" fill-rule="evenodd"/><path fill="#000000" fill-opacity="0.0" d="m287.34192 208.74329l50.04724 -30.551178" fill-rule="evenodd"/><path stroke="#393f4d" stroke-width="2.0" stroke-linejoin="round" stroke-linecap="butt" d="m287.34192 208.7433l39.80481 -24.298752" fill-rule="evenodd"/><path fill="#393f4d" stroke="#393f4d" stroke-width="2.0" stroke-linecap="butt" d="m328.86798 187.26418l6.0256042 -7.548645l-9.468079 1.9094086z" fill-rule="evenodd"/><path fill="#000000" fill-opacity="0.0" d="m501.74765 151.04175l32.566925 40.25197" fill-rule="evenodd"/><path stroke="#393f4d" stroke-width="2.0" stroke-linejoin="round" stroke-linecap="butt" d="m501.74762 151.04176l25.019043 30.922974" fill-rule="evenodd"/><path fill="#393f4d" stroke="#393f4d" stroke-width="2.0" stroke-linecap="butt" d="m524.19855 184.04259l8.276978 4.978119l-3.140686 -9.133804z" fill-rule="evenodd"/><path fill="#000000" fill-opacity="0.0" d="m431.94202 203.34282l41.13388 -40.409454" fill-rule="evenodd"/><path stroke="#393f4d" stroke-width="2.0" stroke-linejoin="round" stroke-linecap="butt" d="m431.94202 203.3428l32.573517 -31.999863" fill-rule="evenodd"/><path fill="#393f4d" stroke="#393f4d" stroke-width="2.0" stroke-linecap="butt" d="m466.8306 173.6995l4.159546 -8.717133l-8.789673 4.004013z" fill-rule="evenodd"/><path fill="#000000" fill-opacity="0.0" d="m296.6388 82.82817l40.314972 -43.590553" fill-rule="evenodd"/><path stroke="#393f4d" stroke-width="2.0" stroke-linejoin="round" stroke-linecap="butt" d="m296.6388 82.82817l32.167145 -34.780727" fill-rule="evenodd"/><path fill="#393f4d" stroke="#393f4d" stroke-width="2.0" stroke-linecap="butt" d="m331.2312 50.290447l3.7373352 -8.906311l-8.58783 4.420307z" fill-rule="evenodd"/><path fill="#000000" fill-opacity="0.0" d="m361.1567 178.19347l37.165375 25.13385" fill-rule="evenodd"/><path stroke="#393f4d" stroke-width="2.0" stroke-linejoin="round" stroke-linecap="butt" d="m361.1567 178.19347l27.225006 18.411499" fill-rule="evenodd"/><path fill="#393f4d" stroke="#393f4d" stroke-width="2.0" stroke-linecap="butt" d="m386.53116 199.34143l9.368927 2.347992l-5.667755 -7.8209076z" fill-rule="evenodd"/><path fill="#000000" fill-opacity="0.0" d="m496.8261 139.16014l31.748047 -36.44095" fill-rule="evenodd"/><path stroke="#393f4d" stroke-width="2.0" stroke-linejoin="round" stroke-linecap="butt" d="m496.8261 139.16014l23.865356 -27.39309" fill-rule="evenodd"/><path fill="#393f4d" stroke="#393f4d" stroke-width="2.0" stroke-linecap="butt" d="m523.18225 113.93705l3.4712524 -9.013344l-8.452759 4.673332z" fill-rule="evenodd"/><path fill="#000000" fill-opacity="0.0" d="m423.81525 90.83427l39.77951 -9.795273" fill-rule="evenodd"/><path stroke="#393f4d" stroke-width="2.0" stroke-linejoin="round" stroke-linecap="butt" d="m423.81525 90.83427l28.127594 -6.9261093" fill-rule="evenodd"/><path fill="#393f4d" stroke="#393f4d" stroke-width="2.0" stroke-linecap="butt" d="m452.73267 87.11581l8.023102 -5.377739l-9.602783 -1.0375595z" fill-rule="evenodd"/><path fill="#000000" fill-opacity="0.0" d="m296.6388 106.59141l40.75592 47.84252" fill-rule="evenodd"/><path stroke="#393f4d" stroke-width="2.0" stroke-linejoin="round" stroke-linecap="butt" d="m296.6388 106.591415l32.974182 38.707703" fill-rule="evenodd"/><path fill="#393f4d" stroke="#393f4d" stroke-width="2.0" stroke-linecap="butt" d="m327.09827 147.44135l8.400421 4.7668915l-3.3710022 -9.051331z" fill-rule="evenodd"/><path fill="#000000" fill-opacity="0.0" d="m360.7213 39.246086l39.338593 51.590553" fill-rule="evenodd"/><path stroke="#393f4d" stroke-width="2.0" stroke-linejoin="round" stroke-linecap="butt" d="m360.72134 39.246086l32.062378 42.04818" fill-rule="evenodd"/><path fill="#393f4d" stroke="#393f4d" stroke-width="2.0" stroke-linecap="butt" d="m390.1568 83.29732l8.13028 5.2143173l-2.8764648 -9.220428z" fill-rule="evenodd"/><path fill="#000000" fill-opacity="0.0" d="m423.81525 114.59751l49.259827 24.566933" fill-rule="evenodd"/><path stroke="#393f4d" stroke-width="2.0" stroke-linejoin="round" stroke-linecap="butt" d="m423.81525 114.59751l38.52124 19.211357" fill-rule="evenodd"/><path fill="#393f4d" stroke="#393f4d" stroke-width="2.0" stroke-linecap="butt" d="m460.86215 136.76509l9.596466 1.0944672l-6.6477966 -7.006912z" fill-rule="evenodd"/><path fill="#000000" fill-opacity="0.0" d="m270.53876 191.94014l14.204742 -80.44094" fill-rule="evenodd"/><path stroke="#393f4d" stroke-width="2.0" stroke-linejoin="round" stroke-linecap="butt" d="m270.53876 191.94014l12.117981 -68.62377" fill-rule="evenodd"/><path fill="#393f4d" stroke="#393f4d" stroke-width="2.0" stroke-linecap="butt" d="m285.90988 123.89082l-1.6748352 -9.512367l-4.8314514 8.363457z" fill-rule="evenodd"/><path fill="#000000" fill-opacity="0.0" d="m217.88992 150.86342l54.992126 -44.28347" fill-rule="evenodd"/><path stroke="#393f4d" stroke-width="2.0" stroke-linejoin="round" stroke-linecap="butt" d="m217.88992 150.86342l45.645782 -36.75714" fill-rule="evenodd"/><path fill="#393f4d" stroke="#393f4d" stroke-width="2.0" stroke-linecap="butt" d="m265.6076 116.67923l4.9971924 -8.265488l-9.141022 3.1195908z" fill-rule="evenodd"/><path fill="#000000" fill-opacity="0.0" d="m239.22835 725.12506l273.54333 0l0 41.417297l-273.54333 0z" fill-rule="evenodd"/><path fill="#393f4d" d="m313.4026 738.095l5.984375 15.21875l-1.5625 0l-1.859375 -4.734375l-6.9375 0l-1.828125 4.734375l-1.546875 0l6.125 -15.21875l1.625 0zm-3.921875 9.25l6.0 0l-2.953125 -7.796875l-3.046875 7.796875zm14.434235 -9.25q0.828125 0.015625 1.109375 0.078125l0 1.15625q-0.25 -0.0625 -0.53125 -0.078125q-0.28125 -0.03125 -0.4375 -0.03125q-0.78125 0 -1.125 0.390625q-0.34375 0.375 -0.34375 1.234375l0 1.46875l2.15625 0l0 1.125l-2.15625 0l0 9.875l-1.34375 0l0 -9.875l-1.890625 0l0 -1.125l1.890625 0l0 -1.046875q0 -1.765625 0.65625 -2.46875q0.65625 -0.703125 2.015625 -0.703125zm4.253845 0.90625l0 3.3125l2.234375 0l0 1.125l-2.234375 0l0 7.515625q0 0.84375 0.3125 1.109375q0.3125 0.25 0.8125 0.25q0.21875 0 0.5 -0.015625q0.28125 -0.015625 0.609375 -0.046875l0 1.140625q-0.296875 0.03125 -0.59375 0.03125q-0.296875 0.015625 -0.59375 0.015625q-1.34375 0 -1.875 -0.5q-0.515625 -0.515625 -0.515625 -1.84375l0 -7.65625l-1.9375 0l0 -1.125l1.9375 0l0 -3.3125l1.34375 0zm8.290131 3.0q2.234375 0 3.53125 1.625q1.3125 1.609375 1.3125 4.328125l0 0.21875l-8.46875 0q0.03125 1.90625 1.015625 3.125q1.0 1.203125 2.609375 1.203125q1.34375 0 2.203125 -0.6875q0.859375 -0.703125 1.25 -2.125l1.34375 0q-0.46875 1.984375 -1.65625 2.96875q-1.171875 0.984375 -3.140625 0.984375q-2.34375 0 -3.65625 -1.5625q-1.3125 -1.5625 -1.3125 -4.265625q0 -2.5625 1.3125 -4.1875q1.328125 -1.625 3.65625 -1.625zm3.5 5.046875q-0.0625 -1.640625 -1.03125 -2.78125q-0.96875 -1.15625 -2.5 -1.15625q-1.421875 0 -2.40625 1.0625q-0.96875 1.0625 -1.1875 2.875l7.125 0zm8.257721 -4.890625l0.328125 0l0 1.34375l-0.15625 0q-1.78125 0 -2.859375 1.140625q-1.078125 1.140625 -1.078125 2.84375l0 5.828125l-1.34375 0l0 -11.0l1.234375 0l0 2.578125l0.046875 0q0.5 -1.296875 1.515625 -2.015625q1.015625 -0.71875 2.3125 -0.71875zm14.252136 -4.390625q2.3125 0 4.046875 1.328125q1.734375 1.3125 2.078125 3.59375l-1.453125 0q-0.421875 -1.75 -1.703125 -2.71875q-1.265625 -0.96875 -2.984375 -0.96875q-2.640625 0 -4.1875 1.890625q-1.53125 1.875 -1.53125 4.8125q0 2.875 1.515625 4.78125q1.515625 1.90625 4.203125 1.90625q1.984375 0 3.3125 -1.328125q1.328125 -1.34375 1.578125 -3.546875l1.453125 0q-0.328125 2.875 -2.03125 4.5q-1.6875 1.625 -4.296875 1.625q-3.296875 0 -5.25 -2.234375q-1.9375 -2.25 -1.9375 -5.703125q0 -3.484375 1.953125 -5.703125q1.96875 -2.234375 5.234375 -2.234375zm9.657776 0.328125l0 15.21875l-1.34375 0l0 -15.21875l1.34375 0zm3.9157104 4.21875l0 7.171875q0 1.375 0.640625 2.203125q0.65625 0.8125 2.28125 0.8125q1.546875 0 2.4375 -1.234375q0.890625 -1.25 0.890625 -3.09375l0 -5.859375l1.34375 0l0 11.0l-1.25 0l0 -1.984375l-0.03125 0q-0.53125 1.09375 -1.53125 1.703125q-1.0 0.609375 -2.28125 0.609375q-1.96875 0 -2.90625 -1.046875q-0.9375 -1.0625 -0.9375 -3.046875l0 -7.234375l1.34375 0zm14.033661 -0.3125q1.796875 0 2.859375 0.921875q1.0625 0.90625 1.171875 2.59375l-1.34375 0q-0.0625 -1.15625 -0.859375 -1.78125q-0.78125 -0.625 -2.03125 -0.625q-1.15625 0 -1.875 0.5q-0.71875 0.5 -0.71875 1.40625q0 0.703125 0.640625 1.171875q0.640625 0.453125 1.640625 0.6875l2.3125 0.515625q1.125 0.25 1.875 1.015625q0.75 0.765625 0.75 1.921875q0 1.53125 -1.265625 2.421875q-1.265625 0.890625 -3.171875 0.890625q-2.03125 0 -3.1875 -0.984375q-1.15625 -0.984375 -1.328125 -2.90625l1.359375 0q0.0625 1.296875 0.9375 2.03125q0.890625 0.71875 2.296875 0.71875q1.25 0 2.125 -0.5625q0.890625 -0.5625 0.890625 -1.53125q0 -0.734375 -0.578125 -1.21875q-0.5625 -0.5 -1.890625 -0.796875l-1.6875 -0.375q-1.4375 -0.3125 -2.25 -1.0q-0.8125 -0.703125 -0.8125 -1.9375q0 -1.4375 1.15625 -2.25q1.171875 -0.828125 2.984375 -0.828125zm8.49231 -3.0l0 3.3125l2.234375 0l0 1.125l-2.234375 0l0 7.515625q0 0.84375 0.3125 1.109375q0.3125 0.25 0.8125 0.25q0.21875 0 0.5 -0.015625q0.28125 -0.015625 0.609375 -0.046875l0 1.140625q-0.296875 0.03125 -0.59375 0.03125q-0.296875 0.015625 -0.59375 0.015625q-1.34375 0 -1.875 -0.5q-0.515625 -0.515625 -0.515625 -1.84375l0 -7.65625l-1.9375 0l0 -1.125l1.9375 0l0 -3.3125l1.34375 0zm8.290131 3.0q2.234375 0 3.53125 1.625q1.3125 1.609375 1.3125 4.328125l0 0.21875l-8.46875 0q0.03125 1.90625 1.015625 3.125q1.0 1.203125 2.609375 1.203125q1.34375 0 2.203125 -0.6875q0.859375 -0.703125 1.25 -2.125l1.34375 0q-0.46875 1.984375 -1.65625 2.96875q-1.171875 0.984375 -3.140625 0.984375q-2.34375 0 -3.65625 -1.5625q-1.3125 -1.5625 -1.3125 -4.265625q0 -2.5625 1.3125 -4.1875q1.328125 -1.625 3.65625 -1.625zm3.5 5.046875q-0.0625 -1.640625 -1.03125 -2.78125q-0.96875 -1.15625 -2.5 -1.15625q-1.421875 0 -2.40625 1.0625q-0.96875 1.0625 -1.1875 2.875l7.125 0zm8.257721 -4.890625l0.328125 0l0 1.34375l-0.15625 0q-1.78125 0 -2.859375 1.140625q-1.078125 1.140625 -1.078125 2.84375l0 5.828125l-1.34375 0l0 -11.0l1.234375 0l0 2.578125l0.046875 0q0.5 -1.296875 1.515625 -2.015625q1.015625 -0.71875 2.3125 -0.71875zm2.967102 -4.0625l0 2.15625l-1.34375 0l0 -2.15625l1.34375 0zm0 4.21875l0 11.0l-1.34375 0l0 -11.0l1.34375 0zm7.4782104 -0.3125q2.125 0 3.078125 1.03125q0.953125 1.015625 0.953125 3.09375l0 7.1875l-1.34375 0l0 -6.953125q0 -1.59375 -0.703125 -2.421875q-0.6875 -0.828125 -2.09375 -0.828125q-1.109375 0 -1.90625 0.546875q-0.796875 0.53125 -1.171875 1.4375q-0.375 0.890625 -0.375 1.78125l0 6.4375l-1.34375 0l0 -11.0l1.34375 0l0 1.890625l0.03125 0q0.390625 -0.984375 1.359375 -1.59375q0.96875 -0.609375 2.171875 -0.609375zm10.971161 0q1.171875 0 2.125 0.625q0.953125 0.609375 1.390625 1.578125l0.03125 0l0 -1.890625l1.34375 0l0 10.21875q0 2.546875 -1.1875 3.859375q-1.1875 1.3125 -3.6875 1.3125q-1.875 0 -3.15625 -0.875q-1.28125 -0.859375 -1.40625 -2.453125l1.34375 0q0.15625 1.046875 1.0 1.625q0.859375 0.578125 2.21875 0.578125q1.78125 0 2.65625 -1.03125q0.875 -1.015625 0.875 -3.03125l0 -1.59375l-0.03125 0q-0.5 1.078125 -1.4375 1.671875q-0.9375 0.59375 -2.078125 0.59375q-2.359375 0 -3.65625 -1.484375q-1.296875 -1.484375 -1.296875 -4.15625q0 -2.421875 1.34375 -3.984375q1.34375 -1.5625 3.609375 -1.5625zm-3.609375 5.671875q0 1.953125 0.984375 3.171875q0.984375 1.203125 2.640625 1.203125q1.59375 0 2.5625 -1.25q0.96875 -1.265625 0.96875 -3.125q0 -1.953125 -0.9375 -3.25q-0.9375 -1.3125 -2.625 -1.3125q-1.65625 0 -2.625 1.265625q-0.96875 1.265625 -0.96875 3.296875z" fill-rule="nonzero"/><path fill="#000000" fill-opacity="0.0" d="m239.229 1148.0214l273.54333 0l0 41.41736l-273.54333 0z" fill-rule="evenodd"/><path fill="#393f4d" d="m310.57608 1160.9913l5.984375 15.21875l-1.5625 0l-1.859375 -4.734375l-6.9375 0l-1.828125 4.734375l-1.546875 0l6.125 -15.21875l1.625 0zm-3.921875 9.25l6.0 0l-2.953125 -7.796875l-3.046875 7.796875zm14.434235 -9.25q0.828125 0.015625 1.109375 0.078125l0 1.15625q-0.25 -0.0625 -0.53125 -0.078125q-0.28125 -0.03125 -0.4375 -0.03125q-0.78125 0 -1.125 0.390625q-0.34375 0.375 -0.34375 1.234375l0 1.46875l2.15625 0l0 1.125l-2.15625 0l0 9.875l-1.34375 0l0 -9.875l-1.890625 0l0 -1.125l1.890625 0l0 -1.046875q0 -1.765625 0.65625 -2.46875q0.65625 -0.703125 2.015625 -0.703125zm4.253845 0.90625l0 3.3125l2.234375 0l0 1.125l-2.234375 0l0 7.515625q0 0.84375 0.3125 1.109375q0.3125 0.25 0.8125 0.25q0.21875 0 0.5 -0.015625q0.28125 -0.015625 0.609375 -0.046875l0 1.140625q-0.296875 0.03125 -0.59375 0.03125q-0.296875 0.015625 -0.59375 0.015625q-1.34375 0 -1.875 -0.5q-0.515625 -0.515625 -0.515625 -1.84375l0 -7.65625l-1.9375 0l0 -1.125l1.9375 0l0 -3.3125l1.34375 0zm8.290131 3.0q2.234375 0 3.53125 1.625q1.3125 1.609375 1.3125 4.328125l0 0.21875l-8.46875 0q0.03125 1.90625 1.015625 3.125q1.0 1.203125 2.609375 1.203125q1.34375 0 2.203125 -0.6875q0.859375 -0.703125 1.25 -2.125l1.34375 0q-0.46875 1.984375 -1.65625 2.96875q-1.171875 0.984375 -3.140625 0.984375q-2.34375 0 -3.65625 -1.5625q-1.3125 -1.5625 -1.3125 -4.265625q0 -2.5625 1.3125 -4.1875q1.328125 -1.625 3.65625 -1.625zm3.5 5.046875q-0.0625 -1.640625 -1.03125 -2.78125q-0.96875 -1.15625 -2.5 -1.15625q-1.421875 0 -2.40625 1.0625q-0.96875 1.0625 -1.1875 2.875l7.125 0zm8.257721 -4.890625l0.328125 0l0 1.34375l-0.15625 0q-1.78125 0 -2.859375 1.140625q-1.078125 1.140625 -1.078125 2.84375l0 5.828125l-1.34375 0l0 -11.0l1.234375 0l0 2.578125l0.046875 0q0.5 -1.296875 1.515625 -2.015625q1.015625 -0.71875 2.3125 -0.71875zm18.220886 -4.0625l0 1.234375l-5.3125 0l0 13.984375l-1.453125 0l0 -13.984375l-5.3125 0l0 -1.234375l12.078125 0zm4.2315063 4.0625l0.328125 0l0 1.34375l-0.15625 0q-1.78125 0 -2.859375 1.140625q-1.078125 1.140625 -1.078125 2.84375l0 5.828125l-1.34375 0l0 -11.0l1.234375 0l0 2.578125l0.046875 0q0.5 -1.296875 1.515625 -2.015625q1.015625 -0.71875 2.3125 -0.71875zm5.4410706 -0.15625q2.078125 0 3.0625 0.90625q0.984375 0.890625 0.984375 2.53125l0 5.984375q0 0.328125 0.1875 0.546875q0.1875 0.203125 0.59375 0.203125q0.125 0 0.21875 -0.015625q0.109375 -0.015625 0.203125 -0.0625l0 1.140625q-0.25 0.046875 -0.453125 0.0625q-0.1875 0.015625 -0.40625 0.015625q-0.875 0 -1.234375 -0.421875q-0.359375 -0.421875 -0.359375 -1.375l0 -0.125l-0.03125 0q-0.828125 1.25 -1.734375 1.75q-0.890625 0.5 -2.265625 0.5q-1.6875 0 -2.703125 -0.84375q-1.0 -0.84375 -1.0 -2.390625q0 -1.59375 1.109375 -2.390625q1.109375 -0.8125 4.953125 -1.15625q0.875 -0.078125 1.21875 -0.40625q0.359375 -0.328125 0.359375 -1.078125q0 -1.109375 -0.6875 -1.6875q-0.671875 -0.578125 -2.1875 -0.578125q-1.390625 0 -2.15625 0.65625q-0.75 0.65625 -0.796875 1.90625l-1.34375 0q0.09375 -1.8125 1.234375 -2.734375q1.15625 -0.9375 3.234375 -0.9375zm2.65625 5.296875q-0.203125 0.375 -1.28125 0.515625q-1.0625 0.140625 -2.359375 0.375q-1.28125 0.21875 -1.953125 0.734375q-0.65625 0.5 -0.65625 1.40625q0 0.96875 0.71875 1.578125q0.734375 0.59375 1.734375 0.59375q1.65625 0 2.75 -0.96875q1.09375 -0.984375 1.09375 -2.421875l0 -1.8125l-0.046875 0zm8.960846 -5.296875q2.125 0 3.078125 1.03125q0.953125 1.015625 0.953125 3.09375l0 7.1875l-1.34375 0l0 -6.953125q0 -1.59375 -0.703125 -2.421875q-0.6875 -0.828125 -2.09375 -0.828125q-1.109375 0 -1.90625 0.546875q-0.796875 0.53125 -1.171875 1.4375q-0.375 0.890625 -0.375 1.78125l0 6.4375l-1.34375 0l0 -11.0l1.34375 0l0 1.890625l0.03125 0q0.390625 -0.984375 1.359375 -1.59375q0.96875 -0.609375 2.171875 -0.609375zm10.471161 0q1.796875 0 2.859375 0.921875q1.0625 0.90625 1.171875 2.59375l-1.34375 0q-0.0625 -1.15625 -0.859375 -1.78125q-0.78125 -0.625 -2.03125 -0.625q-1.15625 0 -1.875 0.5q-0.71875 0.5 -0.71875 1.40625q0 0.703125 0.640625 1.171875q0.640625 0.453125 1.640625 0.6875l2.3125 0.515625q1.125 0.25 1.875 1.015625q0.75 0.765625 0.75 1.921875q0 1.53125 -1.265625 2.421875q-1.265625 0.890625 -3.171875 0.890625q-2.03125 0 -3.1875 -0.984375q-1.15625 -0.984375 -1.328125 -2.90625l1.359375 0q0.0625 1.296875 0.9375 2.03125q0.890625 0.71875 2.296875 0.71875q1.25 0 2.125 -0.5625q0.890625 -0.5625 0.890625 -1.53125q0 -0.734375 -0.578125 -1.21875q-0.5625 -0.5 -1.890625 -0.796875l-1.6875 -0.375q-1.4375 -0.3125 -2.25 -1.0q-0.8125 -0.703125 -0.8125 -1.9375q0 -1.4375 1.15625 -2.25q1.171875 -0.828125 2.984375 -0.828125zm7.711029 -3.90625l0 15.21875l-1.34375 0l0 -15.21875l1.34375 0zm6.9313354 3.90625q2.078125 0 3.0625 0.90625q0.984375 0.890625 0.984375 2.53125l0 5.984375q0 0.328125 0.1875 0.546875q0.1875 0.203125 0.59375 0.203125q0.125 0 0.21875 -0.015625q0.109375 -0.015625 0.203125 -0.0625l0 1.140625q-0.25 0.046875 -0.453125 0.0625q-0.1875 0.015625 -0.40625 0.015625q-0.875 0 -1.234375 -0.421875q-0.359375 -0.421875 -0.359375 -1.375l0 -0.125l-0.03125 0q-0.828125 1.25 -1.734375 1.75q-0.890625 0.5 -2.265625 0.5q-1.6875 0 -2.703125 -0.84375q-1.0 -0.84375 -1.0 -2.390625q0 -1.59375 1.109375 -2.390625q1.109375 -0.8125 4.953125 -1.15625q0.875 -0.078125 1.21875 -0.40625q0.359375 -0.328125 0.359375 -1.078125q0 -1.109375 -0.6875 -1.6875q-0.671875 -0.578125 -2.1875 -0.578125q-1.390625 0 -2.15625 0.65625q-0.75 0.65625 -0.796875 1.90625l-1.34375 0q0.09375 -1.8125 1.234375 -2.734375q1.15625 -0.9375 3.234375 -0.9375zm2.65625 5.296875q-0.203125 0.375 -1.28125 0.515625q-1.0625 0.140625 -2.359375 0.375q-1.28125 0.21875 -1.953125 0.734375q-0.65625 0.5 -0.65625 1.40625q0 0.96875 0.71875 1.578125q0.734375 0.59375 1.734375 0.59375q1.65625 0 2.75 -0.96875q1.09375 -0.984375 1.09375 -2.421875l0 -1.8125l-0.046875 0zm6.210846 -8.296875l0 3.3125l2.234375 0l0 1.125l-2.234375 0l0 7.515625q0 0.84375 0.3125 1.109375q0.3125 0.25 0.8125 0.25q0.21875 0 0.5 -0.015625q0.28125 -0.015625 0.609375 -0.046875l0 1.140625q-0.296875 0.03125 -0.59375 0.03125q-0.296875 0.015625 -0.59375 0.015625q-1.34375 0 -1.875 -0.5q-0.515625 -0.515625 -0.515625 -1.84375l0 -7.65625l-1.9375 0l0 -1.125l1.9375 0l0 -3.3125l1.34375 0zm5.529724 -0.90625l0 2.15625l-1.34375 0l0 -2.15625l1.34375 0zm0 4.21875l0 11.0l-1.34375 0l0 -11.0l1.34375 0zm7.2282104 -0.3125q2.359375 0 3.78125 1.640625q1.421875 1.625 1.421875 4.171875q0 1.546875 -0.59375 2.875q-0.578125 1.328125 -1.78125 2.140625q-1.203125 0.8125 -2.828125 0.8125q-2.328125 0 -3.765625 -1.640625q-1.421875 -1.640625 -1.421875 -4.1875q0 -2.546875 1.421875 -4.171875q1.421875 -1.640625 3.765625 -1.640625zm-3.84375 5.8125q0 1.953125 1.046875 3.328125q1.046875 1.359375 2.796875 1.359375q1.75 0 2.8125 -1.375q1.0625 -1.375 1.0625 -3.3125q0 -1.9375 -1.0625 -3.3125q-1.0625 -1.390625 -2.828125 -1.390625q-1.703125 0 -2.765625 1.375q-1.0625 1.359375 -1.0625 3.328125zm15.955444 -5.8125q2.125 0 3.078125 1.03125q0.953125 1.015625 0.953125 3.09375l0 7.1875l-1.34375 0l0 -6.953125q0 -1.59375 -0.703125 -2.421875q-0.6875 -0.828125 -2.09375 -0.828125q-1.109375 0 -1.90625 0.546875q-0.796875 0.53125 -1.171875 1.4375q-0.375 0.890625 -0.375 1.78125l0 6.4375l-1.34375 0l0 -11.0l1.34375 0l0 1.890625l0.03125 0q0.390625 -0.984375 1.359375 -1.59375q0.96875 -0.609375 2.171875 -0.609375z" fill-rule="nonzero"/><path fill="#000000" fill-opacity="0.0" d="m159.6647 1070.9585l0 0c0 -3.31958 2.69104 -6.01062 6.01062 -6.01062l127.34885 0c1.5941162 0 3.1229248 0.6333008 4.2501526 1.760498c1.1271973 1.1271973 1.7604675 2.6560059 1.7604675 4.250122l0 24.041748c0 3.31958 -2.6910706 6.01062 -6.01062 6.01062l-127.34885 0c-3.31958 0 -6.01062 -2.69104 -6.01062 -6.01062z" fill-rule="evenodd"/><path stroke="#393f4d" stroke-width="1.0" stroke-linejoin="round" stroke-linecap="butt" d="m159.6647 1070.9585l0 0c0 -3.31958 2.69104 -6.01062 6.01062 -6.01062l127.34885 0c1.5941162 0 3.1229248 0.6333008 4.2501526 1.760498c1.1271973 1.1271973 1.7604675 2.6560059 1.7604675 4.250122l0 24.041748c0 3.31958 -2.6910706 6.01062 -6.01062 6.01062l-127.34885 0c-3.31958 0 -6.01062 -2.69104 -6.01062 -6.01062z" fill-rule="evenodd"/><path fill="#000000" d="m175.06578 1080.3394q1.578125 0 2.296875 0.78125q0.71875 0.765625 0.71875 2.328125l0 5.390625l-1.015625 0l0 -5.21875q0 -1.203125 -0.515625 -1.8125q-0.515625 -0.625 -1.578125 -0.625q-0.828125 0 -1.421875 0.40625q-0.59375 0.40625 -0.890625 1.078125q-0.28125 0.671875 -0.28125 1.34375l0 4.828125l-1.0 0l0 -8.265625l1.0 0l0 1.4375l0.03125 0q0.296875 -0.75 1.015625 -1.203125q0.734375 -0.46875 1.640625 -0.46875zm9.953125 -3.171875q1.84375 0 3.140625 0.984375q1.296875 0.96875 1.625 2.8125l-1.078125 0q-0.140625 -1.140625 -1.1875 -2.0q-1.046875 -0.859375 -2.5 -0.859375q-2.0 0 -3.15625 1.40625q-1.140625 1.40625 -1.140625 3.609375q0 2.1875 1.140625 3.609375q1.140625 1.421875 3.15625 1.421875q1.765625 0 2.859375 -1.09375q1.09375 -1.109375 1.09375 -3.078125l0 -0.03125l-3.890625 0l0 -0.921875l4.859375 0l0 5.8125l-0.796875 0l-0.140625 -2.078125l-0.03125 0q-0.546875 1.140625 -1.578125 1.734375q-1.015625 0.59375 -2.375 0.59375q-2.46875 0 -3.9375 -1.671875q-1.453125 -1.6875 -1.453125 -4.296875q0 -2.609375 1.46875 -4.28125q1.46875 -1.671875 3.921875 -1.671875zm10.65625 3.296875l0.25 0l0 1.015625l-0.125 0q-1.328125 0 -2.140625 0.859375q-0.8125 0.84375 -0.8125 2.125l0 4.375l-1.0 0l0 -8.265625l0.921875 0l0 1.9375l0.03125 0q0.375 -0.96875 1.140625 -1.5q0.765625 -0.546875 1.734375 -0.546875zm4.078125 -0.125q1.5625 0 2.296875 0.6875q0.734375 0.671875 0.734375 1.90625l0 4.484375q0 0.25 0.140625 0.40625q0.140625 0.15625 0.453125 0.15625q0.09375 0 0.171875 0q0.078125 -0.015625 0.140625 -0.0625l0 0.859375q-0.1875 0.03125 -0.328125 0.046875q-0.140625 0.015625 -0.3125 0.015625q-0.65625 0 -0.921875 -0.3125q-0.265625 -0.328125 -0.265625 -1.046875l0 -0.078125l-0.03125 0q-0.625 0.9375 -1.296875 1.3125q-0.671875 0.375 -1.703125 0.375q-1.265625 0 -2.03125 -0.625q-0.75 -0.640625 -0.75 -1.8125q0 -1.1875 0.828125 -1.796875q0.84375 -0.609375 3.71875 -0.859375q0.65625 -0.0625 0.921875 -0.296875q0.265625 -0.25 0.265625 -0.8125q0 -0.84375 -0.515625 -1.265625q-0.5 -0.4375 -1.640625 -0.4375q-1.046875 0 -1.625 0.5q-0.5625 0.484375 -0.59375 1.421875l-1.0 0q0.0625 -1.359375 0.921875 -2.0625q0.875 -0.703125 2.421875 -0.703125zm2.0 3.984375q-0.15625 0.28125 -0.96875 0.390625q-0.796875 0.109375 -1.765625 0.28125q-0.96875 0.15625 -1.46875 0.546875q-0.484375 0.375 -0.484375 1.046875q0 0.734375 0.546875 1.1875q0.546875 0.453125 1.296875 0.453125q1.234375 0 2.046875 -0.734375q0.828125 -0.734375 0.828125 -1.8125l0 -1.359375l-0.03125 0zm6.9609375 -3.984375q1.734375 0 2.71875 1.21875q0.984375 1.203125 0.984375 3.15625q0 1.921875 -1.0 3.15625q-0.984375 1.21875 -2.703125 1.21875q-0.984375 0 -1.78125 -0.484375q-0.78125 -0.5 -1.09375 -1.34375l-0.03125 0l0 4.640625l-1.0 0l0 -11.328125l0.921875 0l0 1.578125l0.03125 0q0.375 -0.875 1.15625 -1.34375q0.796875 -0.46875 1.796875 -0.46875zm-2.90625 4.359375q0 1.578125 0.75 2.5625q0.765625 0.96875 2.15625 0.96875q1.265625 0 1.984375 -1.0q0.71875 -1.015625 0.71875 -2.515625q0 -1.515625 -0.71875 -2.515625q-0.71875 -1.015625 -2.015625 -1.015625q-1.390625 0 -2.140625 0.890625q-0.734375 0.875 -0.734375 2.625zm9.171875 -7.28125l0 4.59375l0.03125 0q0.296875 -0.75 1.015625 -1.203125q0.734375 -0.46875 1.640625 -0.46875q1.578125 0 2.296875 0.78125q0.71875 0.765625 0.71875 2.328125l0 5.390625l-1.015625 0l0 -5.21875q0 -1.203125 -0.515625 -1.8125q-0.515625 -0.625 -1.578125 -0.625q-0.828125 0 -1.421875 0.40625q-0.59375 0.40625 -0.890625 1.078125q-0.28125 0.671875 -0.28125 1.34375l0 4.828125l-1.0 0l0 -11.421875l1.0 0zm19.492188 0l0 0.921875l-6.15625 0l0 4.125l5.46875 0l0 0.9375l-5.46875 0l0 5.4375l-1.09375 0l0 -11.421875l7.25 0zm1.546875 3.15625l0 5.390625q0 1.03125 0.484375 1.65625q0.5 0.609375 1.71875 0.609375q1.15625 0 1.8125 -0.921875q0.671875 -0.9375 0.671875 -2.328125l0 -4.40625l1.015625 0l0 8.265625l-0.9375 0l0 -1.484375l-0.03125 0q-0.390625 0.8125 -1.140625 1.28125q-0.75 0.453125 -1.703125 0.453125q-1.484375 0 -2.1875 -0.796875q-0.703125 -0.796875 -0.703125 -2.28125l0 -5.4375l1.0 0zm11.28125 -0.234375q1.578125 0 2.296875 0.78125q0.71875 0.765625 0.71875 2.328125l0 5.390625l-1.015625 0l0 -5.21875q0 -1.203125 -0.515625 -1.8125q-0.515625 -0.625 -1.578125 -0.625q-0.828125 0 -1.421875 0.40625q-0.59375 0.40625 -0.890625 1.078125q-0.28125 0.671875 -0.28125 1.34375l0 4.828125l-1.0 0l0 -8.265625l1.0 0l0 1.4375l0.03125 0q0.296875 -0.75 1.015625 -1.203125q0.734375 -0.46875 1.640625 -0.46875zm8.40625 0q1.4531097 0 2.3124847 0.75q0.859375 0.75 1.03125 2.078125l-1.015625 0q-0.21875 -0.984375 -0.8125 -1.484375q-0.578125 -0.5 -1.5156097 -0.5q-1.296875 0 -2.09375 1.03125q-0.796875 1.015625 -0.796875 2.5q0 1.46875 0.796875 2.5q0.796875 1.015625 2.09375 1.015625q0.90623474 0 1.5937347 -0.640625q0.6875 -0.640625 0.8125 -1.71875l1.0 0q-0.234375 1.546875 -1.140625 2.390625q-0.890625 0.828125 -2.2656097 0.828125q-1.75 0 -2.828125 -1.234375q-1.078125 -1.234375 -1.078125 -3.140625q0 -1.921875 1.0625 -3.140625q1.078125 -1.234375 2.84375 -1.234375zm6.4140472 -2.234375l0 2.46875l1.6875 0l0 0.859375l-1.6875 0l0 5.625q0 0.640625 0.234375 0.84375q0.25 0.1875 0.625 0.1875q0.15625 0 0.359375 -0.015625q0.21875 -0.015625 0.46875 -0.03125l0 0.859375q-0.21875 0.015625 -0.453125 0.015625q-0.21875 0.015625 -0.4375 0.015625q-1.015625 0 -1.40625 -0.375q-0.390625 -0.390625 -0.390625 -1.390625l0 -5.734375l-1.453125 0l0 -0.859375l1.453125 0l0 -2.46875l1.0 0zm4.15625 -0.6875l0 1.609375l-1.0 0l0 -1.609375l1.0 0zm0 3.15625l0 8.265625l-1.0 0l0 -8.265625l1.0 0zm5.4296875 -0.234375q1.765625 0 2.828125 1.234375q1.078125 1.21875 1.078125 3.140625q0 1.15625 -0.453125 2.15625q-0.4375 1.0 -1.34375 1.609375q-0.890625 0.609375 -2.109375 0.609375q-1.75 0 -2.828125 -1.234375q-1.078125 -1.234375 -1.078125 -3.140625q0 -1.921875 1.0625 -3.140625q1.078125 -1.234375 2.84375 -1.234375zm-2.890625 4.375q0 1.453125 0.78125 2.484375q0.796875 1.03125 2.109375 1.03125q1.3125 0 2.09375 -1.03125q0.796875 -1.03125 0.796875 -2.484375q0 -1.453125 -0.796875 -2.484375q-0.78125 -1.046875 -2.109375 -1.046875q-1.28125 0 -2.078125 1.03125q-0.796875 1.015625 -0.796875 2.5zm11.9765625 -4.375q1.578125 0 2.296875 0.78125q0.71875 0.765625 0.71875 2.328125l0 5.390625l-1.015625 0l0 -5.21875q0 -1.203125 -0.515625 -1.8125q-0.515625 -0.625 -1.578125 -0.625q-0.828125 0 -1.421875 0.40625q-0.59375 0.40625 -0.890625 1.078125q-0.28125 0.671875 -0.28125 1.34375l0 4.828125l-1.0 0l0 -8.265625l1.0 0l0 1.4375l0.03125 0q0.296875 -0.75 1.015625 -1.203125q0.734375 -0.46875 1.640625 -0.46875z" fill-rule="nonzero"/><path fill="#000000" fill-opacity="0.0" d="m439.72507 1100.9375l0 0c0 -3.31958 2.69104 -6.01062 6.01062 -6.01062l127.34885 0c1.5941162 0 3.1229248 0.6333008 4.250122 1.760498c1.1272583 1.1271973 1.760498 2.6560059 1.760498 4.250122l0 24.041748c0 3.31958 -2.69104 6.01062 -6.01062 6.01062l-127.34885 0c-3.31958 0 -6.01062 -2.69104 -6.01062 -6.01062z" fill-rule="evenodd"/><path stroke="#393f4d" stroke-width="1.0" stroke-linejoin="round" stroke-linecap="butt" d="m439.72507 1100.9375l0 0c0 -3.31958 2.69104 -6.01062 6.01062 -6.01062l127.34885 0c1.5941162 0 3.1229248 0.6333008 4.250122 1.760498c1.1272583 1.1271973 1.760498 2.6560059 1.760498 4.250122l0 24.041748c0 3.31958 -2.69104 6.01062 -6.01062 6.01062l-127.34885 0c-3.31958 0 -6.01062 -2.69104 -6.01062 -6.01062z" fill-rule="evenodd"/><path fill="#000000" d="m455.12613 1110.3184q1.578125 0 2.296875 0.78125q0.71875 0.765625 0.71875 2.328125l0 5.390625l-1.015625 0l0 -5.21875q0 -1.203125 -0.515625 -1.8125q-0.515625 -0.625 -1.578125 -0.625q-0.828125 0 -1.421875 0.40625q-0.59375 0.40625 -0.890625 1.078125q-0.28125 0.671875 -0.28125 1.34375l0 4.828125l-1.0 0l0 -8.265625l1.0 0l0 1.4375l0.03125 0q0.296875 -0.75 1.015625 -1.203125q0.734375 -0.46875 1.640625 -0.46875zm9.953125 -3.171875q1.84375 0 3.140625 0.984375q1.296875 0.96875 1.625 2.8125l-1.078125 0q-0.140625 -1.140625 -1.1875 -2.0q-1.046875 -0.859375 -2.5 -0.859375q-2.0 0 -3.15625 1.40625q-1.140625 1.40625 -1.140625 3.609375q0 2.1875 1.140625 3.609375q1.140625 1.421875 3.15625 1.421875q1.765625 0 2.859375 -1.09375q1.09375 -1.109375 1.09375 -3.078125l0 -0.03125l-3.890625 0l0 -0.921875l4.859375 0l0 5.8125l-0.796875 0l-0.140625 -2.078125l-0.03125 0q-0.546875 1.140625 -1.578125 1.734375q-1.015625 0.59375 -2.375 0.59375q-2.46875 0 -3.9375 -1.671875q-1.453125 -1.6875 -1.453125 -4.296875q0 -2.609375 1.46875 -4.28125q1.46875 -1.671875 3.921875 -1.671875zm10.65625 3.296875l0.25 0l0 1.015625l-0.125 0q-1.328125 0 -2.140625 0.859375q-0.8125 0.84375 -0.8125 2.125l0 4.375l-1.0 0l0 -8.265625l0.921875 0l0 1.9375l0.03125 0q0.375 -0.96875 1.140625 -1.5q0.765625 -0.546875 1.734375 -0.546875zm4.078125 -0.125q1.5625 0 2.296875 0.6875q0.734375 0.671875 0.734375 1.90625l0 4.484375q0 0.25 0.140625 0.40625q0.140625 0.15625 0.453125 0.15625q0.09375 0 0.171875 0q0.078125 -0.015625 0.140625 -0.0625l0 0.859375q-0.1875 0.03125 -0.328125 0.046875q-0.140625 0.015625 -0.3125 0.015625q-0.65625 0 -0.921875 -0.3125q-0.265625 -0.328125 -0.265625 -1.046875l0 -0.078125l-0.03125 0q-0.625 0.9375 -1.296875 1.3125q-0.671875 0.375 -1.703125 0.375q-1.265625 0 -2.03125 -0.625q-0.75 -0.640625 -0.75 -1.8125q0 -1.1875 0.828125 -1.796875q0.84375 -0.609375 3.71875 -0.859375q0.65625 -0.0625 0.921875 -0.296875q0.265625 -0.25 0.265625 -0.8125q0 -0.84375 -0.515625 -1.265625q-0.5 -0.4375 -1.640625 -0.4375q-1.046875 0 -1.625 0.5q-0.5625 0.484375 -0.59375 1.421875l-1.0 0q0.0625 -1.359375 0.921875 -2.0625q0.875 -0.703125 2.421875 -0.703125zm2.0 3.984375q-0.15625 0.28125 -0.96875 0.390625q-0.796875 0.109375 -1.765625 0.28125q-0.96875 0.15625 -1.46875 0.546875q-0.484375 0.375 -0.484375 1.046875q0 0.734375 0.546875 1.1875q0.546875 0.453125 1.296875 0.453125q1.234375 0 2.046875 -0.734375q0.828125 -0.734375 0.828125 -1.8125l0 -1.359375l-0.03125 0zm6.9609375 -3.984375q1.734375 0 2.71875 1.21875q0.984375 1.203125 0.984375 3.15625q0 1.921875 -1.0 3.15625q-0.984375 1.21875 -2.703125 1.21875q-0.984375 0 -1.78125 -0.484375q-0.78125 -0.5 -1.09375 -1.34375l-0.03125 0l0 4.640625l-1.0 0l0 -11.328125l0.921875 0l0 1.578125l0.03125 0q0.375 -0.875 1.15625 -1.34375q0.796875 -0.46875 1.796875 -0.46875zm-2.90625 4.359375q0 1.578125 0.75 2.5625q0.765625 0.96875 2.15625 0.96875q1.265625 0 1.984375 -1.0q0.71875 -1.015625 0.71875 -2.515625q0 -1.515625 -0.71875 -2.515625q-0.71875 -1.015625 -2.015625 -1.015625q-1.390625 0 -2.140625 0.890625q-0.734375 0.875 -0.734375 2.625zm9.171875 -7.28125l0 4.59375l0.03125 0q0.296875 -0.75 1.015625 -1.203125q0.734375 -0.46875 1.640625 -0.46875q1.578125 0 2.296875 0.78125q0.71875 0.765625 0.71875 2.328125l0 5.390625l-1.015625 0l0 -5.21875q0 -1.203125 -0.515625 -1.8125q-0.515625 -0.625 -1.578125 -0.625q-0.828125 0 -1.421875 0.40625q-0.59375 0.40625 -0.890625 1.078125q-0.28125 0.671875 -0.28125 1.34375l0 4.828125l-1.0 0l0 -11.421875l1.0 0zm19.492218 0l0 0.921875l-6.1562805 0l0 4.125l5.4687805 0l0 0.9375l-5.4687805 0l0 5.4375l-1.09375 0l0 -11.421875l7.2500305 0zm1.546875 3.15625l0 5.390625q0 1.03125 0.484375 1.65625q0.5 0.609375 1.71875 0.609375q1.15625 0 1.8125 -0.921875q0.671875 -0.9375 0.671875 -2.328125l0 -4.40625l1.015625 0l0 8.265625l-0.9375 0l0 -1.484375l-0.03125 0q-0.390625 0.8125 -1.140625 1.28125q-0.75 0.453125 -1.703125 0.453125q-1.484375 0 -2.1875 -0.796875q-0.703125 -0.796875 -0.703125 -2.28125l0 -5.4375l1.0 0zm11.28125 -0.234375q1.578125 0 2.296875 0.78125q0.71875 0.765625 0.71875 2.328125l0 5.390625l-1.015625 0l0 -5.21875q0 -1.203125 -0.515625 -1.8125q-0.515625 -0.625 -1.578125 -0.625q-0.828125 0 -1.421875 0.40625q-0.59375 0.40625 -0.890625 1.078125q-0.28125 0.671875 -0.28125 1.34375l0 4.828125l-1.0 0l0 -8.265625l1.0 0l0 1.4375l0.03125 0q0.296875 -0.75 1.015625 -1.203125q0.734375 -0.46875 1.640625 -0.46875zm8.40625 0q1.453125 0 2.3125 0.75q0.859375 0.75 1.03125 2.078125l-1.015625 0q-0.21875 -0.984375 -0.8125 -1.484375q-0.578125 -0.5 -1.515625 -0.5q-1.296875 0 -2.09375 1.03125q-0.796875 1.015625 -0.796875 2.5q0 1.46875 0.796875 2.5q0.796875 1.015625 2.09375 1.015625q0.90625 0 1.59375 -0.640625q0.6875 -0.640625 0.8125 -1.71875l1.0 0q-0.234375 1.546875 -1.140625 2.390625q-0.890625 0.828125 -2.265625 0.828125q-1.75 0 -2.828125 -1.234375q-1.078125 -1.234375 -1.078125 -3.140625q0 -1.921875 1.0625 -3.140625q1.078125 -1.234375 2.84375 -1.234375zm6.4140625 -2.234375l0 2.46875l1.6875 0l0 0.859375l-1.6875 0l0 5.625q0 0.640625 0.234375 0.84375q0.25 0.1875 0.625 0.1875q0.15625 0 0.359375 -0.015625q0.21875 -0.015625 0.46875 -0.03125l0 0.859375q-0.21875 0.015625 -0.453125 0.015625q-0.21875 0.015625 -0.4375 0.015625q-1.015625 0 -1.40625 -0.375q-0.390625 -0.390625 -0.390625 -1.390625l0 -5.734375l-1.453125 0l0 -0.859375l1.453125 0l0 -2.46875l1.0 0zm4.15625 -0.6875l0 1.609375l-1.0 0l0 -1.609375l1.0 0zm0 3.15625l0 8.265625l-1.0 0l0 -8.265625l1.0 0zm5.4296875 -0.234375q1.765625 0 2.828125 1.234375q1.078125 1.21875 1.078125 3.140625q0 1.15625 -0.453125 2.15625q-0.4375 1.0 -1.34375 1.609375q-0.890625 0.609375 -2.109375 0.609375q-1.75 0 -2.828125 -1.234375q-1.078125 -1.234375 -1.078125 -3.140625q0 -1.921875 1.0625 -3.140625q1.078125 -1.234375 2.84375 -1.234375zm-2.890625 4.375q0 1.453125 0.78125 2.484375q0.796875 1.03125 2.109375 1.03125q1.3125 0 2.09375 -1.03125q0.796875 -1.03125 0.796875 -2.484375q0 -1.453125 -0.796875 -2.484375q-0.78125 -1.046875 -2.109375 -1.046875q-1.28125 0 -2.078125 1.03125q-0.796875 1.015625 -0.796875 2.5zm11.9765625 -4.375q1.578125 0 2.296875 0.78125q0.71875 0.765625 0.71875 2.328125l0 5.390625l-1.015625 0l0 -5.21875q0 -1.203125 -0.515625 -1.8125q-0.515625 -0.625 -1.578125 -0.625q-0.828125 0 -1.421875 0.40625q-0.59375 0.40625 -0.890625 1.078125q-0.28125 0.671875 -0.28125 1.34375l0 4.828125l-1.0 0l0 -8.265625l1.0 0l0 1.4375l0.03125 0q0.296875 -0.75 1.015625 -1.203125q0.734375 -0.46875 1.640625 -0.46875z" fill-rule="nonzero"/><path fill="#000000" fill-opacity="0.0" d="m468.96652 833.6934l0 0c0 -3.31958 2.6910706 -6.01062 6.01062 -6.01062l127.34885 0c1.5941162 0 3.1229248 0.63323975 4.250183 1.760437c1.1271973 1.1271973 1.760437 2.656067 1.760437 4.250183l0 24.041748c0 3.31958 -2.69104 6.01062 -6.01062 6.01062l-127.34885 0c-3.3195496 0 -6.01062 -2.69104 -6.01062 -6.01062z" fill-rule="evenodd"/><path stroke="#393f4d" stroke-width="1.0" stroke-linejoin="round" stroke-linecap="butt" d="m468.96652 833.6934l0 0c0 -3.31958 2.6910706 -6.01062 6.01062 -6.01062l127.34885 0c1.5941162 0 3.1229248 0.63323975 4.250183 1.760437c1.1271973 1.1271973 1.760437 2.656067 1.760437 4.250183l0 24.041748c0 3.31958 -2.69104 6.01062 -6.01062 6.01062l-127.34885 0c-3.3195496 0 -6.01062 -2.69104 -6.01062 -6.01062z" fill-rule="evenodd"/><path fill="#000000" d="m484.3676 843.0743q1.578125 0 2.296875 0.78125q0.71875 0.765625 0.71875 2.328125l0 5.390625l-1.015625 0l0 -5.21875q0 -1.203125 -0.515625 -1.8125q-0.515625 -0.625 -1.578125 -0.625q-0.828125 0 -1.421875 0.40625q-0.59375 0.40625 -0.890625 1.078125q-0.28125 0.671875 -0.28125 1.34375l0 4.828125l-1.0 0l0 -8.265625l1.0 0l0 1.4375l0.03125 0q0.296875 -0.75 1.015625 -1.203125q0.734375 -0.46875 1.640625 -0.46875zm9.953125 -3.171875q1.84375 0 3.140625 0.984375q1.296875 0.96875 1.625 2.8125l-1.078125 0q-0.140625 -1.140625 -1.1875 -2.0q-1.046875 -0.859375 -2.5 -0.859375q-2.0 0 -3.15625 1.40625q-1.140625 1.40625 -1.140625 3.609375q0 2.1875 1.140625 3.609375q1.140625 1.421875 3.15625 1.421875q1.765625 0 2.859375 -1.09375q1.09375 -1.109375 1.09375 -3.078125l0 -0.03125l-3.890625 0l0 -0.921875l4.859375 0l0 5.8125l-0.796875 0l-0.140625 -2.078125l-0.03125 0q-0.546875 1.140625 -1.578125 1.734375q-1.015625 0.59375 -2.375 0.59375q-2.46875 0 -3.9375 -1.671875q-1.453125 -1.6875 -1.453125 -4.296875q0 -2.609375 1.46875 -4.28125q1.46875 -1.671875 3.921875 -1.671875zm10.65625 3.296875l0.25 0l0 1.015625l-0.125 0q-1.328125 0 -2.140625 0.859375q-0.8125 0.84375 -0.8125 2.125l0 4.375l-1.0 0l0 -8.265625l0.921875 0l0 1.9375l0.03125 0q0.375 -0.96875 1.140625 -1.5q0.765625 -0.546875 1.734375 -0.546875zm4.078125 -0.125q1.5625 0 2.296875 0.6875q0.734375 0.671875 0.734375 1.90625l0 4.484375q0 0.25 0.140625 0.40625q0.140625 0.15625 0.453125 0.15625q0.09375 0 0.171875 0q0.078125 -0.015625 0.140625 -0.0625l0 0.859375q-0.1875 0.03125 -0.328125 0.046875q-0.140625 0.015625 -0.3125 0.015625q-0.65625 0 -0.921875 -0.3125q-0.265625 -0.328125 -0.265625 -1.046875l0 -0.078125l-0.03125 0q-0.625 0.9375 -1.296875 1.3125q-0.671875 0.375 -1.703125 0.375q-1.265625 0 -2.03125 -0.625q-0.75 -0.640625 -0.75 -1.8125q0 -1.1875 0.828125 -1.796875q0.84375 -0.609375 3.71875 -0.859375q0.65625 -0.0625 0.921875 -0.296875q0.265625 -0.25 0.265625 -0.8125q0 -0.84375 -0.515625 -1.265625q-0.5 -0.4375 -1.640625 -0.4375q-1.046875 0 -1.625 0.5q-0.5625 0.484375 -0.59375 1.421875l-1.0 0q0.0625 -1.359375 0.921875 -2.0625q0.875 -0.703125 2.421875 -0.703125zm2.0 3.984375q-0.15625 0.28125 -0.96875 0.390625q-0.796875 0.109375 -1.765625 0.28125q-0.96875 0.15625 -1.46875 0.546875q-0.484375 0.375 -0.484375 1.046875q0 0.734375 0.546875 1.1875q0.546875 0.453125 1.296875 0.453125q1.234375 0 2.046875 -0.734375q0.828125 -0.734375 0.828125 -1.8125l0 -1.359375l-0.03125 0zm6.9609375 -3.984375q1.734375 0 2.71875 1.21875q0.984375 1.203125 0.984375 3.15625q0 1.921875 -1.0 3.15625q-0.984375 1.21875 -2.703125 1.21875q-0.984375 0 -1.78125 -0.484375q-0.78125 -0.5 -1.09375 -1.34375l-0.03125 0l0 4.640625l-1.0 0l0 -11.328125l0.921875 0l0 1.578125l0.03125 0q0.375 -0.875 1.15625 -1.34375q0.796875 -0.46875 1.796875 -0.46875zm-2.90625 4.359375q0 1.578125 0.75 2.5625q0.765625 0.96875 2.15625 0.96875q1.265625 0 1.984375 -1.0q0.71875 -1.015625 0.71875 -2.515625q0 -1.515625 -0.71875 -2.515625q-0.71875 -1.015625 -2.015625 -1.015625q-1.390625 0 -2.140625 0.890625q-0.734375 0.875 -0.734375 2.625zm9.171875 -7.28125l0 4.59375l0.03125 0q0.296875 -0.75 1.015625 -1.203125q0.734375 -0.46875 1.640625 -0.46875q1.578125 0 2.296875 0.78125q0.71875 0.765625 0.71875 2.328125l0 5.390625l-1.015625 0l0 -5.21875q0 -1.203125 -0.515625 -1.8125q-0.515625 -0.625 -1.578125 -0.625q-0.828125 0 -1.421875 0.40625q-0.59375 0.40625 -0.890625 1.078125q-0.28125 0.671875 -0.28125 1.34375l0 4.828125l-1.0 0l0 -11.421875l1.0 0zm19.492188 0l0 0.921875l-6.15625 0l0 4.125l5.46875 0l0 0.9375l-5.46875 0l0 5.4375l-1.09375 0l0 -11.421875l7.25 0zm1.546875 3.15625l0 5.390625q0 1.03125 0.484375 1.65625q0.5 0.609375 1.71875 0.609375q1.15625 0 1.8125 -0.921875q0.671875 -0.9375 0.671875 -2.328125l0 -4.40625l1.015625 0l0 8.265625l-0.9375 0l0 -1.484375l-0.03125 0q-0.390625 0.8125 -1.140625 1.28125q-0.75 0.453125 -1.703125 0.453125q-1.484375 0 -2.1875 -0.796875q-0.703125 -0.796875 -0.703125 -2.28125l0 -5.4375l1.0 0zm11.28125 -0.234375q1.578125 0 2.296875 0.78125q0.71875 0.765625 0.71875 2.328125l0 5.390625l-1.015625 0l0 -5.21875q0 -1.203125 -0.515625 -1.8125q-0.515625 -0.625 -1.578125 -0.625q-0.828125 0 -1.421875 0.40625q-0.59375 0.40625 -0.890625 1.078125q-0.28125 0.671875 -0.28125 1.34375l0 4.828125l-1.0 0l0 -8.265625l1.0 0l0 1.4375l0.03125 0q0.296875 -0.75 1.015625 -1.203125q0.734375 -0.46875 1.640625 -0.46875zm8.40625 0q1.453125 0 2.3125 0.75q0.859375 0.75 1.03125 2.078125l-1.015625 0q-0.21875 -0.984375 -0.8125 -1.484375q-0.578125 -0.5 -1.515625 -0.5q-1.296875 0 -2.09375 1.03125q-0.796875 1.015625 -0.796875 2.5q0 1.46875 0.796875 2.5q0.796875 1.015625 2.09375 1.015625q0.90625 0 1.59375 -0.640625q0.6875 -0.640625 0.8125 -1.71875l1.0 0q-0.234375 1.546875 -1.140625 2.390625q-0.890625 0.828125 -2.265625 0.828125q-1.75 0 -2.828125 -1.234375q-1.078125 -1.234375 -1.078125 -3.140625q0 -1.921875 1.0625 -3.140625q1.078125 -1.234375 2.84375 -1.234375zm6.4140625 -2.234375l0 2.46875l1.6875 0l0 0.859375l-1.6875 0l0 5.625q0 0.640625 0.234375 0.84375q0.25 0.1875 0.625 0.1875q0.15625 0 0.359375 -0.015625q0.21875 -0.015625 0.46875 -0.03125l0 0.859375q-0.21875 0.015625 -0.453125 0.015625q-0.21875 0.015625 -0.4375 0.015625q-1.015625 0 -1.40625 -0.375q-0.390625 -0.390625 -0.390625 -1.390625l0 -5.734375l-1.453125 0l0 -0.859375l1.453125 0l0 -2.46875l1.0 0zm4.15625 -0.6875l0 1.609375l-1.0 0l0 -1.609375l1.0 0zm0 3.15625l0 8.265625l-1.0 0l0 -8.265625l1.0 0zm5.4296875 -0.234375q1.765625 0 2.828125 1.234375q1.078125 1.21875 1.078125 3.140625q0 1.15625 -0.453125 2.15625q-0.4375 1.0 -1.34375 1.609375q-0.890625 0.609375 -2.109375 0.609375q-1.75 0 -2.828125 -1.234375q-1.078125 -1.234375 -1.078125 -3.140625q0 -1.921875 1.0625 -3.140625q1.078125 -1.234375 2.84375 -1.234375zm-2.890625 4.375q0 1.453125 0.78125 2.484375q0.796875 1.03125 2.109375 1.03125q1.3125 0 2.09375 -1.03125q0.796875 -1.03125 0.796875 -2.484375q0 -1.453125 -0.796875 -2.484375q-0.78125 -1.046875 -2.109375 -1.046875q-1.28125 0 -2.078125 1.03125q-0.796875 1.015625 -0.796875 2.5zm11.9765625 -4.375q1.578125 0 2.296875 0.78125q0.71875 0.765625 0.71875 2.328125l0 5.390625l-1.015625 0l0 -5.21875q0 -1.203125 -0.515625 -1.8125q-0.515625 -0.625 -1.578125 -0.625q-0.828125 0 -1.421875 0.40625q-0.59375 0.40625 -0.890625 1.078125q-0.28125 0.671875 -0.28125 1.34375l0 4.828125l-1.0 0l0 -8.265625l1.0 0l0 1.4375l0.03125 0q0.296875 -0.75 1.015625 -1.203125q0.734375 -0.46875 1.640625 -0.46875z" fill-rule="nonzero"/><path fill="#000000" fill-opacity="0.0" d="m510.15485 1094.9269c6.3867188 -6.190674 36.014038 -27.097168 38.32019 -37.14441c2.3062134 -10.047241 -20.402405 -19.282593 -24.48291 -23.139038" fill-rule="evenodd"/><path stroke="#000000" stroke-width="2.0" stroke-linejoin="round" stroke-linecap="butt" stroke-dasharray="8.0,6.0" d="m510.15485 1094.9269c6.3867188 -6.190796 36.013977 -27.097168 38.32019 -37.14441c1.1531372 -5.0235596 -3.9474487 -9.844238 -9.846436 -13.891113c-0.7373657 -0.5057373 -1.4871826 -0.9995117 -2.2388306 -1.4801025c-0.3758545 -0.24023438 -0.75213623 -0.47729492 -1.1275635 -0.7108154l-1.1051025 -0.6795654" fill-rule="evenodd"/><path fill="#000000" stroke="#000000" stroke-width="2.0" stroke-linecap="butt" d="m535.9128 1038.2225l-9.44397 -2.0252686l5.932678 7.6219482z" fill-rule="evenodd"/><path fill="#000000" fill-opacity="0.0" d="m220.01984 907.16l60.125977 21.007874" fill-rule="evenodd"/><path stroke="#393f4d" stroke-width="2.0" stroke-linejoin="round" stroke-linecap="butt" d="m220.01982 907.1599l48.79756 17.049805" fill-rule="evenodd"/><path fill="#393f4d" stroke="#393f4d" stroke-width="2.0" stroke-linecap="butt" d="m267.72775 927.3283l9.657898 -0.12487793l-7.4786377 -6.1123047z" fill-rule="evenodd"/><path fill="#d4d4d4" d="m186.41353 907.16l0 0c0 -9.28009 7.5230255 -16.803162 16.803146 -16.803162l0 0c4.456482 0 8.730423 1.7703247 11.881622 4.92157c3.1512146 3.151184 4.9215393 7.42511 4.9215393 11.881592l0 0c0 9.280151 -7.5230255 16.803162 -16.803162 16.803162l0 0c-9.280121 0 -16.803146 -7.5230103 -16.803146 -16.803162z" fill-rule="evenodd"/><path fill="#d4d4d4" d="m191.54802 1003.15845l0 0c0 -9.280151 7.5230255 -16.803162 16.803146 -16.803162l0 0c4.4564667 0 8.730423 1.7703247 11.881622 4.921509c3.1511993 3.151184 4.921524 7.425171 4.921524 11.881653l0 0c0 9.28009 -7.5230255 16.8031 -16.803146 16.8031l0 0c-9.280121 0 -16.803146 -7.5230103 -16.803146 -16.8031z" fill-rule="evenodd"/><path fill="#304e94" d="m270.2969 951.92633l0 0c0 -18.560242 15.046051 -33.606323 33.606293 -33.606323l0 0c8.912933 0 17.460846 3.5406494 23.763245 9.843079c6.3023987 6.302429 9.843048 14.850281 9.843048 23.763245l0 0c0 18.560242 -15.046051 33.606323 -33.606293 33.606323l0 0c-18.560242 0 -33.606293 -15.046082 -33.606293 -33.606323z" fill-rule="evenodd"/><path fill="#d4d4d4" d="m334.37943 867.77783l0 0c0 -9.28009 7.5230103 -16.803162 16.803131 -16.803162l0 0c4.456482 0 8.730438 1.7703857 11.881622 4.92157c3.1512146 3.151184 4.9215393 7.42511 4.9215393 11.881592l0 0c0 9.280151 -7.523041 16.803162 -16.803162 16.803162l0 0c-9.280121 0 -16.803131 -7.5230103 -16.803131 -16.803162z" fill-rule="evenodd"/><path fill="#0c8ccf" d="m461.02722 926.3747l0 0c0 -18.560242 15.046051 -33.606323 33.606293 -33.606323l0 0c8.912964 0 17.460846 3.5406494 23.763275 9.843079c6.302368 6.302368 9.843018 14.850281 9.843018 23.763245l0 0c0 18.560242 -15.0460205 33.606262 -33.606293 33.606262l0 0c-18.560242 0 -33.606293 -15.0460205 -33.606293 -33.606262z" fill-rule="evenodd"/><path fill="#d4d4d4" d="m400.6786 1043.7562l0 0c0 -9.280151 7.523041 -16.803223 16.803162 -16.803223l0 0c4.4564514 0 8.730408 1.7703857 11.881622 4.921631c3.151184 3.151123 4.921509 7.425049 4.921509 11.881592l0 0c0 9.280151 -7.5230103 16.8031 -16.803131 16.8031l0 0c-9.280121 0 -16.803162 -7.522949 -16.803162 -16.8031z" fill-rule="evenodd"/><path fill="#d4d4d4" d="m397.47333 943.1293l0 0c0 -9.28009 7.5230103 -16.803162 16.803131 -16.803162l0 0c4.456482 0 8.730438 1.7703247 11.881622 4.92157c3.1512146 3.151184 4.9215393 7.42511 4.9215393 11.881592l0 0c0 9.280151 -7.5230103 16.803162 -16.803162 16.803162l0 0c-9.280121 0 -16.803131 -7.5230103 -16.803131 -16.803162z" fill-rule="evenodd"/><path fill="#009c07" d="m470.4842 1008.2583l0 0c0 -18.560242 15.046051 -33.606323 33.606323 -33.606323l0 0c8.912903 0 17.460815 3.5406494 23.763245 9.843079c6.302368 6.302368 9.843018 14.850281 9.843018 23.763245l0 0c0 18.56018 -15.0460205 33.606323 -33.606262 33.606323l0 0c-18.560272 0 -33.606323 -15.046143 -33.606323 -33.606323z" fill-rule="evenodd"/><path fill="#000000" fill-opacity="0.0" d="m434.28488 1043.7562l46.04724 -11.748047" fill-rule="evenodd"/><path stroke="#393f4d" stroke-width="2.0" stroke-linejoin="round" stroke-linecap="butt" d="m434.2849 1043.7562l34.419678 -8.781494" fill-rule="evenodd"/><path fill="#393f4d" stroke="#393f4d" stroke-width="2.0" stroke-linecap="butt" d="m469.52127 1038.1757l7.9778137 -5.444702l-9.611145 -0.9571533z" fill-rule="evenodd"/><path fill="#000000" fill-opacity="0.0" d="m327.66644 928.1631l11.62204 -48.503967" fill-rule="evenodd"/><path stroke="#393f4d" stroke-width="2.0" stroke-linejoin="round" stroke-linecap="butt" d="m327.66644 928.1631l8.825867 -36.83429" fill-rule="evenodd"/><path fill="#393f4d" stroke="#393f4d" stroke-width="2.0" stroke-linecap="butt" d="m339.70483 892.0986l-1.0976257 -9.59613l-5.327423 8.05658z" fill-rule="evenodd"/><path fill="#000000" fill-opacity="0.0" d="m426.15808 931.2477l44.724426 18.897583" fill-rule="evenodd"/><path stroke="#393f4d" stroke-width="2.0" stroke-linejoin="round" stroke-linecap="butt" d="m426.15808 931.2476l33.670654 14.227051" fill-rule="evenodd"/><path fill="#393f4d" stroke="#393f4d" stroke-width="2.0" stroke-linecap="butt" d="m458.543 948.51764l9.64624 0.48962402l-7.0747375 -6.5755615z" fill-rule="evenodd"/><path fill="#000000" fill-opacity="0.0" d="m327.66644 975.6896l77.921265 56.188965" fill-rule="evenodd"/><path stroke="#393f4d" stroke-width="2.0" stroke-linejoin="round" stroke-linecap="butt" d="m327.66644 975.6896l68.1879 49.170288" fill-rule="evenodd"/><path fill="#393f4d" stroke="#393f4d" stroke-width="2.0" stroke-linecap="butt" d="m393.92218 1027.5393l9.293976 2.6291504l-5.4296265 -7.988098z" fill-rule="evenodd"/><path fill="#000000" fill-opacity="0.0" d="m363.06418 879.6595l39.338593 51.590515" fill-rule="evenodd"/><path stroke="#393f4d" stroke-width="2.0" stroke-linejoin="round" stroke-linecap="butt" d="m363.06418 879.6594l32.062378 42.048157" fill-rule="evenodd"/><path fill="#393f4d" stroke="#393f4d" stroke-width="2.0" stroke-linecap="butt" d="m392.49966 923.7107l8.130249 5.2142944l-2.8764343 -9.220398z" fill-rule="evenodd"/><path fill="#000000" fill-opacity="0.0" d="m426.15808 955.0109l54.17325 29.480286" fill-rule="evenodd"/><path stroke="#393f4d" stroke-width="2.0" stroke-linejoin="round" stroke-linecap="butt" d="m426.15808 955.0109l43.632874 23.744385" fill-rule="evenodd"/><path fill="#393f4d" stroke="#393f4d" stroke-width="2.0" stroke-linecap="butt" d="m468.2119 981.6569l9.551239 1.4367676l-6.393158 -7.2400513z" fill-rule="evenodd"/><path fill="#000000" fill-opacity="0.0" d="m220.23279 991.2768l59.905518 -15.590515" fill-rule="evenodd"/><path stroke="#393f4d" stroke-width="2.0" stroke-linejoin="round" stroke-linecap="butt" d="m220.23277 991.2768l48.292374 -12.568115" fill-rule="evenodd"/><path fill="#393f4d" stroke="#393f4d" stroke-width="2.0" stroke-linecap="butt" d="m269.35715 981.9056l7.951599 -5.48291l-9.615631 -0.91101074z" fill-rule="evenodd"/><path fill="#000000" fill-opacity="0.0" d="m245.83989 1065.0818c9.122925 -4.097168 44.57219 -11.404663 54.737534 -24.582764c10.165344 -13.1779785 5.212158 -45.404602 6.254608 -54.485535" fill-rule="evenodd"/><path stroke="#000000" stroke-width="2.0" stroke-linejoin="round" stroke-linecap="butt" stroke-dasharray="8.0,6.0" d="m245.83989 1065.0817c9.12294 -4.097046 44.57219 -11.404541 54.737534 -24.582642c5.082672 -6.5889893 6.385742 -17.940125 6.548401 -28.779236c0.040649414 -2.7097168 0.010070801 -5.387451 -0.050567627 -7.9507446c-0.030334473 -1.2816772 -0.06817627 -2.53479 -0.1083374 -3.7488403l-0.069885254 -2.006897" fill-rule="evenodd"/><path fill="#000000" stroke="#000000" stroke-width="2.0" stroke-linecap="butt" d="m310.20044 997.99536l-3.3525696 -9.0581665l-3.2542725 9.093994z" fill-rule="evenodd"/><path fill="#000000" fill-opacity="0.0" d="m540.78217 864.38354c5.3516846 6.081848 34.69159 27.153137 32.11023 36.490845c-2.5813599 9.3377075 -39.665344 16.279541 -47.59845 19.5354" fill-rule="evenodd"/><path stroke="#000000" stroke-width="2.0" stroke-linejoin="round" stroke-linecap="butt" stroke-dasharray="8.0,6.0" d="m540.78217 864.38354c5.3516846 6.081848 34.69159 27.153137 32.11023 36.490784c-1.2907104 4.6688843 -11.207031 8.73877 -21.792358 12.048401c-2.6463013 0.8274536 -5.3344727 1.6073608 -7.9400635 2.3372192c-1.3027954 0.36486816 -2.585022 0.7173462 -3.8309937 1.0568848l-2.5288696 0.685791" fill-rule="evenodd"/><path fill="#000000" stroke="#000000" stroke-width="2.0" stroke-linecap="butt" d="m535.8622 913.83514l-7.7647705 5.744507l9.640625 0.59051514z" fill-rule="evenodd"/><path fill="#d4d4d4" d="m251.54057 410.75363l-8.238953 167.73392l81.00316 14.084351l65.898865 -75.5437l-97.47598 -106.27457z" fill-rule="evenodd"/><path stroke="#000000" stroke-width="2.0" stroke-linejoin="round" stroke-linecap="butt" stroke-dasharray="16.0,6.0" d="m251.54057 410.75363l-8.238953 167.73392l81.00316 14.084351l65.898865 -75.5437l-97.47598 -106.27457z" fill-rule="evenodd"/><path fill="#d4d4d4" d="m428.66388 418.61966l39.098663 39.623383l50.829315 -37.291565l-49.52536 -31.464233z" fill-rule="evenodd"/><path stroke="#000000" stroke-width="2.0" stroke-linejoin="round" stroke-linecap="butt" stroke-dasharray="16.0,6.0" d="m428.66388 418.61966l39.098663 39.623383l50.829315 -37.291565l-49.52536 -31.464233z" fill-rule="evenodd"/><path fill="#d4d4d4" d="m560.2446 405.3337l-121.23697 98.10147l39.859497 48.339478l136.18509 14.216614z" fill-rule="evenodd"/><path stroke="#000000" stroke-width="2.0" stroke-linejoin="round" stroke-linecap="butt" stroke-dasharray="16.0,6.0" d="m560.2446 405.3337l-121.23697 98.10147l39.859497 48.339478l136.18509 14.216614z" fill-rule="evenodd"/><path fill="#000000" fill-opacity="0.0" d="m218.55405 414.80826l55.212585 16.094513" fill-rule="evenodd"/><path stroke="#393f4d" stroke-width="2.0" stroke-linejoin="round" stroke-linecap="butt" d="m218.55405 414.8083l43.69211 12.736237" fill-rule="evenodd"/><path fill="#393f4d" stroke="#393f4d" stroke-width="2.0" stroke-linecap="butt" d="m261.32166 430.716l9.638031 -0.6314697l-7.7890625 -5.7114563z" fill-rule="evenodd"/><path fill="#d4d4d4" d="m184.94774 414.80826l0 0c0 -9.280121 7.5230255 -16.803131 16.803162 -16.803131l0 0c4.4564667 0 8.730408 1.7703247 11.881622 4.921509c3.1511993 3.1512146 4.921524 7.425171 4.921524 11.881622l0 0c0 9.280151 -7.5230255 16.803162 -16.803146 16.803162l0 0c-9.280136 0 -16.803162 -7.5230103 -16.803162 -16.803162z" fill-rule="evenodd"/><path fill="#d4d4d4" d="m190.08223 510.8067l0 0c0 -9.280121 7.5230255 -16.803131 16.803146 -16.803131l0 0c4.4564667 0 8.730423 1.7703247 11.881622 4.921509c3.1511993 3.1512146 4.921524 7.425171 4.921524 11.881622l0 0c0 9.280151 -7.5230255 16.803162 -16.803146 16.803162l0 0c-9.280121 0 -16.803146 -7.5230103 -16.803146 -16.803162z" fill-rule="evenodd"/><path fill="#304e94" d="m268.83112 442.77148l0 0c0 -9.280151 7.5230103 -16.803162 16.803131 -16.803162l0 0c4.456482 0 8.730438 1.7703247 11.881622 4.9215393c3.1512146 3.151184 4.9215393 7.4251404 4.9215393 11.881622l0 0c0 9.280121 -7.523041 16.803131 -16.803162 16.803131l0 0c-9.280121 0 -16.803131 -7.5230103 -16.803131 -16.803131z" fill-rule="evenodd"/><path fill="#d4d4d4" d="m332.91364 375.42615l0 0c0 -9.280121 7.5230103 -16.803162 16.803131 -16.803162l0 0c4.456482 0 8.730438 1.7703247 11.881622 4.9215393c3.1512146 3.1512146 4.9215393 7.4251404 4.9215393 11.881622l0 0c0 9.280121 -7.523041 16.803131 -16.803162 16.803131l0 0c-9.280121 0 -16.803131 -7.5230103 -16.803131 -16.803131z" fill-rule="evenodd"/><path fill="#304e94" d="m254.61269 556.805l0 0c0 -9.280151 7.5230255 -16.803162 16.803146 -16.803162l0 0c4.456482 0 8.730438 1.7703247 11.881622 4.921509c3.1512146 3.151184 4.9215393 7.425171 4.9215393 11.881653l0 0c0 9.28009 -7.523041 16.8031 -16.803162 16.8031l0 0c-9.280121 0 -16.803146 -7.5230103 -16.803146 -16.8031z" fill-rule="evenodd"/><path fill="#0c8ccf" d="m459.56143 417.21982l0 0c0 -9.280121 7.523041 -16.803162 16.803162 -16.803162l0 0c4.456482 0 8.730408 1.7703247 11.881622 4.9215393c3.1512146 3.151184 4.9215393 7.4251404 4.9215393 11.881622l0 0c0 9.280121 -7.523041 16.803131 -16.803162 16.803131l0 0c-9.280121 0 -16.803162 -7.5230103 -16.803162 -16.803131z" fill-rule="evenodd"/><path fill="#304e94" d="m333.34903 514.37354l0 0c0 -9.280151 7.5230103 -16.803162 16.803131 -16.803162l0 0c4.456482 0 8.730438 1.7703247 11.881622 4.9215393c3.1512146 3.151184 4.9215393 7.4251404 4.9215393 11.881622l0 0c0 9.28009 -7.523041 16.803162 -16.803162 16.803162l0 0c-9.280121 0 -16.803131 -7.5230713 -16.803131 -16.803162z" fill-rule="evenodd"/><path fill="#d4d4d4" d="m399.2128 551.4045l0 0c0 -9.28009 7.523041 -16.803162 16.803162 -16.803162l0 0c4.456482 0 8.730408 1.7703247 11.881622 4.92157c3.151184 3.151184 4.921509 7.42511 4.921509 11.881592l0 0c0 9.280151 -7.5230103 16.803162 -16.803131 16.803162l0 0c-9.280121 0 -16.803162 -7.5230103 -16.803162 -16.803162z" fill-rule="evenodd"/><path fill="#d4d4d4" d="m396.00754 450.77756l0 0c0 -9.280121 7.5230103 -16.803131 16.803162 -16.803131l0 0c4.4564514 0 8.730408 1.7703247 11.881592 4.921509c3.1512146 3.1512146 4.9215393 7.425171 4.9215393 11.881622l0 0c0 9.280121 -7.5230103 16.803162 -16.803131 16.803162l0 0c-9.280151 0 -16.803162 -7.523041 -16.803162 -16.803162z" fill-rule="evenodd"/><path fill="#009c07" d="m469.0184 499.10342l0 0c0 -9.280121 7.523041 -16.803131 16.803162 -16.803131l0 0c4.456482 0 8.730408 1.7703247 11.881622 4.921509c3.1512146 3.1512146 4.9215393 7.425171 4.9215393 11.881622l0 0c0 9.280121 -7.523041 16.803131 -16.803162 16.803131l0 0c-9.280121 0 -16.803162 -7.5230103 -16.803162 -16.803131z" fill-rule="evenodd"/><path fill="#009c07" d="m529.4429 450.77756l0 0c0 -9.280121 7.5230103 -16.803162 16.803162 -16.803162l0 0c4.456482 0 8.730408 1.7703247 11.881592 4.9215393c3.151245 3.1512146 4.92157 7.4251404 4.92157 11.881622l0 0c0 9.280121 -7.5230713 16.803162 -16.803162 16.803162l0 0c-9.280151 0 -16.803162 -7.523041 -16.803162 -16.803162z" fill-rule="evenodd"/><path fill="#009c07" d="m551.97174 556.15106l0 0c-9.28009 0 -16.796082 -7.5230103 -16.787415 -16.8031l0 0c0.004211426 -4.456482 1.7785645 -8.730469 4.932678 -11.881653c3.1541748 -3.151184 7.4297485 -4.921509 11.88623 -4.921509l0 0c9.280151 0 16.796143 7.5230103 16.787415 16.803162l0 0c-0.008666992 9.28009 -7.5387573 16.8031 -16.818909 16.8031z" fill-rule="evenodd"/><path fill="#000000" fill-opacity="0.0" d="m288.219 556.805l50.04724 -30.551208" fill-rule="evenodd"/><path stroke="#393f4d" stroke-width="2.0" stroke-linejoin="round" stroke-linecap="butt" d="m288.219 556.80493l39.80484 -24.298706" fill-rule="evenodd"/><path fill="#393f4d" stroke="#393f4d" stroke-width="2.0" stroke-linecap="butt" d="m329.74506 535.32587l6.0256042 -7.548706l-9.468048 1.9094238z" fill-rule="evenodd"/><path fill="#000000" fill-opacity="0.0" d="m502.62473 499.10342l32.566925 40.251984" fill-rule="evenodd"/><path stroke="#393f4d" stroke-width="2.0" stroke-linejoin="round" stroke-linecap="butt" d="m502.62473 499.10342l25.019073 30.923004" fill-rule="evenodd"/><path fill="#393f4d" stroke="#393f4d" stroke-width="2.0" stroke-linecap="butt" d="m525.0756 532.10425l8.276978 4.9781494l-3.140625 -9.133789z" fill-rule="evenodd"/><path fill="#000000" fill-opacity="0.0" d="m432.8191 551.4045l41.13388 -40.409424" fill-rule="evenodd"/><path stroke="#393f4d" stroke-width="2.0" stroke-linejoin="round" stroke-linecap="butt" d="m432.8191 551.4045l32.573547 -31.999878" fill-rule="evenodd"/><path fill="#393f4d" stroke="#393f4d" stroke-width="2.0" stroke-linecap="butt" d="m467.7077 521.76117l4.159546 -8.717163l-8.789673 4.0040283z" fill-rule="evenodd"/><path fill="#000000" fill-opacity="0.0" d="m297.51587 430.88986l40.314972 -43.590576" fill-rule="evenodd"/><path stroke="#393f4d" stroke-width="2.0" stroke-linejoin="round" stroke-linecap="butt" d="m297.51587 430.88983l32.167145 -34.7807" fill-rule="evenodd"/><path fill="#393f4d" stroke="#393f4d" stroke-width="2.0" stroke-linecap="butt" d="m332.10825 398.3521l3.7373657 -8.906311l-8.58783 4.4203186z" fill-rule="evenodd"/><path fill="#000000" fill-opacity="0.0" d="m362.03378 526.2551l37.165375 25.13385" fill-rule="evenodd"/><path stroke="#393f4d" stroke-width="2.0" stroke-linejoin="round" stroke-linecap="butt" d="m362.03378 526.2551l27.225037 18.411499" fill-rule="evenodd"/><path fill="#393f4d" stroke="#393f4d" stroke-width="2.0" stroke-linecap="butt" d="m387.40823 547.4031l9.3689575 2.3480225l-5.6677856 -7.820923z" fill-rule="evenodd"/><path fill="#000000" fill-opacity="0.0" d="m497.7032 487.2218l31.748047 -36.44095" fill-rule="evenodd"/><path stroke="#393f4d" stroke-width="2.0" stroke-linejoin="round" stroke-linecap="butt" d="m497.70316 487.22183l23.865387 -27.393097" fill-rule="evenodd"/><path fill="#393f4d" stroke="#393f4d" stroke-width="2.0" stroke-linecap="butt" d="m524.0593 461.99875l3.4712524 -9.013367l-8.45282 4.67334z" fill-rule="evenodd"/><path fill="#000000" fill-opacity="0.0" d="m424.6923 438.89594l39.77954 -9.795258" fill-rule="evenodd"/><path stroke="#393f4d" stroke-width="2.0" stroke-linejoin="round" stroke-linecap="butt" d="m424.6923 438.89597l28.127594 -6.926117" fill-rule="evenodd"/><path fill="#393f4d" stroke="#393f4d" stroke-width="2.0" stroke-linecap="butt" d="m453.60974 435.1775l8.023071 -5.3777466l-9.602783 -1.0375366z" fill-rule="evenodd"/><path fill="#000000" fill-opacity="0.0" d="m297.51587 454.65308l40.75592 47.84253" fill-rule="evenodd"/><path stroke="#393f4d" stroke-width="2.0" stroke-linejoin="round" stroke-linecap="butt" d="m297.51587 454.6531l32.974182 38.707703" fill-rule="evenodd"/><path fill="#393f4d" stroke="#393f4d" stroke-width="2.0" stroke-linecap="butt" d="m327.97534 495.50302l8.400421 4.766876l-3.3710022 -9.051331z" fill-rule="evenodd"/><path fill="#000000" fill-opacity="0.0" d="m361.5984 387.30777l39.338593 51.590546" fill-rule="evenodd"/><path stroke="#393f4d" stroke-width="2.0" stroke-linejoin="round" stroke-linecap="butt" d="m361.5984 387.30777l32.062378 42.048187" fill-rule="evenodd"/><path fill="#393f4d" stroke="#393f4d" stroke-width="2.0" stroke-linecap="butt" d="m391.03384 431.359l8.13028 5.214325l-2.8764648 -9.220428z" fill-rule="evenodd"/><path fill="#000000" fill-opacity="0.0" d="m424.6923 462.65918l49.259857 24.566925" fill-rule="evenodd"/><path stroke="#393f4d" stroke-width="2.0" stroke-linejoin="round" stroke-linecap="butt" d="m424.6923 462.6592l38.52124 19.211365" fill-rule="evenodd"/><path fill="#393f4d" stroke="#393f4d" stroke-width="2.0" stroke-linecap="butt" d="m461.7392 484.82678l9.596466 1.0944519l-6.6477966 -7.006897z" fill-rule="evenodd"/><path fill="#000000" fill-opacity="0.0" d="m271.41583 540.00183l14.204742 -80.44095" fill-rule="evenodd"/><path stroke="#393f4d" stroke-width="2.0" stroke-linejoin="round" stroke-linecap="butt" d="m271.41583 540.00183l12.118011 -68.62381" fill-rule="evenodd"/><path fill="#393f4d" stroke="#393f4d" stroke-width="2.0" stroke-linecap="butt" d="m286.78696 471.95248l-1.6748352 -9.51236l-4.831421 8.363434z" fill-rule="evenodd"/><path fill="#000000" fill-opacity="0.0" d="m218.767 498.92508l54.992126 -44.283447" fill-rule="evenodd"/><path stroke="#393f4d" stroke-width="2.0" stroke-linejoin="round" stroke-linecap="butt" d="m218.767 498.9251l45.645782 -36.75714" fill-rule="evenodd"/><path fill="#393f4d" stroke="#393f4d" stroke-width="2.0" stroke-linecap="butt" d="m266.48468 464.74094l4.9971924 -8.265503l-9.141022 3.1195984z" fill-rule="evenodd"/><path fill="#000000" fill-opacity="0.0" d="m376.0 773.1654l0 40.59845" fill-rule="evenodd"/><path stroke="#000000" stroke-width="3.0" stroke-linejoin="round" stroke-linecap="butt" d="m376.0 773.16547l0 22.598389" fill-rule="evenodd"/><path fill="#000000" stroke="#000000" stroke-width="3.0" stroke-linecap="butt" d="m371.0448 795.76385l4.9552 13.614319l4.9552 -13.614319z" fill-rule="evenodd"/><path fill="#000000" fill-opacity="0.0" d="m376.0 295.08542l0 40.59842" fill-rule="evenodd"/><path stroke="#000000" stroke-width="3.0" stroke-linejoin="round" stroke-linecap="butt" d="m376.0 295.08542l0 22.59842" fill-rule="evenodd"/><path fill="#000000" stroke="#000000" stroke-width="3.0" stroke-linecap="butt" d="m371.0448 317.68384l4.9552 13.614288l4.9552 -13.614288z" fill-rule="evenodd"/><path fill="#000000" fill-opacity="0.0" d="m336.08072 651.5034l162.39368 0l0 41.41736l-162.39368 0z" fill-rule="evenodd"/><path fill="#393f4d" d="m352.08072 654.5383q2.015625 0 3.53125 1.15625q1.53125 1.140625 1.828125 3.140625l-1.265625 0q-0.375 -1.53125 -1.5 -2.375q-1.109375 -0.84375 -2.609375 -0.84375q-2.3125 0 -3.65625 1.640625q-1.34375 1.640625 -1.34375 4.21875q0 2.515625 1.328125 4.1875q1.328125 1.671875 3.671875 1.671875q1.734375 0 2.890625 -1.171875q1.171875 -1.171875 1.390625 -3.09375l1.265625 0q-0.28125 2.5 -1.765625 3.921875q-1.484375 1.421875 -3.765625 1.421875q-2.890625 0 -4.59375 -1.953125q-1.703125 -1.96875 -1.703125 -4.984375q0 -3.046875 1.71875 -4.984375q1.71875 -1.953125 4.578125 -1.953125zm8.448395 0.28125l0 13.3125l-1.171875 0l0 -13.3125l1.171875 0zm3.4212341 3.6875l0 6.265625q0 1.21875 0.5625 1.9375q0.578125 0.71875 2.0 0.71875q1.34375 0 2.125 -1.078125q0.78125 -1.09375 0.78125 -2.71875l0 -5.125l1.171875 0l0 9.625l-1.09375 0l0 -1.734375l-0.03125 0q-0.46875 0.953125 -1.34375 1.484375q-0.875 0.53125 -1.984375 0.53125q-1.734375 0 -2.546875 -0.921875q-0.8125 -0.921875 -0.8125 -2.65625l0 -6.328125l1.171875 0zm12.270447 -0.28125q1.578125 0 2.5 0.8125q0.9375 0.796875 1.03125 2.28125l-1.171875 0q-0.0625 -1.015625 -0.75 -1.5625q-0.6875 -0.546875 -1.78125 -0.546875q-1.015625 0 -1.640625 0.4375q-0.625 0.4375 -0.625 1.21875q0 0.625 0.546875 1.03125q0.5625 0.40625 1.453125 0.609375l2.015625 0.4375q0.984375 0.234375 1.640625 0.90625q0.65625 0.65625 0.65625 1.671875q0 1.34375 -1.109375 2.125q-1.109375 0.765625 -2.765625 0.765625q-1.796875 0 -2.8125 -0.859375q-1.0 -0.859375 -1.140625 -2.53125l1.1875 0q0.0625 1.125 0.828125 1.765625q0.765625 0.640625 2.0 0.640625q1.09375 0 1.859375 -0.484375q0.765625 -0.5 0.765625 -1.359375q0 -0.640625 -0.5 -1.0625q-0.484375 -0.4375 -1.640625 -0.6875l-1.484375 -0.328125q-1.265625 -0.28125 -1.984375 -0.890625q-0.703125 -0.609375 -0.703125 -1.6875q0 -1.25 1.015625 -1.96875q1.03125 -0.734375 2.609375 -0.734375zm7.425995 -2.609375l0 2.890625l1.96875 0l0 0.984375l-1.96875 0l0 6.578125q0 0.734375 0.28125 0.96875q0.28125 0.21875 0.71875 0.21875q0.171875 0 0.421875 -0.015625q0.265625 -0.015625 0.546875 -0.03125l0 1.0q-0.265625 0.015625 -0.53125 0.015625q-0.25 0.015625 -0.515625 0.015625q-1.171875 0 -1.640625 -0.4375q-0.453125 -0.453125 -0.453125 -1.609375l0 -6.703125l-1.6875 0l0 -0.984375l1.6875 0l0 -2.890625l1.171875 0zm7.256012 2.609375q1.953125 0 3.09375 1.421875q1.140625 1.421875 1.140625 3.796875l0 0.1875l-7.40625 0q0.03125 1.671875 0.890625 2.734375q0.875 1.0625 2.28125 1.0625q1.171875 0 1.921875 -0.609375q0.765625 -0.609375 1.09375 -1.859375l1.1875 0q-0.421875 1.734375 -1.453125 2.59375q-1.015625 0.859375 -2.75 0.859375q-2.046875 0 -3.203125 -1.359375q-1.140625 -1.375 -1.140625 -3.734375q0 -2.234375 1.15625 -3.65625q1.15625 -1.4375 3.1875 -1.4375zm3.0625 4.421875q-0.046875 -1.4375 -0.90625 -2.4375q-0.84375 -1.0 -2.171875 -1.0q-1.25 0 -2.109375 0.9375q-0.84375 0.921875 -1.046875 2.5l6.234375 0zm7.2146606 -4.265625l0.296875 0l0 1.171875l-0.140625 0q-1.546875 0 -2.5 1.0q-0.9375 0.984375 -0.9375 2.484375l0 5.09375l-1.171875 0l0 -9.625l1.078125 0l0 2.25l0.03125 0q0.4375 -1.125 1.328125 -1.75q0.890625 -0.625 2.015625 -0.625zm10.668304 -0.15625q2.046875 0 3.296875 1.4375q1.25 1.421875 1.25 3.65625q0 1.34375 -0.515625 2.515625q-0.515625 1.171875 -1.5625 1.875q-1.046875 0.703125 -2.46875 0.703125q-2.046875 0 -3.296875 -1.4375q-1.25 -1.4375 -1.25 -3.65625q0 -2.234375 1.25 -3.65625q1.25 -1.4375 3.296875 -1.4375zm-3.375 5.09375q0 1.703125 0.921875 2.90625q0.921875 1.203125 2.453125 1.203125q1.53125 0 2.453125 -1.203125q0.921875 -1.203125 0.921875 -2.90625q0 -1.6875 -0.921875 -2.890625q-0.921875 -1.21875 -2.46875 -1.21875q-1.5 0 -2.4375 1.203125q-0.921875 1.1875 -0.921875 2.90625zm14.141327 -4.9375l0.296875 0l0 1.171875l-0.140625 0q-1.546875 0 -2.5 1.0q-0.9375 0.984375 -0.9375 2.484375l0 5.09375l-1.171875 0l0 -9.625l1.078125 0l0 2.25l0.03125 0q0.4375 -1.125 1.328125 -1.75q0.890625 -0.625 2.015625 -0.625zm7.9651794 -3.5625l0 8.328125q0 2.046875 0.9375 3.125q0.953125 1.0625 2.953125 1.0625q2.015625 0 2.96875 -1.0625q0.953125 -1.0625 0.953125 -3.125l0 -8.328125l1.265625 0l0 8.609375q0 2.203125 -1.328125 3.59375q-1.3125 1.390625 -3.859375 1.390625q-1.5625 0 -2.734375 -0.578125q-1.15625 -0.59375 -1.796875 -1.765625q-0.625 -1.171875 -0.625 -2.640625l0 -8.609375l1.265625 0zm15.702515 3.40625q1.84375 0 2.671875 0.90625q0.84375 0.90625 0.84375 2.71875l0 6.28125l-1.171875 0l0 -6.078125q0 -1.40625 -0.609375 -2.125q-0.609375 -0.71875 -1.84375 -0.71875q-0.953125 0 -1.65625 0.46875q-0.703125 0.46875 -1.03125 1.265625q-0.328125 0.78125 -0.328125 1.5625l0 5.625l-1.171875 0l0 -9.625l1.171875 0l0 1.65625l0.03125 0q0.34375 -0.859375 1.1875 -1.390625q0.84375 -0.546875 1.90625 -0.546875zm6.926697 -3.40625l0 1.875l-1.171875 0l0 -1.875l1.171875 0zm0 3.6875l0 9.625l-1.171875 0l0 -9.625l1.171875 0zm4.124359 -2.890625l0 2.890625l1.96875 0l0 0.984375l-1.96875 0l0 6.578125q0 0.734375 0.28125 0.96875q0.28125 0.21875 0.71875 0.21875q0.171875 0 0.421875 -0.015625q0.265625 -0.015625 0.546875 -0.03125l0 1.0q-0.265625 0.015625 -0.53125 0.015625q-0.25 0.015625 -0.515625 0.015625q-1.171875 0 -1.640625 -0.4375q-0.453125 -0.453125 -0.453125 -1.609375l0 -6.703125l-1.6875 0l0 -0.984375l1.6875 0l0 -2.890625l1.171875 0zm12.906799 2.609375q2.046875 0 3.296875 1.4375q1.25 1.421875 1.25 3.65625q0 1.34375 -0.515625 2.515625q-0.515625 1.171875 -1.5625 1.875q-1.046875 0.703125 -2.46875 0.703125q-2.046875 0 -3.296875 -1.4375q-1.25 -1.4375 -1.25 -3.65625q0 -2.234375 1.25 -3.65625q1.25 -1.4375 3.296875 -1.4375zm-3.375 5.09375q0 1.703125 0.921875 2.90625q0.921875 1.203125 2.453125 1.203125q1.53125 0 2.453125 -1.203125q0.921875 -1.203125 0.921875 -2.90625q0 -1.6875 -0.921875 -2.890625q-0.921875 -1.21875 -2.46875 -1.21875q-1.5 0 -2.4375 1.203125q-0.921875 1.1875 -0.921875 2.90625zm12.656952 -8.5q0.71875 0.015625 0.984375 0.0625l0 1.015625q-0.21875 -0.046875 -0.46875 -0.0625q-0.25 -0.03125 -0.390625 -0.03125q-0.6875 0 -0.984375 0.34375q-0.296875 0.328125 -0.296875 1.078125l0 1.28125l1.890625 0l0 0.984375l-1.890625 0l0 8.640625l-1.171875 0l0 -8.640625l-1.65625 0l0 -0.984375l1.65625 0l0 -0.921875q0 -1.53125 0.578125 -2.140625q0.578125 -0.625 1.75 -0.625z" fill-rule="nonzero"/><path fill="#393f4d" d="m346.4401 676.8196l3.015625 11.65625l0.046875 0l3.25 -11.65625l1.578125 0l3.265625 11.65625l0.03125 0l3.046875 -11.65625l1.265625 0l-3.671875 13.3125l-1.34375 0l-3.375 -11.921875l-0.03125 0l-3.359375 11.921875l-1.375 0l-3.703125 -13.3125l1.359375 0zm20.306946 3.40625q2.046875 0 3.296875 1.4375q1.25 1.421875 1.25 3.65625q0 1.34375 -0.515625 2.515625q-0.515625 1.171875 -1.5625 1.875q-1.046875 0.703125 -2.46875 0.703125q-2.046875 0 -3.296875 -1.4375q-1.25 -1.4375 -1.25 -3.65625q0 -2.234375 1.25 -3.65625q1.25 -1.4375 3.296875 -1.4375zm-3.375 5.09375q0 1.703125 0.921875 2.90625q0.921875 1.203125 2.453125 1.203125q1.53125 0 2.453125 -1.203125q0.921875 -1.203125 0.921875 -2.90625q0 -1.6875 -0.921875 -2.890625q-0.921875 -1.21875 -2.46875 -1.21875q-1.5 0 -2.4375 1.203125q-0.921875 1.1875 -0.921875 2.90625zm14.141357 -4.9375l0.296875 0l0 1.171875l-0.140625 0q-1.546875 0 -2.5 1.0q-0.9375 0.984375 -0.9375 2.484375l0 5.09375l-1.171875 0l0 -9.625l1.078125 0l0 2.25l0.03125 0q0.4375 -1.125 1.328125 -1.75q0.890625 -0.625 2.015625 -0.625zm2.5943604 -3.5625l0 8.34375l5.34375 -4.65625l1.5625 0l-4.109375 3.5625l4.375 6.0625l-1.46875 0l-3.796875 -5.234375l-1.90625 1.578125l0 3.65625l-1.171875 0l0 -13.3125l1.171875 0zm16.30832 0q0.71875 0.015625 0.984375 0.0625l0 1.015625q-0.21875 -0.046875 -0.46875 -0.0625q-0.25 -0.03125 -0.390625 -0.03125q-0.6875 0 -0.984375 0.34375q-0.296875 0.328125 -0.296875 1.078125l0 1.28125l1.890625 0l0 0.984375l-1.890625 0l0 8.640625l-1.171875 0l0 -8.640625l-1.65625 0l0 -0.984375l1.65625 0l0 -0.921875q0 -1.53125 0.578125 -2.140625q0.578125 -0.625 1.75 -0.625zm5.9217834 3.40625q2.046875 0 3.296875 1.4375q1.25 1.421875 1.25 3.65625q0 1.34375 -0.515625 2.515625q-0.515625 1.171875 -1.5625 1.875q-1.046875 0.703125 -2.46875 0.703125q-2.046875 0 -3.296875 -1.4375q-1.25 -1.4375 -1.25 -3.65625q0 -2.234375 1.25 -3.65625q1.25 -1.4375 3.296875 -1.4375zm-3.375 5.09375q0 1.703125 0.921875 2.90625q0.921875 1.203125 2.453125 1.203125q1.53125 0 2.453125 -1.203125q0.921875 -1.203125 0.921875 -2.90625q0 -1.6875 -0.921875 -2.890625q-0.921875 -1.21875 -2.46875 -1.21875q-1.5 0 -2.4375 1.203125q-0.921875 1.1875 -0.921875 2.90625zm14.141327 -4.9375l0.296875 0l0 1.171875l-0.140625 0q-1.546875 0 -2.5 1.0q-0.9375 0.984375 -0.9375 2.484375l0 5.09375l-1.171875 0l0 -9.625l1.078125 0l0 2.25l0.03125 0q0.4375 -1.125 1.328125 -1.75q0.890625 -0.625 2.015625 -0.625zm10.887054 -0.15625q1.84375 0 2.671875 0.90625q0.84375 0.90625 0.84375 2.71875l0 6.28125l-1.171875 0l0 -6.078125q0 -1.40625 -0.609375 -2.125q-0.609375 -0.71875 -1.84375 -0.71875q-0.953125 0 -1.65625 0.46875q-0.703125 0.46875 -1.03125 1.265625q-0.328125 0.78125 -0.328125 1.5625l0 5.625l-1.171875 0l0 -9.625l1.171875 0l0 1.65625l0.03125 0q0.34375 -0.859375 1.1875 -1.390625q0.84375 -0.546875 1.90625 -0.546875zm11.614197 -3.6875q2.140625 0 3.640625 1.140625q1.515625 1.125 1.90625 3.265625l-1.265625 0q-0.15625 -1.3125 -1.375 -2.3125q-1.21875 -1.015625 -2.90625 -1.015625q-2.328125 0 -3.671875 1.640625q-1.34375 1.640625 -1.34375 4.21875q0 2.53125 1.328125 4.203125q1.328125 1.65625 3.6875 1.65625q2.046875 0 3.328125 -1.28125q1.28125 -1.296875 1.28125 -3.578125l0 -0.03125l-4.546875 0l0 -1.078125l5.65625 0l0 6.765625l-0.90625 0l-0.171875 -2.421875l-0.03125 0q-0.640625 1.328125 -1.84375 2.015625q-1.1875 0.6875 -2.765625 0.6875q-2.875 0 -4.59375 -1.953125q-1.703125 -1.953125 -1.703125 -4.984375q0 -3.046875 1.703125 -4.984375q1.71875 -1.953125 4.59375 -1.953125zm12.406342 3.84375l0.296875 0l0 1.171875l-0.140625 0q-1.546875 0 -2.5 1.0q-0.9375 0.984375 -0.9375 2.484375l0 5.09375l-1.171875 0l0 -9.625l1.078125 0l0 2.25l0.03125 0q0.4375 -1.125 1.328125 -1.75q0.890625 -0.625 2.015625 -0.625zm4.772766 -0.15625q1.8125 0 2.671875 0.796875q0.859375 0.78125 0.859375 2.21875l0 5.234375q0 0.296875 0.15625 0.484375q0.171875 0.171875 0.53125 0.171875q0.109375 0 0.1875 0q0.09375 -0.015625 0.1875 -0.0625l0 0.984375q-0.21875 0.046875 -0.390625 0.0625q-0.171875 0.015625 -0.359375 0.015625q-0.765625 0 -1.078125 -0.359375q-0.3125 -0.375 -0.3125 -1.21875l0 -0.09375l-0.046875 0q-0.71875 1.09375 -1.515625 1.53125q-0.78125 0.421875 -1.984375 0.421875q-1.453125 0 -2.34375 -0.734375q-0.890625 -0.734375 -0.890625 -2.09375q0 -1.390625 0.96875 -2.09375q0.984375 -0.703125 4.34375 -1.0q0.765625 -0.078125 1.0625 -0.359375q0.3125 -0.28125 0.3125 -0.9375q0 -0.984375 -0.59375 -1.484375q-0.59375 -0.5 -1.921875 -0.5q-1.21875 0 -1.890625 0.578125q-0.65625 0.578125 -0.6875 1.671875l-1.171875 0q0.078125 -1.59375 1.078125 -2.40625q1.015625 -0.828125 2.828125 -0.828125zm2.3125 4.640625q-0.171875 0.328125 -1.109375 0.453125q-0.9375 0.125 -2.0625 0.328125q-1.125 0.1875 -1.703125 0.640625q-0.578125 0.453125 -0.578125 1.234375q0 0.84375 0.625 1.375q0.640625 0.53125 1.515625 0.53125q1.4375 0 2.390625 -0.859375q0.96875 -0.859375 0.96875 -2.125l0 -1.578125l-0.046875 0zm8.120911 -4.640625q2.03125 0 3.171875 1.421875q1.15625 1.40625 1.15625 3.671875q0 2.25 -1.15625 3.671875q-1.15625 1.421875 -3.15625 1.421875q-1.15625 0 -2.078125 -0.5625q-0.921875 -0.5625 -1.28125 -1.546875l-0.03125 0l0 5.390625l-1.171875 0l0 -13.1875l1.078125 0l0 1.828125l0.03125 0q0.4375 -1.015625 1.359375 -1.5625q0.921875 -0.546875 2.078125 -0.546875zm-3.375 5.09375q0 1.828125 0.875 2.96875q0.875 1.140625 2.5 1.140625q1.484375 0 2.3125 -1.171875q0.84375 -1.171875 0.84375 -2.9375q0 -1.765625 -0.84375 -2.9375q-0.828125 -1.171875 -2.34375 -1.171875q-1.625 0 -2.484375 1.03125q-0.859375 1.03125 -0.859375 3.078125zm10.697144 -8.5l0 5.34375l0.03125 0q0.34375 -0.859375 1.1875 -1.390625q0.84375 -0.546875 1.90625 -0.546875q1.84375 0 2.671875 0.90625q0.84375 0.90625 0.84375 2.71875l0 6.28125l-1.171875 0l0 -6.078125q0 -1.40625 -0.609375 -2.125q-0.609375 -0.71875 -1.84375 -0.71875q-0.953125 0 -1.65625 0.46875q-0.703125 0.46875 -1.03125 1.265625q-0.328125 0.78125 -0.328125 1.5625l0 5.625l-1.171875 0l0 -13.3125l1.171875 0z" fill-rule="nonzero"/><path fill="#d4d4d4" d="m288.03403 699.9422l-24.02417 -33.759216l30.028809 -21.700989l39.039276 24.113525z" fill-rule="evenodd"/><path stroke="#000000" stroke-width="2.0" stroke-linejoin="round" stroke-linecap="butt" stroke-dasharray="16.0,6.0" d="m288.03403 699.9422l-24.02417 -33.759216l30.028809 -21.700989l39.039276 24.113525z" fill-rule="evenodd"/></g></svg>