<?xml version="1.0" encoding="UTF-8" standalone="no"?>
<!DOCTYPE svg PUBLIC "-//W3C//DTD SVG 1.1//EN"
 "http://www.w3.org/Graphics/SVG/1.1/DTD/svg11.dtd">
<!-- Generated by graphviz version 2.38.0 (20140413.2041)
 -->
<!-- Title: %3 Pages: 1 -->
<svg width="726pt" height="1411pt"
 viewBox="0.00 0.00 725.57 1411.00" xmlns="http://www.w3.org/2000/svg" xmlns:xlink="http://www.w3.org/1999/xlink">
<g id="graph0" class="graph" transform="scale(1 1) rotate(0) translate(0 1411)">
<title>%3</title>
<polygon fill="white" stroke="none" points="0,-0 0,-1411 725.573,-1411 725.573,-0 0,-0"/>
<!-- InitTensorOp -->
<g id="node1" class="node"><title>InitTensorOp</title>
<ellipse fill="#abd3d2" stroke="white" cx="606.438" cy="-1118" rx="57.2708" ry="18"/>
<text text-anchor="middle" x="606.438" y="-1113.8" font-family="Times,serif" font-size="14.00">InitTensorOp</text>
</g>
<!-- Op -->
<g id="node2" class="node"><title>Op</title>
<ellipse fill="#abd3d2" stroke="white" cx="698.573" cy="-968" rx="27" ry="18"/>
<text text-anchor="middle" x="698.573" y="-963.8" font-family="Times,serif" font-size="14.00">Op</text>
</g>
<!-- InitTensorOp&#45;&gt;Op -->
<g id="edge1" class="edge"><title>InitTensorOp&#45;&gt;Op</title>
<path fill="none" stroke="#999999" d="M647.589,-1105.5C653.578,-1102.21 659.199,-1098.1 663.573,-1093 686.833,-1065.87 694.317,-1024.26 696.648,-996.595"/>
<polygon fill="#999999" stroke="#999999" points="700.156,-996.594 697.329,-986.383 693.172,-996.128 700.156,-996.594"/>
</g>
<!-- AssignOp -->
<g id="node3" class="node"><title>AssignOp</title>
<ellipse fill="#abd3d2" stroke="white" cx="606.438" cy="-1068" rx="45.47" ry="18"/>
<text text-anchor="middle" x="606.438" y="-1063.8" font-family="Times,serif" font-size="14.00">AssignOp</text>
</g>
<!-- AssignOp&#45;&gt;Op -->
<g id="edge2" class="edge"><title>AssignOp&#45;&gt;Op</title>
<path fill="none" stroke="#999999" d="M642.553,-1057.05C650.152,-1053.48 657.67,-1048.86 663.573,-1043 676.636,-1030.02 685.16,-1011.12 690.407,-995.541"/>
<polygon fill="#999999" stroke="#999999" points="693.785,-996.465 693.396,-985.877 687.097,-994.396 693.785,-996.465"/>
</g>
<!-- doall -->
<g id="node4" class="node"><title>doall</title>
<ellipse fill="#abd3d2" stroke="white" cx="606.438" cy="-1018" rx="27.5804" ry="18"/>
<text text-anchor="middle" x="606.438" y="-1013.8" font-family="Times,serif" font-size="14.00">doall</text>
</g>
<!-- doall&#45;&gt;Op -->
<g id="edge3" class="edge"><title>doall&#45;&gt;Op</title>
<path fill="none" stroke="#999999" d="M630.66,-1008.98C640.992,-1004.64 653.151,-999.058 663.573,-993 666.424,-991.343 669.323,-989.496 672.165,-987.578"/>
<polygon fill="#999999" stroke="#999999" points="674.286,-990.364 680.417,-981.723 670.236,-984.655 674.286,-990.364"/>
</g>
<!-- Fill -->
<g id="node5" class="node"><title>Fill</title>
<ellipse fill="#abd3d2" stroke="white" cx="606.438" cy="-968" rx="27" ry="18"/>
<text text-anchor="middle" x="606.438" y="-963.8" font-family="Times,serif" font-size="14.00">Fill</text>
</g>
<!-- Fill&#45;&gt;Op -->
<g id="edge4" class="edge"><title>Fill&#45;&gt;Op</title>
<path fill="none" stroke="#999999" d="M633.509,-968C642.197,-968 652.039,-968 661.355,-968"/>
<polygon fill="#999999" stroke="#999999" points="661.561,-971.5 671.561,-968 661.561,-964.5 661.561,-971.5"/>
</g>
<!-- TensorOp -->
<g id="node6" class="node"><title>TensorOp</title>
<ellipse fill="#abd3d2" stroke="white" cx="606.438" cy="-918" rx="44.7096" ry="18"/>
<text text-anchor="middle" x="606.438" y="-913.8" font-family="Times,serif" font-size="14.00">TensorOp</text>
</g>
<!-- TensorOp&#45;&gt;Op -->
<g id="edge5" class="edge"><title>TensorOp&#45;&gt;Op</title>
<path fill="none" stroke="#999999" d="M638.916,-930.593C647.118,-934.257 655.825,-938.497 663.573,-943 666.424,-944.657 669.323,-946.504 672.165,-948.422"/>
<polygon fill="#999999" stroke="#999999" points="670.236,-951.345 680.417,-954.277 674.286,-945.636 670.236,-951.345"/>
</g>
<!-- ReshapeOp -->
<g id="node7" class="node"><title>ReshapeOp</title>
<ellipse fill="#abd3d2" stroke="white" cx="457.149" cy="-1168" rx="50.7483" ry="18"/>
<text text-anchor="middle" x="457.149" y="-1163.8" font-family="Times,serif" font-size="14.00">ReshapeOp</text>
</g>
<!-- ReshapeOp&#45;&gt;TensorOp -->
<g id="edge6" class="edge"><title>ReshapeOp&#45;&gt;TensorOp</title>
<path fill="none" stroke="#999999" d="M494.426,-1155.56C511.719,-1147.64 530.866,-1135.51 541.303,-1118 561.236,-1084.56 527.362,-975.157 549.303,-943 552.052,-938.971 555.609,-935.584 559.599,-932.737"/>
<polygon fill="#999999" stroke="#999999" points="561.438,-935.717 568.274,-927.623 557.882,-929.687 561.438,-935.717"/>
</g>
<!-- Transpose -->
<g id="node8" class="node"><title>Transpose</title>
<ellipse fill="#abd3d2" stroke="white" cx="254.549" cy="-1393" rx="46.2918" ry="18"/>
<text text-anchor="middle" x="254.549" y="-1388.8" font-family="Times,serif" font-size="14.00">Transpose</text>
</g>
<!-- Transpose&#45;&gt;ReshapeOp -->
<g id="edge7" class="edge"><title>Transpose&#45;&gt;ReshapeOp</title>
<path fill="none" stroke="#999999" d="M300.588,-1391.77C322.104,-1389.09 347.017,-1382.65 364.996,-1368 419.373,-1323.68 442.659,-1239.87 451.466,-1196.15"/>
<polygon fill="#999999" stroke="#999999" points="454.929,-1196.67 453.359,-1186.19 448.052,-1195.37 454.929,-1196.67"/>
</g>
<!-- AxesCastOp -->
<g id="node9" class="node"><title>AxesCastOp</title>
<ellipse fill="#abd3d2" stroke="white" cx="254.549" cy="-1343" rx="54.6248" ry="18"/>
<text text-anchor="middle" x="254.549" y="-1338.8" font-family="Times,serif" font-size="14.00">AxesCastOp</text>
</g>
<!-- AxesCastOp&#45;&gt;ReshapeOp -->
<g id="edge8" class="edge"><title>AxesCastOp&#45;&gt;ReshapeOp</title>
<path fill="none" stroke="#999999" d="M308.372,-1339.51C327.611,-1336.14 348.632,-1329.8 364.996,-1318 407.558,-1287.31 434.103,-1230.05 446.922,-1195.84"/>
<polygon fill="#999999" stroke="#999999" points="450.364,-1196.61 450.462,-1186.02 443.778,-1194.24 450.364,-1196.61"/>
</g>
<!-- ExpandDims -->
<g id="node10" class="node"><title>ExpandDims</title>
<ellipse fill="#abd3d2" stroke="white" cx="254.549" cy="-1293" rx="56.07" ry="18"/>
<text text-anchor="middle" x="254.549" y="-1288.8" font-family="Times,serif" font-size="14.00">ExpandDims</text>
</g>
<!-- ExpandDims&#45;&gt;ReshapeOp -->
<g id="edge9" class="edge"><title>ExpandDims&#45;&gt;ReshapeOp</title>
<path fill="none" stroke="#999999" d="M308.352,-1287.57C327.165,-1283.96 347.908,-1277.97 364.996,-1268 396.303,-1249.74 422.983,-1217.16 439.242,-1194.16"/>
<polygon fill="#999999" stroke="#999999" points="442.165,-1196.09 444.951,-1185.87 436.399,-1192.12 442.165,-1196.09"/>
</g>
<!-- ResultHandle -->
<g id="node11" class="node"><title>ResultHandle</title>
<ellipse fill="#abd3d2" stroke="white" cx="254.549" cy="-1243" rx="58.491" ry="18"/>
<text text-anchor="middle" x="254.549" y="-1238.8" font-family="Times,serif" font-size="14.00">ResultHandle</text>
</g>
<!-- ResultHandle&#45;&gt;ReshapeOp -->
<g id="edge10" class="edge"><title>ResultHandle&#45;&gt;ReshapeOp</title>
<path fill="none" stroke="#999999" d="M305.992,-1234.53C324.847,-1230.57 346.23,-1225.13 364.996,-1218 385.069,-1210.37 406.171,-1199.04 423.011,-1189.09"/>
<polygon fill="#999999" stroke="#999999" points="425.136,-1191.89 431.894,-1183.73 421.523,-1185.9 425.136,-1191.89"/>
</g>
<!-- BroadcastOp -->
<g id="node12" class="node"><title>BroadcastOp</title>
<ellipse fill="#abd3d2" stroke="white" cx="254.549" cy="-1193" rx="56.0528" ry="18"/>
<text text-anchor="middle" x="254.549" y="-1188.8" font-family="Times,serif" font-size="14.00">BroadcastOp</text>
</g>
<!-- BroadcastOp&#45;&gt;ReshapeOp -->
<g id="edge11" class="edge"><title>BroadcastOp&#45;&gt;ReshapeOp</title>
<path fill="none" stroke="#999999" d="M307.209,-1186.56C335.246,-1183.07 369.975,-1178.74 398.843,-1175.14"/>
<polygon fill="#999999" stroke="#999999" points="399.298,-1178.61 408.789,-1173.9 398.432,-1171.67 399.298,-1178.61"/>
</g>
<!-- ReorderAxes -->
<g id="node13" class="node"><title>ReorderAxes</title>
<ellipse fill="#abd3d2" stroke="white" cx="254.549" cy="-1143" rx="56.5287" ry="18"/>
<text text-anchor="middle" x="254.549" y="-1138.8" font-family="Times,serif" font-size="14.00">ReorderAxes</text>
</g>
<!-- ReorderAxes&#45;&gt;ReshapeOp -->
<g id="edge12" class="edge"><title>ReorderAxes&#45;&gt;ReshapeOp</title>
<path fill="none" stroke="#999999" d="M307.731,-1149.5C335.646,-1152.98 370.079,-1157.27 398.749,-1160.85"/>
<polygon fill="#999999" stroke="#999999" points="398.672,-1164.36 409.028,-1162.13 399.538,-1157.42 398.672,-1164.36"/>
</g>
<!-- Slice -->
<g id="node14" class="node"><title>Slice</title>
<ellipse fill="#abd3d2" stroke="white" cx="254.549" cy="-1093" rx="27.5804" ry="18"/>
<text text-anchor="middle" x="254.549" y="-1088.8" font-family="Times,serif" font-size="14.00">Slice</text>
</g>
<!-- Slice&#45;&gt;ReshapeOp -->
<g id="edge13" class="edge"><title>Slice&#45;&gt;ReshapeOp</title>
<path fill="none" stroke="#999999" d="M281.797,-1096.89C304.35,-1100.73 337.484,-1107.55 364.996,-1118 385.069,-1125.63 406.171,-1136.96 423.011,-1146.91"/>
<polygon fill="#999999" stroke="#999999" points="421.523,-1150.1 431.894,-1152.27 425.136,-1144.11 421.523,-1150.1"/>
</g>
<!-- Flatten -->
<g id="node15" class="node"><title>Flatten</title>
<ellipse fill="#abd3d2" stroke="white" cx="254.549" cy="-1043" rx="34.8371" ry="18"/>
<text text-anchor="middle" x="254.549" y="-1038.8" font-family="Times,serif" font-size="14.00">Flatten</text>
</g>
<!-- Flatten&#45;&gt;ReshapeOp -->
<g id="edge14" class="edge"><title>Flatten&#45;&gt;ReshapeOp</title>
<path fill="none" stroke="#999999" d="M289.307,-1041.41C313.806,-1042.2 345.881,-1047.58 364.996,-1068 380.376,-1084.43 360.399,-1099.35 372.996,-1118 382.521,-1132.1 397.48,-1142.86 412.099,-1150.72"/>
<polygon fill="#999999" stroke="#999999" points="410.599,-1153.88 421.106,-1155.24 413.739,-1147.63 410.599,-1153.88"/>
</g>
<!-- Unflatten -->
<g id="node16" class="node"><title>Unflatten</title>
<ellipse fill="#abd3d2" stroke="white" cx="254.549" cy="-993" rx="43.0387" ry="18"/>
<text text-anchor="middle" x="254.549" y="-988.8" font-family="Times,serif" font-size="14.00">Unflatten</text>
</g>
<!-- Unflatten&#45;&gt;ReshapeOp -->
<g id="edge15" class="edge"><title>Unflatten&#45;&gt;ReshapeOp</title>
<path fill="none" stroke="#999999" d="M297.488,-991.312C320.887,-992.783 348.549,-998.982 364.996,-1018 379.578,-1034.86 361.256,-1099.05 372.996,-1118 381.885,-1132.35 396.555,-1143.13 411.119,-1150.93"/>
<polygon fill="#999999" stroke="#999999" points="409.608,-1154.09 420.12,-1155.41 412.727,-1147.82 409.608,-1154.09"/>
</g>
<!-- AssignableTensorOp -->
<g id="node17" class="node"><title>AssignableTensorOp</title>
<ellipse fill="#abd3d2" stroke="white" cx="457.149" cy="-1093" rx="84.3074" ry="18"/>
<text text-anchor="middle" x="457.149" y="-1088.8" font-family="Times,serif" font-size="14.00">AssignableTensorOp</text>
</g>
<!-- AssignableTensorOp&#45;&gt;TensorOp -->
<g id="edge16" class="edge"><title>AssignableTensorOp&#45;&gt;TensorOp</title>
<path fill="none" stroke="#999999" d="M523.918,-1081.95C530.585,-1078.45 536.614,-1073.9 541.303,-1068 558.617,-1046.21 533.406,-965.849 549.303,-943 552.088,-938.996 555.67,-935.625 559.673,-932.788"/>
<polygon fill="#999999" stroke="#999999" points="561.514,-935.767 568.365,-927.685 557.969,-929.73 561.514,-935.767"/>
</g>
<!-- Stack -->
<g id="node18" class="node"><title>Stack</title>
<ellipse fill="#abd3d2" stroke="white" cx="457.149" cy="-1043" rx="29.5104" ry="18"/>
<text text-anchor="middle" x="457.149" y="-1038.8" font-family="Times,serif" font-size="14.00">Stack</text>
</g>
<!-- Stack&#45;&gt;TensorOp -->
<g id="edge17" class="edge"><title>Stack&#45;&gt;TensorOp</title>
<path fill="none" stroke="#999999" d="M487.205,-1042.07C505.563,-1039.85 528.213,-1033.78 541.303,-1018 562.706,-992.199 529.579,-970.106 549.303,-943 552.173,-939.056 555.808,-935.724 559.843,-932.91"/>
<polygon fill="#999999" stroke="#999999" points="561.688,-935.886 568.572,-927.833 558.169,-929.835 561.688,-935.886"/>
</g>
<!-- Unslice -->
<g id="node19" class="node"><title>Unslice</title>
<ellipse fill="#abd3d2" stroke="white" cx="457.149" cy="-993" rx="37.2421" ry="18"/>
<text text-anchor="middle" x="457.149" y="-988.8" font-family="Times,serif" font-size="14.00">Unslice</text>
</g>
<!-- Unslice&#45;&gt;TensorOp -->
<g id="edge18" class="edge"><title>Unslice&#45;&gt;TensorOp</title>
<path fill="none" stroke="#999999" d="M493.945,-989.825C510.272,-986.645 528.722,-980.361 541.303,-968 549.625,-959.824 541.517,-951.687 549.303,-943 552.601,-939.321 556.542,-936.154 560.787,-933.436"/>
<polygon fill="#999999" stroke="#999999" points="562.745,-936.354 569.817,-928.464 559.368,-930.222 562.745,-936.354"/>
</g>
<!-- AllReduce -->
<g id="node20" class="node"><title>AllReduce</title>
<ellipse fill="#abd3d2" stroke="white" cx="606.438" cy="-868" rx="47.8496" ry="18"/>
<text text-anchor="middle" x="606.438" y="-863.8" font-family="Times,serif" font-size="14.00">AllReduce</text>
</g>
<!-- AllReduce&#45;&gt;Op -->
<g id="edge19" class="edge"><title>AllReduce&#45;&gt;Op</title>
<path fill="none" stroke="#999999" d="M643.721,-879.504C650.919,-883 657.972,-887.436 663.573,-893 676.636,-905.976 685.16,-924.878 690.407,-940.459"/>
<polygon fill="#999999" stroke="#999999" points="687.097,-941.604 693.396,-950.123 693.785,-939.535 687.097,-941.604"/>
</g>
<!-- ElementWiseOp -->
<g id="node21" class="node"><title>ElementWiseOp</title>
<ellipse fill="#abd3d2" stroke="white" cx="457.149" cy="-943" rx="57.2888" ry="18"/>
<text text-anchor="middle" x="457.149" y="-938.8" font-family="Times,serif" font-size="14.00">ElementWiseOp</text>
</g>
<!-- ElementWiseOp&#45;&gt;TensorOp -->
<g id="edge20" class="edge"><title>ElementWiseOp&#45;&gt;TensorOp</title>
<path fill="none" stroke="#999999" d="M508.015,-934.536C523.068,-931.981 539.606,-929.174 554.715,-926.609"/>
<polygon fill="#999999" stroke="#999999" points="555.637,-930.003 564.911,-924.879 554.466,-923.102 555.637,-930.003"/>
</g>
<!-- UnaryElementWiseOp -->
<g id="node22" class="node"><title>UnaryElementWiseOp</title>
<ellipse fill="#abd3d2" stroke="white" cx="254.549" cy="-943" rx="106.734" ry="18"/>
<text text-anchor="middle" x="254.549" y="-938.8" font-family="Times,serif" font-size="14.00">UnaryElementWiseOp</text>
</g>
<!-- UnaryElementWiseOp&#45;&gt;ElementWiseOp -->
<g id="edge21" class="edge"><title>UnaryElementWiseOp&#45;&gt;ElementWiseOp</title>
<path fill="none" stroke="#999999" d="M361.43,-943C371.01,-943 380.522,-943 389.615,-943"/>
<polygon fill="#999999" stroke="#999999" points="389.685,-946.5 399.685,-943 389.685,-939.5 389.685,-946.5"/>
</g>
<!-- NegativeOp -->
<g id="node23" class="node"><title>NegativeOp</title>
<ellipse fill="#abd3d2" stroke="white" cx="68.0514" cy="-1218" rx="52.6693" ry="18"/>
<text text-anchor="middle" x="68.0514" y="-1213.8" font-family="Times,serif" font-size="14.00">NegativeOp</text>
</g>
<!-- NegativeOp&#45;&gt;UnaryElementWiseOp -->
<g id="edge22" class="edge"><title>NegativeOp&#45;&gt;UnaryElementWiseOp</title>
<path fill="none" stroke="#999999" d="M114.724,-1209.22C123.067,-1205.55 130.798,-1200.36 136.103,-1193 150.734,-1172.71 128.162,-987.279 144.103,-968 147.311,-964.12 150.985,-960.769 155,-957.879"/>
<polygon fill="#999999" stroke="#999999" points="156.971,-960.776 163.677,-952.573 153.319,-954.804 156.971,-960.776"/>
</g>
<!-- AbsoluteOp -->
<g id="node24" class="node"><title>AbsoluteOp</title>
<ellipse fill="#abd3d2" stroke="white" cx="68.0514" cy="-1168" rx="52.6952" ry="18"/>
<text text-anchor="middle" x="68.0514" y="-1163.8" font-family="Times,serif" font-size="14.00">AbsoluteOp</text>
</g>
<!-- AbsoluteOp&#45;&gt;UnaryElementWiseOp -->
<g id="edge23" class="edge"><title>AbsoluteOp&#45;&gt;UnaryElementWiseOp</title>
<path fill="none" stroke="#999999" d="M114.667,-1159.18C123.014,-1155.51 130.761,-1150.33 136.103,-1143 147.567,-1127.27 131.624,-982.938 144.103,-968 147.33,-964.137 151.02,-960.798 155.047,-957.919"/>
<polygon fill="#999999" stroke="#999999" points="157.019,-960.816 163.745,-952.63 153.382,-954.835 157.019,-960.816"/>
</g>
<!-- SinOp -->
<g id="node25" class="node"><title>SinOp</title>
<ellipse fill="#abd3d2" stroke="white" cx="68.0514" cy="-1118" rx="32.9255" ry="18"/>
<text text-anchor="middle" x="68.0514" y="-1113.8" font-family="Times,serif" font-size="14.00">SinOp</text>
</g>
<!-- SinOp&#45;&gt;UnaryElementWiseOp -->
<g id="edge24" class="edge"><title>SinOp&#45;&gt;UnaryElementWiseOp</title>
<path fill="none" stroke="#999999" d="M100.26,-1113.95C113.437,-1110.57 127.657,-1104.37 136.103,-1093 152.701,-1070.66 126.064,-989.198 144.103,-968 147.403,-964.122 151.169,-960.775 155.272,-957.892"/>
<polygon fill="#999999" stroke="#999999" points="157.337,-960.735 164.126,-952.601 153.746,-954.727 157.337,-960.735"/>
</g>
<!-- CosOp -->
<g id="node26" class="node"><title>CosOp</title>
<ellipse fill="#abd3d2" stroke="white" cx="68.0514" cy="-1068" rx="34.8545" ry="18"/>
<text text-anchor="middle" x="68.0514" y="-1063.8" font-family="Times,serif" font-size="14.00">CosOp</text>
</g>
<!-- CosOp&#45;&gt;UnaryElementWiseOp -->
<g id="edge25" class="edge"><title>CosOp&#45;&gt;UnaryElementWiseOp</title>
<path fill="none" stroke="#999999" d="M101.773,-1063.32C114.411,-1059.82 127.799,-1053.7 136.103,-1043 156.658,-1016.52 121.842,-993.064 144.103,-968 147.484,-964.193 151.315,-960.903 155.469,-958.063"/>
<polygon fill="#999999" stroke="#999999" points="157.535,-960.91 164.407,-952.847 154.006,-954.864 157.535,-960.91"/>
</g>
<!-- TanhOp -->
<g id="node27" class="node"><title>TanhOp</title>
<ellipse fill="#abd3d2" stroke="white" cx="68.0514" cy="-1018" rx="38.4362" ry="18"/>
<text text-anchor="middle" x="68.0514" y="-1013.8" font-family="Times,serif" font-size="14.00">TanhOp</text>
</g>
<!-- TanhOp&#45;&gt;UnaryElementWiseOp -->
<g id="edge26" class="edge"><title>TanhOp&#45;&gt;UnaryElementWiseOp</title>
<path fill="none" stroke="#999999" d="M104.197,-1011.37C115.662,-1007.65 127.613,-1001.9 136.103,-993 144.155,-984.559 135.51,-975.891 144.103,-968 148.275,-964.169 152.91,-960.885 157.85,-958.074"/>
<polygon fill="#999999" stroke="#999999" points="159.639,-961.094 167.036,-953.509 156.523,-954.825 159.639,-961.094"/>
</g>
<!-- ExpOp -->
<g id="node28" class="node"><title>ExpOp</title>
<ellipse fill="#abd3d2" stroke="white" cx="68.0514" cy="-968" rx="35.3216" ry="18"/>
<text text-anchor="middle" x="68.0514" y="-963.8" font-family="Times,serif" font-size="14.00">ExpOp</text>
</g>
<!-- ExpOp&#45;&gt;UnaryElementWiseOp -->
<g id="edge27" class="edge"><title>ExpOp&#45;&gt;UnaryElementWiseOp</title>
<path fill="none" stroke="#999999" d="M102.463,-963.473C118.883,-961.248 139.571,-958.444 160.326,-955.632"/>
<polygon fill="#999999" stroke="#999999" points="161.061,-959.064 170.501,-954.253 160.121,-952.128 161.061,-959.064"/>
</g>
<!-- LogOp -->
<g id="node29" class="node"><title>LogOp</title>
<ellipse fill="#abd3d2" stroke="white" cx="68.0514" cy="-918" rx="35.3216" ry="18"/>
<text text-anchor="middle" x="68.0514" y="-913.8" font-family="Times,serif" font-size="14.00">LogOp</text>
</g>
<!-- LogOp&#45;&gt;UnaryElementWiseOp -->
<g id="edge28" class="edge"><title>LogOp&#45;&gt;UnaryElementWiseOp</title>
<path fill="none" stroke="#999999" d="M102.463,-922.527C118.883,-924.752 139.571,-927.556 160.326,-930.368"/>
<polygon fill="#999999" stroke="#999999" points="160.121,-933.872 170.501,-931.747 161.061,-926.936 160.121,-933.872"/>
</g>
<!-- ReciprocalOp -->
<g id="node30" class="node"><title>ReciprocalOp</title>
<ellipse fill="#abd3d2" stroke="white" cx="68.0514" cy="-868" rx="59.4339" ry="18"/>
<text text-anchor="middle" x="68.0514" y="-863.8" font-family="Times,serif" font-size="14.00">ReciprocalOp</text>
</g>
<!-- ReciprocalOp&#45;&gt;UnaryElementWiseOp -->
<g id="edge29" class="edge"><title>ReciprocalOp&#45;&gt;UnaryElementWiseOp</title>
<path fill="none" stroke="#999999" d="M106.758,-881.715C116.361,-885.302 126.641,-889.224 136.103,-893 159.217,-902.224 184.653,-912.977 205.926,-922.142"/>
<polygon fill="#999999" stroke="#999999" points="204.815,-925.476 215.383,-926.231 207.593,-919.05 204.815,-925.476"/>
</g>
<!-- SignOp -->
<g id="node31" class="node"><title>SignOp</title>
<ellipse fill="#abd3d2" stroke="white" cx="68.0514" cy="-818" rx="37.2681" ry="18"/>
<text text-anchor="middle" x="68.0514" y="-813.8" font-family="Times,serif" font-size="14.00">SignOp</text>
</g>
<!-- SignOp&#45;&gt;UnaryElementWiseOp -->
<g id="edge30" class="edge"><title>SignOp&#45;&gt;UnaryElementWiseOp</title>
<path fill="none" stroke="#999999" d="M100.451,-827.17C112.06,-831.206 125.069,-836.519 136.103,-843 171.578,-863.838 206.773,-895.681 229.247,-917.814"/>
<polygon fill="#999999" stroke="#999999" points="226.813,-920.33 236.363,-924.919 231.759,-915.376 226.813,-920.33"/>
</g>
<!-- SquareOp -->
<g id="node32" class="node"><title>SquareOp</title>
<ellipse fill="#abd3d2" stroke="white" cx="68.0514" cy="-768" rx="45.4441" ry="18"/>
<text text-anchor="middle" x="68.0514" y="-763.8" font-family="Times,serif" font-size="14.00">SquareOp</text>
</g>
<!-- SquareOp&#45;&gt;UnaryElementWiseOp -->
<g id="edge31" class="edge"><title>SquareOp&#45;&gt;UnaryElementWiseOp</title>
<path fill="none" stroke="#999999" d="M106.381,-777.827C116.599,-781.572 127.28,-786.544 136.103,-793 181.971,-826.563 219.181,-882.656 238.688,-915.909"/>
<polygon fill="#999999" stroke="#999999" points="235.693,-917.721 243.713,-924.644 241.761,-914.231 235.693,-917.721"/>
</g>
<!-- SqrtOp -->
<g id="node33" class="node"><title>SqrtOp</title>
<ellipse fill="#abd3d2" stroke="white" cx="68.0514" cy="-718" rx="35.8147" ry="18"/>
<text text-anchor="middle" x="68.0514" y="-713.8" font-family="Times,serif" font-size="14.00">SqrtOp</text>
</g>
<!-- SqrtOp&#45;&gt;UnaryElementWiseOp -->
<g id="edge32" class="edge"><title>SqrtOp&#45;&gt;UnaryElementWiseOp</title>
<path fill="none" stroke="#999999" d="M101.088,-725.079C113.036,-728.9 126.112,-734.613 136.103,-743 192.634,-790.457 228.424,-872.493 244.192,-915.257"/>
<polygon fill="#999999" stroke="#999999" points="240.926,-916.518 247.598,-924.747 247.514,-914.153 240.926,-916.518"/>
</g>
<!-- BinaryElementWiseOp -->
<g id="node34" class="node"><title>BinaryElementWiseOp</title>
<ellipse fill="#abd3d2" stroke="white" cx="254.549" cy="-368" rx="110.393" ry="18"/>
<text text-anchor="middle" x="254.549" y="-363.8" font-family="Times,serif" font-size="14.00">BinaryElementWiseOp</text>
</g>
<!-- BinaryElementWiseOp&#45;&gt;ElementWiseOp -->
<g id="edge33" class="edge"><title>BinaryElementWiseOp&#45;&gt;ElementWiseOp</title>
<path fill="none" stroke="#999999" d="M256.977,-386.113C264.091,-471.957 298.395,-837.043 372.996,-918 378.796,-924.295 386.114,-929.027 393.992,-932.58"/>
<polygon fill="#999999" stroke="#999999" points="392.849,-935.891 403.438,-936.233 395.373,-929.362 392.849,-935.891"/>
</g>
<!-- Dimshuffle -->
<g id="node35" class="node"><title>Dimshuffle</title>
<ellipse fill="#abd3d2" stroke="white" cx="457.149" cy="-893" rx="49.805" ry="18"/>
<text text-anchor="middle" x="457.149" y="-888.8" font-family="Times,serif" font-size="14.00">Dimshuffle</text>
</g>
<!-- Dimshuffle&#45;&gt;TensorOp -->
<g id="edge34" class="edge"><title>Dimshuffle&#45;&gt;TensorOp</title>
<path fill="none" stroke="#999999" d="M502.741,-900.569C519.008,-903.33 537.527,-906.473 554.318,-909.323"/>
<polygon fill="#999999" stroke="#999999" points="554.069,-912.831 564.514,-911.054 555.241,-905.93 554.069,-912.831"/>
</g>
<!-- DotOp -->
<g id="node36" class="node"><title>DotOp</title>
<ellipse fill="#abd3d2" stroke="white" cx="457.149" cy="-843" rx="34.3614" ry="18"/>
<text text-anchor="middle" x="457.149" y="-838.8" font-family="Times,serif" font-size="14.00">DotOp</text>
</g>
<!-- DotOp&#45;&gt;TensorOp -->
<g id="edge35" class="edge"><title>DotOp&#45;&gt;TensorOp</title>
<path fill="none" stroke="#999999" d="M491.039,-845.637C508.043,-848.625 527.969,-854.899 541.303,-868 549.625,-876.176 541.517,-884.313 549.303,-893 552.601,-896.679 556.542,-899.846 560.787,-902.564"/>
<polygon fill="#999999" stroke="#999999" points="559.368,-905.778 569.817,-907.536 562.745,-899.646 559.368,-905.778"/>
</g>
<!-- ReductionOp -->
<g id="node37" class="node"><title>ReductionOp</title>
<ellipse fill="#abd3d2" stroke="white" cx="457.149" cy="-793" rx="57.0305" ry="18"/>
<text text-anchor="middle" x="457.149" y="-788.8" font-family="Times,serif" font-size="14.00">ReductionOp</text>
</g>
<!-- ReductionOp&#45;&gt;TensorOp -->
<g id="edge36" class="edge"><title>ReductionOp&#45;&gt;TensorOp</title>
<path fill="none" stroke="#999999" d="M511.099,-799.04C522.595,-802.796 533.603,-808.718 541.303,-818 562.706,-843.801 529.579,-865.894 549.303,-893 552.173,-896.944 555.808,-900.276 559.843,-903.09"/>
<polygon fill="#999999" stroke="#999999" points="558.169,-906.165 568.572,-908.167 561.688,-900.114 558.169,-906.165"/>
</g>
<!-- TensorSizeOp -->
<g id="node38" class="node"><title>TensorSizeOp</title>
<ellipse fill="#abd3d2" stroke="white" cx="457.149" cy="-743" rx="60.1605" ry="18"/>
<text text-anchor="middle" x="457.149" y="-738.8" font-family="Times,serif" font-size="14.00">TensorSizeOp</text>
</g>
<!-- TensorSizeOp&#45;&gt;TensorOp -->
<g id="edge37" class="edge"><title>TensorSizeOp&#45;&gt;TensorOp</title>
<path fill="none" stroke="#999999" d="M513.527,-749.544C524.221,-753.336 534.27,-759.147 541.303,-768 558.617,-789.794 533.406,-870.151 549.303,-893 552.088,-897.004 555.67,-900.375 559.673,-903.212"/>
<polygon fill="#999999" stroke="#999999" points="557.969,-906.27 568.365,-908.315 561.514,-900.233 557.969,-906.27"/>
</g>
<!-- OneHotOp -->
<g id="node39" class="node"><title>OneHotOp</title>
<ellipse fill="#abd3d2" stroke="white" cx="457.149" cy="-693" rx="48.8273" ry="18"/>
<text text-anchor="middle" x="457.149" y="-688.8" font-family="Times,serif" font-size="14.00">OneHotOp</text>
</g>
<!-- OneHotOp&#45;&gt;TensorOp -->
<g id="edge38" class="edge"><title>OneHotOp&#45;&gt;TensorOp</title>
<path fill="none" stroke="#999999" d="M505,-696.826C518.776,-700.351 532.497,-706.706 541.303,-718 553.271,-733.351 538.332,-876.921 549.303,-893 552.052,-897.029 555.609,-900.416 559.599,-903.263"/>
<polygon fill="#999999" stroke="#999999" points="557.882,-906.313 568.274,-908.377 561.438,-900.283 557.882,-906.313"/>
</g>
<!-- Function -->
<g id="node40" class="node"><title>Function</title>
<ellipse fill="#abd3d2" stroke="white" cx="606.438" cy="-818" rx="41.6025" ry="18"/>
<text text-anchor="middle" x="606.438" y="-813.8" font-family="Times,serif" font-size="14.00">Function</text>
</g>
<!-- Function&#45;&gt;Op -->
<g id="edge39" class="edge"><title>Function&#45;&gt;Op</title>
<path fill="none" stroke="#999999" d="M641.802,-827.61C649.883,-831.286 657.81,-836.277 663.573,-843 686.833,-870.133 694.317,-911.744 696.648,-939.405"/>
<polygon fill="#999999" stroke="#999999" points="693.172,-939.872 697.329,-949.617 700.156,-939.406 693.172,-939.872"/>
</g>
<!-- AddOp -->
<g id="node41" class="node"><title>AddOp</title>
<ellipse fill="#abd3d2" stroke="white" cx="68.0514" cy="-668" rx="36.2905" ry="18"/>
<text text-anchor="middle" x="68.0514" y="-663.8" font-family="Times,serif" font-size="14.00">AddOp</text>
</g>
<!-- AddOp&#45;&gt;BinaryElementWiseOp -->
<g id="edge40" class="edge"><title>AddOp&#45;&gt;BinaryElementWiseOp</title>
<path fill="none" stroke="#999999" d="M102.01,-661.46C113.937,-657.719 126.755,-651.92 136.103,-643 208.987,-573.445 238.861,-451.315 249.05,-396.289"/>
<polygon fill="#999999" stroke="#999999" points="252.537,-396.671 250.833,-386.214 245.644,-395.451 252.537,-396.671"/>
</g>
<!-- SubtractOp -->
<g id="node42" class="node"><title>SubtractOp</title>
<ellipse fill="#abd3d2" stroke="white" cx="68.0514" cy="-618" rx="50.2723" ry="18"/>
<text text-anchor="middle" x="68.0514" y="-613.8" font-family="Times,serif" font-size="14.00">SubtractOp</text>
</g>
<!-- SubtractOp&#45;&gt;BinaryElementWiseOp -->
<g id="edge41" class="edge"><title>SubtractOp&#45;&gt;BinaryElementWiseOp</title>
<path fill="none" stroke="#999999" d="M110.336,-607.989C119.544,-604.363 128.745,-599.496 136.103,-593 197.981,-538.366 232.189,-443.207 246.088,-396.089"/>
<polygon fill="#999999" stroke="#999999" points="249.514,-396.837 248.897,-386.26 242.784,-394.914 249.514,-396.837"/>
</g>
<!-- MultiplyOp -->
<g id="node43" class="node"><title>MultiplyOp</title>
<ellipse fill="#abd3d2" stroke="white" cx="68.0514" cy="-568" rx="51.7433" ry="18"/>
<text text-anchor="middle" x="68.0514" y="-563.8" font-family="Times,serif" font-size="14.00">MultiplyOp</text>
</g>
<!-- MultiplyOp&#45;&gt;BinaryElementWiseOp -->
<g id="edge42" class="edge"><title>MultiplyOp&#45;&gt;BinaryElementWiseOp</title>
<path fill="none" stroke="#999999" d="M110.191,-557.257C119.301,-553.671 128.497,-549.005 136.103,-543 187.246,-502.623 224.07,-433.735 241.746,-395.543"/>
<polygon fill="#999999" stroke="#999999" points="245.093,-396.636 246.023,-386.082 238.715,-393.753 245.093,-396.636"/>
</g>
<!-- DivideOp -->
<g id="node44" class="node"><title>DivideOp</title>
<ellipse fill="#abd3d2" stroke="white" cx="68.0514" cy="-518" rx="44.9682" ry="18"/>
<text text-anchor="middle" x="68.0514" y="-513.8" font-family="Times,serif" font-size="14.00">DivideOp</text>
</g>
<!-- DivideOp&#45;&gt;BinaryElementWiseOp -->
<g id="edge43" class="edge"><title>DivideOp&#45;&gt;BinaryElementWiseOp</title>
<path fill="none" stroke="#999999" d="M105.322,-507.906C115.74,-504.118 126.791,-499.19 136.103,-493 176.779,-465.958 213.547,-422.251 234.716,-394.337"/>
<polygon fill="#999999" stroke="#999999" points="237.599,-396.325 240.771,-386.217 231.987,-392.141 237.599,-396.325"/>
</g>
<!-- ModOp -->
<g id="node45" class="node"><title>ModOp</title>
<ellipse fill="#abd3d2" stroke="white" cx="68.0514" cy="-468" rx="37.7439" ry="18"/>
<text text-anchor="middle" x="68.0514" y="-463.8" font-family="Times,serif" font-size="14.00">ModOp</text>
</g>
<!-- ModOp&#45;&gt;BinaryElementWiseOp -->
<g id="edge44" class="edge"><title>ModOp&#45;&gt;BinaryElementWiseOp</title>
<path fill="none" stroke="#999999" d="M99.6669,-458.124C111.306,-453.973 124.54,-448.766 136.103,-443 166.051,-428.065 197.926,-407.372 220.901,-391.505"/>
<polygon fill="#999999" stroke="#999999" points="223.049,-394.274 229.248,-385.682 219.044,-388.533 223.049,-394.274"/>
</g>
<!-- MaximumOp -->
<g id="node46" class="node"><title>MaximumOp</title>
<ellipse fill="#abd3d2" stroke="white" cx="68.0514" cy="-418" rx="57.5237" ry="18"/>
<text text-anchor="middle" x="68.0514" y="-413.8" font-family="Times,serif" font-size="14.00">MaximumOp</text>
</g>
<!-- MaximumOp&#45;&gt;BinaryElementWiseOp -->
<g id="edge45" class="edge"><title>MaximumOp&#45;&gt;BinaryElementWiseOp</title>
<path fill="none" stroke="#999999" d="M112.308,-406.277C134.498,-400.264 162.017,-392.806 186.852,-386.075"/>
<polygon fill="#999999" stroke="#999999" points="187.846,-389.432 196.582,-383.438 186.015,-382.676 187.846,-389.432"/>
</g>
<!-- MinimumOp -->
<g id="node47" class="node"><title>MinimumOp</title>
<ellipse fill="#abd3d2" stroke="white" cx="68.0514" cy="-368" rx="56.0872" ry="18"/>
<text text-anchor="middle" x="68.0514" y="-363.8" font-family="Times,serif" font-size="14.00">MinimumOp</text>
</g>
<!-- MinimumOp&#45;&gt;BinaryElementWiseOp -->
<g id="edge46" class="edge"><title>MinimumOp&#45;&gt;BinaryElementWiseOp</title>
<path fill="none" stroke="#999999" d="M124.407,-368C127.44,-368 130.537,-368 133.681,-368"/>
<polygon fill="#999999" stroke="#999999" points="133.863,-371.5 143.863,-368 133.863,-364.5 133.863,-371.5"/>
</g>
<!-- PowerOp -->
<g id="node48" class="node"><title>PowerOp</title>
<ellipse fill="#abd3d2" stroke="white" cx="68.0514" cy="-318" rx="43.5233" ry="18"/>
<text text-anchor="middle" x="68.0514" y="-313.8" font-family="Times,serif" font-size="14.00">PowerOp</text>
</g>
<!-- PowerOp&#45;&gt;BinaryElementWiseOp -->
<g id="edge47" class="edge"><title>PowerOp&#45;&gt;BinaryElementWiseOp</title>
<path fill="none" stroke="#999999" d="M105.062,-327.759C128.225,-334.036 159.037,-342.387 186.588,-349.853"/>
<polygon fill="#999999" stroke="#999999" points="186.003,-353.321 196.57,-352.558 187.834,-346.564 186.003,-353.321"/>
</g>
<!-- EqualOp -->
<g id="node49" class="node"><title>EqualOp</title>
<ellipse fill="#abd3d2" stroke="white" cx="68.0514" cy="-268" rx="41.5852" ry="18"/>
<text text-anchor="middle" x="68.0514" y="-263.8" font-family="Times,serif" font-size="14.00">EqualOp</text>
</g>
<!-- EqualOp&#45;&gt;BinaryElementWiseOp -->
<g id="edge48" class="edge"><title>EqualOp&#45;&gt;BinaryElementWiseOp</title>
<path fill="none" stroke="#999999" d="M101.697,-278.605C112.828,-282.629 125.207,-287.567 136.103,-293 166.051,-307.935 197.926,-328.628 220.901,-344.495"/>
<polygon fill="#999999" stroke="#999999" points="219.044,-347.467 229.248,-350.318 223.049,-341.726 219.044,-347.467"/>
</g>
<!-- NotEqualOp -->
<g id="node50" class="node"><title>NotEqualOp</title>
<ellipse fill="#abd3d2" stroke="white" cx="68.0514" cy="-218" rx="54.6162" ry="18"/>
<text text-anchor="middle" x="68.0514" y="-213.8" font-family="Times,serif" font-size="14.00">NotEqualOp</text>
</g>
<!-- NotEqualOp&#45;&gt;BinaryElementWiseOp -->
<g id="edge49" class="edge"><title>NotEqualOp&#45;&gt;BinaryElementWiseOp</title>
<path fill="none" stroke="#999999" d="M109.869,-229.807C118.896,-233.332 128.136,-237.704 136.103,-243 176.779,-270.042 213.547,-313.749 234.716,-341.663"/>
<polygon fill="#999999" stroke="#999999" points="231.987,-343.859 240.771,-349.783 237.599,-339.675 231.987,-343.859"/>
</g>
<!-- GreaterOp -->
<g id="node51" class="node"><title>GreaterOp</title>
<ellipse fill="#abd3d2" stroke="white" cx="68.0514" cy="-168" rx="47.3478" ry="18"/>
<text text-anchor="middle" x="68.0514" y="-163.8" font-family="Times,serif" font-size="14.00">GreaterOp</text>
</g>
<!-- GreaterOp&#45;&gt;BinaryElementWiseOp -->
<g id="edge50" class="edge"><title>GreaterOp&#45;&gt;BinaryElementWiseOp</title>
<path fill="none" stroke="#999999" d="M108.09,-177.934C117.877,-181.619 127.912,-186.533 136.103,-193 187.246,-233.377 224.07,-302.265 241.746,-340.457"/>
<polygon fill="#999999" stroke="#999999" points="238.715,-342.247 246.023,-349.918 245.093,-339.364 238.715,-342.247"/>
</g>
<!-- GreaterEqualOp -->
<g id="node52" class="node"><title>GreaterEqualOp</title>
<ellipse fill="#abd3d2" stroke="white" cx="68.0514" cy="-118" rx="68.1028" ry="18"/>
<text text-anchor="middle" x="68.0514" y="-113.8" font-family="Times,serif" font-size="14.00">GreaterEqualOp</text>
</g>
<!-- GreaterEqualOp&#45;&gt;BinaryElementWiseOp -->
<g id="edge51" class="edge"><title>GreaterEqualOp&#45;&gt;BinaryElementWiseOp</title>
<path fill="none" stroke="#999999" d="M116.607,-130.687C123.641,-133.939 130.422,-137.984 136.103,-143 197.981,-197.634 232.189,-292.793 246.088,-339.911"/>
<polygon fill="#999999" stroke="#999999" points="242.784,-341.086 248.897,-349.74 249.514,-339.163 242.784,-341.086"/>
</g>
<!-- LessOp -->
<g id="node53" class="node"><title>LessOp</title>
<ellipse fill="#abd3d2" stroke="white" cx="68.0514" cy="-68" rx="37.2507" ry="18"/>
<text text-anchor="middle" x="68.0514" y="-63.8" font-family="Times,serif" font-size="14.00">LessOp</text>
</g>
<!-- LessOp&#45;&gt;BinaryElementWiseOp -->
<g id="edge52" class="edge"><title>LessOp&#45;&gt;BinaryElementWiseOp</title>
<path fill="none" stroke="#999999" d="M102.699,-74.7583C114.429,-78.5054 126.935,-84.2513 136.103,-93 208.987,-162.555 238.861,-284.685 249.05,-339.711"/>
<polygon fill="#999999" stroke="#999999" points="245.644,-340.549 250.833,-349.786 252.537,-339.329 245.644,-340.549"/>
</g>
<!-- LessEqualOp -->
<g id="node54" class="node"><title>LessEqualOp</title>
<ellipse fill="#abd3d2" stroke="white" cx="68.0514" cy="-18" rx="57.5065" ry="18"/>
<text text-anchor="middle" x="68.0514" y="-13.8" font-family="Times,serif" font-size="14.00">LessEqualOp</text>
</g>
<!-- LessEqualOp&#45;&gt;BinaryElementWiseOp -->
<g id="edge53" class="edge"><title>LessEqualOp&#45;&gt;BinaryElementWiseOp</title>
<path fill="none" stroke="#999999" d="M114.461,-28.7785C122.421,-32.2836 130.072,-36.9079 136.103,-43 220.117,-127.868 244.487,-277.242 251.172,-339.503"/>
<polygon fill="#999999" stroke="#999999" points="247.718,-340.14 252.194,-349.743 254.683,-339.445 247.718,-340.14"/>
</g>
</g>
</svg>
