<?xml version="1.0" encoding="UTF-8" standalone="no"?>
<!DOCTYPE svg PUBLIC "-//W3C//DTD SVG 1.1//EN"
 "http://www.w3.org/Graphics/SVG/1.1/DTD/svg11.dtd">
<!-- Generated by graphviz version 2.40.1 (20161225.0304)
 -->
<!-- Title: ngraph Pages: 1 -->
<svg width="406pt" height="218pt"
 viewBox="0.00 0.00 406.00 218.00" xmlns="http://www.w3.org/2000/svg" xmlns:xlink="http://www.w3.org/1999/xlink">
<g id="graph0" class="graph" transform="scale(1 1) rotate(0) translate(4 214)">
<title>ngraph</title>
<polygon fill="#ffffff" stroke="transparent" points="-4,4 -4,-214 402,-214 402,4 -4,4"/>
<!-- Add_3 -->
<g id="node1" class="node">
<title>Add_3</title>
<polygon fill="none" stroke="#000000" points="131.5,-123 58.5,-123 58.5,-87 131.5,-87 131.5,-123"/>
<text text-anchor="middle" x="95" y="-101.3" font-family="Times,serif" font-size="14.00" fill="#000000">Add_3 [0]</text>
</g>
<!-- Result_5 -->
<g id="node2" class="node">
<title>Result_5</title>
<polygon fill="none" stroke="#dc143c" stroke-width="1.5" points="137,-36 53,-36 53,0 137,0 137,-36"/>
<text text-anchor="middle" x="95" y="-14.3" font-family="Times,serif" font-size="14.00" fill="#000000">Result_5 [0]</text>
</g>
<!-- Add_3&#45;&gt;Result_5 -->
<g id="edge1" class="edge">
<title>Add_3&#45;&gt;Result_5</title>
<path fill="none" stroke="#000000" d="M95,-86.9735C95,-75.1918 95,-59.5607 95,-46.1581"/>
<polygon fill="#000000" stroke="#000000" points="98.5001,-46.0033 95,-36.0034 91.5001,-46.0034 98.5001,-46.0033"/>
<text text-anchor="middle" x="116" y="-57.8" font-family="Times,serif" font-size="14.00" fill="#000000"> 0 &#45;&gt; 0 </text>
</g>
<!-- CLONE_0 -->
<g id="node3" class="node">
<title>CLONE_0</title>
<polygon fill="#ffffff" stroke="#0000ff" stroke-dasharray="5,2" points="86,-210 0,-210 0,-174 86,-174 86,-210"/>
<text text-anchor="middle" x="43" y="-188.3" font-family="Times,serif" font-size="14.00" fill="#000000">Parameter_1</text>
</g>
<!-- CLONE_0&#45;&gt;Add_3 -->
<g id="edge2" class="edge">
<title>CLONE_0&#45;&gt;Add_3</title>
<path fill="none" stroke="#000000" d="M53.7744,-173.9735C61.0256,-161.8418 70.7162,-145.6287 78.8801,-131.9698"/>
<polygon fill="#000000" stroke="#000000" points="82.1132,-133.3827 84.2394,-123.0034 76.1046,-129.7913 82.1132,-133.3827"/>
<text text-anchor="middle" x="94" y="-144.8" font-family="Times,serif" font-size="14.00" fill="#000000"> 0 &#45;&gt; 0 </text>
</g>
<!-- CLONE_1 -->
<g id="node4" class="node">
<title>CLONE_1</title>
<polygon fill="#ffffff" stroke="#0000ff" stroke-dasharray="5,2" points="190,-210 104,-210 104,-174 190,-174 190,-210"/>
<text text-anchor="middle" x="147" y="-188.3" font-family="Times,serif" font-size="14.00" fill="#000000">Parameter_0</text>
</g>
<!-- CLONE_1&#45;&gt;Add_3 -->
<g id="edge3" class="edge">
<title>CLONE_1&#45;&gt;Add_3</title>
<path fill="none" stroke="#000000" d="M137.5234,-173.8476C132.266,-164.0105 125.4937,-151.7102 119,-141 117.1526,-137.953 115.1657,-134.7991 113.1546,-131.6826"/>
<polygon fill="#000000" stroke="#000000" points="115.9391,-129.547 107.5178,-123.118 110.0919,-133.3954 115.9391,-129.547"/>
<text text-anchor="middle" x="149" y="-144.8" font-family="Times,serif" font-size="14.00" fill="#000000"> 0 &#45;&gt; 1 </text>
</g>
<!-- Add_2 -->
<g id="node5" class="node">
<title>Add_2</title>
<polygon fill="none" stroke="#000000" points="339.5,-123 266.5,-123 266.5,-87 339.5,-87 339.5,-123"/>
<text text-anchor="middle" x="303" y="-101.3" font-family="Times,serif" font-size="14.00" fill="#000000">Add_2 [0]</text>
</g>
<!-- Result_4 -->
<g id="node6" class="node">
<title>Result_4</title>
<polygon fill="none" stroke="#dc143c" stroke-width="1.5" points="345,-36 261,-36 261,0 345,0 345,-36"/>
<text text-anchor="middle" x="303" y="-14.3" font-family="Times,serif" font-size="14.00" fill="#000000">Result_4 [0]</text>
</g>
<!-- Add_2&#45;&gt;Result_4 -->
<g id="edge4" class="edge">
<title>Add_2&#45;&gt;Result_4</title>
<path fill="none" stroke="#000000" d="M303,-86.9735C303,-75.1918 303,-59.5607 303,-46.1581"/>
<polygon fill="#000000" stroke="#000000" points="306.5001,-46.0033 303,-36.0034 299.5001,-46.0034 306.5001,-46.0033"/>
<text text-anchor="middle" x="324" y="-57.8" font-family="Times,serif" font-size="14.00" fill="#000000"> 0 &#45;&gt; 0 </text>
</g>
<!-- CLONE_2 -->
<g id="node7" class="node">
<title>CLONE_2</title>
<polygon fill="#ffffff" stroke="#0000ff" stroke-dasharray="5,2" points="294,-210 208,-210 208,-174 294,-174 294,-210"/>
<text text-anchor="middle" x="251" y="-188.3" font-family="Times,serif" font-size="14.00" fill="#000000">Parameter_0</text>
</g>
<!-- CLONE_2&#45;&gt;Add_2 -->
<g id="edge5" class="edge">
<title>CLONE_2&#45;&gt;Add_2</title>
<path fill="none" stroke="#000000" d="M261.7744,-173.9735C269.0256,-161.8418 278.7162,-145.6287 286.8801,-131.9698"/>
<polygon fill="#000000" stroke="#000000" points="290.1132,-133.3827 292.2394,-123.0034 284.1046,-129.7913 290.1132,-133.3827"/>
<text text-anchor="middle" x="301" y="-144.8" font-family="Times,serif" font-size="14.00" fill="#000000"> 0 &#45;&gt; 0 </text>
</g>
<!-- CLONE_3 -->
<g id="node8" class="node">
<title>CLONE_3</title>
<polygon fill="#ffffff" stroke="#0000ff" stroke-dasharray="5,2" points="398,-210 312,-210 312,-174 398,-174 398,-210"/>
<text text-anchor="middle" x="355" y="-188.3" font-family="Times,serif" font-size="14.00" fill="#000000">Parameter_1</text>
</g>
<!-- CLONE_3&#45;&gt;Add_2 -->
<g id="edge6" class="edge">
<title>CLONE_3&#45;&gt;Add_2</title>
<path fill="none" stroke="#000000" d="M345.0238,-173.931C339.5314,-164.1183 332.5236,-151.8148 326,-141 324.1827,-137.9874 322.2492,-134.8551 320.3049,-131.751"/>
<polygon fill="#000000" stroke="#000000" points="323.1945,-129.7722 314.8844,-123.2 317.2823,-133.52 323.1945,-129.7722"/>
<text text-anchor="middle" x="355" y="-144.8" font-family="Times,serif" font-size="14.00" fill="#000000"> 0 &#45;&gt; 1 </text>
</g>
</g>
</svg>
