<?xml version="1.0" encoding="UTF-8" standalone="no"?>
<!DOCTYPE svg PUBLIC "-//W3C//DTD SVG 1.1//EN"
 "http://www.w3.org/Graphics/SVG/1.1/DTD/svg11.dtd">
<!-- Generated by graphviz version 2.40.1 (20161225.0304)
 -->
<!-- Title: ngraph Pages: 1 -->
<svg width="198pt" height="218pt"
 viewBox="0.00 0.00 198.00 218.00" xmlns="http://www.w3.org/2000/svg" xmlns:xlink="http://www.w3.org/1999/xlink">
<g id="graph0" class="graph" transform="scale(1 1) rotate(0) translate(4 214)">
<title>ngraph</title>
<polygon fill="#ffffff" stroke="transparent" points="-4,4 -4,-214 194,-214 194,4 -4,4"/>
<!-- Add_3 -->
<g id="node1" class="node">
<title>Add_3</title>
<polygon fill="none" stroke="#000000" points="131.5,-123 58.5,-123 58.5,-87 131.5,-87 131.5,-123"/>
<text text-anchor="middle" x="95" y="-101.3" font-family="Times,serif" font-size="14.00" fill="#000000">Add_3 [0]</text>
</g>
<!-- Result_5 -->
<g id="node2" class="node">
<title>Result_5</title>
<polygon fill="none" stroke="#dc143c" stroke-width="1.5" points="86,-36 2,-36 2,0 86,0 86,-36"/>
<text text-anchor="middle" x="44" y="-14.3" font-family="Times,serif" font-size="14.00" fill="#000000">Result_5 [0]</text>
</g>
<!-- Add_3&#45;&gt;Result_5 -->
<g id="edge1" class="edge">
<title>Add_3&#45;&gt;Result_5</title>
<path fill="none" stroke="#000000" d="M84.4328,-86.9735C77.3211,-74.8418 67.8168,-58.6287 59.8099,-44.9698"/>
<polygon fill="#000000" stroke="#000000" points="62.6304,-42.8603 54.5537,-36.0034 56.5915,-46.4004 62.6304,-42.8603"/>
<text text-anchor="middle" x="94" y="-57.8" font-family="Times,serif" font-size="14.00" fill="#000000"> 0 &#45;&gt; 0 </text>
</g>
<!-- Result_4 -->
<g id="node5" class="node">
<title>Result_4</title>
<polygon fill="none" stroke="#dc143c" stroke-width="1.5" points="188,-36 104,-36 104,0 188,0 188,-36"/>
<text text-anchor="middle" x="146" y="-14.3" font-family="Times,serif" font-size="14.00" fill="#000000">Result_4 [0]</text>
</g>
<!-- Add_3&#45;&gt;Result_4 -->
<g id="edge4" class="edge">
<title>Add_3&#45;&gt;Result_4</title>
<path fill="none" stroke="#000000" d="M107.5732,-86.9153C111.3675,-81.2554 115.4621,-74.9364 119,-69 123.5215,-61.4133 128.1307,-53.0039 132.231,-45.2381"/>
<polygon fill="#000000" stroke="#000000" points="135.4312,-46.6702 136.9401,-36.1833 129.2209,-43.4404 135.4312,-46.6702"/>
<text text-anchor="middle" x="147" y="-57.8" font-family="Times,serif" font-size="14.00" fill="#000000"> 0 &#45;&gt; 0 </text>
</g>
<!-- CLONE_0 -->
<g id="node3" class="node">
<title>CLONE_0</title>
<polygon fill="#ffffff" stroke="#0000ff" stroke-dasharray="5,2" points="86,-210 0,-210 0,-174 86,-174 86,-210"/>
<text text-anchor="middle" x="43" y="-188.3" font-family="Times,serif" font-size="14.00" fill="#000000">Parameter_1</text>
</g>
<!-- CLONE_0&#45;&gt;Add_3 -->
<g id="edge2" class="edge">
<title>CLONE_0&#45;&gt;Add_3</title>
<path fill="none" stroke="#000000" d="M53.7744,-173.9735C61.0256,-161.8418 70.7162,-145.6287 78.8801,-131.9698"/>
<polygon fill="#000000" stroke="#000000" points="82.1132,-133.3827 84.2394,-123.0034 76.1046,-129.7913 82.1132,-133.3827"/>
<text text-anchor="middle" x="94" y="-144.8" font-family="Times,serif" font-size="14.00" fill="#000000"> 0 &#45;&gt; 0 </text>
</g>
<!-- CLONE_1 -->
<g id="node4" class="node">
<title>CLONE_1</title>
<polygon fill="#ffffff" stroke="#0000ff" stroke-dasharray="5,2" points="190,-210 104,-210 104,-174 190,-174 190,-210"/>
<text text-anchor="middle" x="147" y="-188.3" font-family="Times,serif" font-size="14.00" fill="#000000">Parameter_0</text>
</g>
<!-- CLONE_1&#45;&gt;Add_3 -->
<g id="edge3" class="edge">
<title>CLONE_1&#45;&gt;Add_3</title>
<path fill="none" stroke="#000000" d="M137.5234,-173.8476C132.266,-164.0105 125.4937,-151.7102 119,-141 117.1526,-137.953 115.1657,-134.7991 113.1546,-131.6826"/>
<polygon fill="#000000" stroke="#000000" points="115.9391,-129.547 107.5178,-123.118 110.0919,-133.3954 115.9391,-129.547"/>
<text text-anchor="middle" x="148" y="-144.8" font-family="Times,serif" font-size="14.00" fill="#000000"> 0 &#45;&gt; 1 </text>
</g>
</g>
</svg>
