<?xml version="1.0" encoding="UTF-8" standalone="no"?>
<!DOCTYPE svg PUBLIC "-//W3C//DTD SVG 1.1//EN"
 "http://www.w3.org/Graphics/SVG/1.1/DTD/svg11.dtd">
<!-- Generated by graphviz version 2.40.1 (20161225.0304)
 -->
<!-- Title: ngraph Pages: 1 -->
<svg width="741pt" height="566pt"
 viewBox="0.00 0.00 741.00 566.00" xmlns="http://www.w3.org/2000/svg" xmlns:xlink="http://www.w3.org/1999/xlink">
<g id="graph0" class="graph" transform="scale(1 1) rotate(0) translate(4 562)">
<title>ngraph</title>
<polygon fill="#ffffff" stroke="transparent" points="-4,4 -4,-562 737,-562 737,4 -4,4"/>
<!-- Multiply_57 -->
<g id="node1" class="node">
<title>Multiply_57</title>
<polygon fill="none" stroke="#000000" points="391.5,-123 238.5,-123 238.5,-87 391.5,-87 391.5,-123"/>
<text text-anchor="middle" x="315" y="-101.3" font-family="Times,serif" font-size="14.00" fill="#000000">Multiply_57 [2,3,4]</text>
</g>
<!-- Result_13 -->
<g id="node2" class="node">
<title>Result_13</title>
<polygon fill="none" stroke="#dc143c" stroke-width="1.5" points="384.5,-36 245.5,-36 245.5,0 384.5,0 384.5,-36"/>
<text text-anchor="middle" x="315" y="-14.3" font-family="Times,serif" font-size="14.00" fill="#000000">Result_13 [2,3,4]</text>
</g>
<!-- Multiply_57&#45;&gt;Result_13 -->
<g id="edge1" class="edge">
<title>Multiply_57&#45;&gt;Result_13</title>
<path fill="none" stroke="#000000" d="M315,-86.9735C315,-75.1918 315,-59.5607 315,-46.1581"/>
<polygon fill="#000000" stroke="#000000" points="318.5001,-46.0033 315,-36.0034 311.5001,-46.0034 318.5001,-46.0033"/>
<text text-anchor="middle" x="341.5" y="-57.8" font-family="Times,serif" font-size="14.00" fill="#000000"> 0 &#45;&gt; 0 </text>
</g>
<!-- Multiply_56 -->
<g id="node3" class="node">
<title>Multiply_56</title>
<polygon fill="none" stroke="#000000" points="313.5,-210 160.5,-210 160.5,-174 313.5,-174 313.5,-210"/>
<text text-anchor="middle" x="237" y="-188.3" font-family="Times,serif" font-size="14.00" fill="#000000">Multiply_56 [2,3,4]</text>
</g>
<!-- Multiply_56&#45;&gt;Multiply_57 -->
<g id="edge2" class="edge">
<title>Multiply_56&#45;&gt;Multiply_57</title>
<path fill="none" stroke="#000000" d="M253.1617,-173.9735C264.3521,-161.4919 279.4159,-144.6899 291.874,-130.7944"/>
<polygon fill="#000000" stroke="#000000" points="294.7896,-132.7855 298.8591,-123.0034 289.5776,-128.1127 294.7896,-132.7855"/>
<text text-anchor="middle" x="307.5" y="-144.8" font-family="Times,serif" font-size="14.00" fill="#000000"> 0 &#45;&gt; 0 </text>
</g>
<!-- Add_55 -->
<g id="node4" class="node">
<title>Add_55</title>
<polygon fill="none" stroke="#000000" points="454,-210 332,-210 332,-174 454,-174 454,-210"/>
<text text-anchor="middle" x="393" y="-188.3" font-family="Times,serif" font-size="14.00" fill="#000000">Add_55 [2,3,4]</text>
</g>
<!-- Add_55&#45;&gt;Multiply_57 -->
<g id="edge3" class="edge">
<title>Add_55&#45;&gt;Multiply_57</title>
<path fill="none" stroke="#000000" d="M376.8383,-173.9735C365.6479,-161.4919 350.5841,-144.6899 338.126,-130.7944"/>
<polygon fill="#000000" stroke="#000000" points="340.4224,-128.1127 331.1409,-123.0034 335.2104,-132.7855 340.4224,-128.1127"/>
<text text-anchor="middle" x="385.5" y="-144.8" font-family="Times,serif" font-size="14.00" fill="#000000"> 0 &#45;&gt; 1 </text>
</g>
<!-- Broadcast_50 -->
<g id="node5" class="node">
<title>Broadcast_50</title>
<polygon fill="none" stroke="#000000" points="476,-297 310,-297 310,-261 476,-261 476,-297"/>
<text text-anchor="middle" x="393" y="-275.3" font-family="Times,serif" font-size="14.00" fill="#000000">Broadcast_50 [2,3,4]</text>
</g>
<!-- Broadcast_50&#45;&gt;Add_55 -->
<g id="edge4" class="edge">
<title>Broadcast_50&#45;&gt;Add_55</title>
<path fill="none" stroke="#000000" d="M393,-260.9735C393,-249.1918 393,-233.5607 393,-220.1581"/>
<polygon fill="#000000" stroke="#000000" points="396.5001,-220.0033 393,-210.0034 389.5001,-220.0034 396.5001,-220.0033"/>
<text text-anchor="middle" x="419.5" y="-231.8" font-family="Times,serif" font-size="14.00" fill="#000000"> 0 &#45;&gt; 0 </text>
</g>
<!-- Erf_54 -->
<g id="node6" class="node">
<title>Erf_54</title>
<polygon fill="none" stroke="#000000" points="610,-297 494,-297 494,-261 610,-261 610,-297"/>
<text text-anchor="middle" x="552" y="-275.3" font-family="Times,serif" font-size="14.00" fill="#000000">Erf_54 [2,3,4]</text>
</g>
<!-- Erf_54&#45;&gt;Add_55 -->
<g id="edge5" class="edge">
<title>Erf_54&#45;&gt;Add_55</title>
<path fill="none" stroke="#000000" d="M519.0551,-260.9735C494.6448,-247.617 461.1932,-229.3133 434.8841,-214.9177"/>
<polygon fill="#000000" stroke="#000000" points="436.3554,-211.7331 425.9027,-210.0034 432.9953,-217.8739 436.3554,-211.7331"/>
<text text-anchor="middle" x="509.5" y="-231.8" font-family="Times,serif" font-size="14.00" fill="#000000"> 0 &#45;&gt; 1 </text>
</g>
<!-- Divide_53 -->
<g id="node7" class="node">
<title>Divide_53</title>
<polygon fill="none" stroke="#000000" points="621.5,-384 482.5,-384 482.5,-348 621.5,-348 621.5,-384"/>
<text text-anchor="middle" x="552" y="-362.3" font-family="Times,serif" font-size="14.00" fill="#000000">Divide_53 [2,3,4]</text>
</g>
<!-- Divide_53&#45;&gt;Erf_54 -->
<g id="edge6" class="edge">
<title>Divide_53&#45;&gt;Erf_54</title>
<path fill="none" stroke="#000000" d="M552,-347.9735C552,-336.1918 552,-320.5607 552,-307.1581"/>
<polygon fill="#000000" stroke="#000000" points="555.5001,-307.0033 552,-297.0034 548.5001,-307.0034 555.5001,-307.0033"/>
<text text-anchor="middle" x="578.5" y="-318.8" font-family="Times,serif" font-size="14.00" fill="#000000"> 0 &#45;&gt; 0 </text>
</g>
<!-- CLONE_0 -->
<g id="node8" class="node">
<title>CLONE_0</title>
<polygon fill="#ffffff" stroke="#0000ff" stroke-dasharray="5,2" points="549,-471 441,-471 441,-435 549,-435 549,-471"/>
<text text-anchor="middle" x="495" y="-449.3" font-family="Times,serif" font-size="14.00" fill="#000000">Parameter_0</text>
</g>
<!-- CLONE_0&#45;&gt;Divide_53 -->
<g id="edge7" class="edge">
<title>CLONE_0&#45;&gt;Divide_53</title>
<path fill="none" stroke="#000000" d="M506.8104,-434.9735C514.8352,-422.7252 525.5857,-406.3165 534.5878,-392.5766"/>
<polygon fill="#000000" stroke="#000000" points="537.652,-394.2861 540.2047,-384.0034 531.7968,-390.4499 537.652,-394.2861"/>
<text text-anchor="middle" x="553.5" y="-405.8" font-family="Times,serif" font-size="14.00" fill="#000000"> 0 &#45;&gt; 0 </text>
</g>
<!-- Broadcast_52 -->
<g id="node9" class="node">
<title>Broadcast_52</title>
<polygon fill="none" stroke="#000000" points="733,-471 567,-471 567,-435 733,-435 733,-471"/>
<text text-anchor="middle" x="650" y="-449.3" font-family="Times,serif" font-size="14.00" fill="#000000">Broadcast_52 [2,3,4]</text>
</g>
<!-- Broadcast_52&#45;&gt;Divide_53 -->
<g id="edge8" class="edge">
<title>Broadcast_52&#45;&gt;Divide_53</title>
<path fill="none" stroke="#000000" d="M629.6943,-434.9735C615.3717,-422.2586 595.9989,-405.0603 580.1815,-391.0183"/>
<polygon fill="#000000" stroke="#000000" points="582.0816,-388.0249 572.2797,-384.0034 577.4343,-393.2597 582.0816,-388.0249"/>
<text text-anchor="middle" x="632.5" y="-405.8" font-family="Times,serif" font-size="14.00" fill="#000000"> 0 &#45;&gt; 1 </text>
</g>
<!-- CLONE_1 -->
<g id="node10" class="node">
<title>CLONE_1</title>
<polygon fill="#ffffff" stroke="#000000" stroke-dasharray="5,2" points="703.5,-558 596.5,-558 596.5,-522 703.5,-522 703.5,-558"/>
<text text-anchor="middle" x="650" y="-536.3" font-family="Times,serif" font-size="14.00" fill="#000000">Constant_51</text>
</g>
<!-- CLONE_1&#45;&gt;Broadcast_52 -->
<g id="edge9" class="edge">
<title>CLONE_1&#45;&gt;Broadcast_52</title>
<path fill="none" stroke="#000000" d="M650,-521.9735C650,-510.1918 650,-494.5607 650,-481.1581"/>
<polygon fill="#000000" stroke="#000000" points="653.5001,-481.0033 650,-471.0034 646.5001,-481.0034 653.5001,-481.0033"/>
<text text-anchor="middle" x="676.5" y="-492.8" font-family="Times,serif" font-size="14.00" fill="#000000"> 0 &#45;&gt; 0 </text>
</g>
<!-- CLONE_2 -->
<g id="node11" class="node">
<title>CLONE_2</title>
<polygon fill="#ffffff" stroke="#000000" stroke-dasharray="5,2" points="446.5,-384 339.5,-384 339.5,-348 446.5,-348 446.5,-384"/>
<text text-anchor="middle" x="393" y="-362.3" font-family="Times,serif" font-size="14.00" fill="#000000">Constant_49</text>
</g>
<!-- CLONE_2&#45;&gt;Broadcast_50 -->
<g id="edge10" class="edge">
<title>CLONE_2&#45;&gt;Broadcast_50</title>
<path fill="none" stroke="#000000" d="M393,-347.9735C393,-336.1918 393,-320.5607 393,-307.1581"/>
<polygon fill="#000000" stroke="#000000" points="396.5001,-307.0033 393,-297.0034 389.5001,-307.0034 396.5001,-307.0033"/>
<text text-anchor="middle" x="419.5" y="-318.8" font-family="Times,serif" font-size="14.00" fill="#000000"> 0 &#45;&gt; 0 </text>
</g>
<!-- Broadcast_48 -->
<g id="node12" class="node">
<title>Broadcast_48</title>
<polygon fill="none" stroke="#000000" points="166,-297 0,-297 0,-261 166,-261 166,-297"/>
<text text-anchor="middle" x="83" y="-275.3" font-family="Times,serif" font-size="14.00" fill="#000000">Broadcast_48 [2,3,4]</text>
</g>
<!-- Broadcast_48&#45;&gt;Multiply_56 -->
<g id="edge11" class="edge">
<title>Broadcast_48&#45;&gt;Multiply_56</title>
<path fill="none" stroke="#000000" d="M114.9089,-260.9735C138.4483,-247.6753 170.6684,-229.473 196.0988,-215.1065"/>
<polygon fill="#000000" stroke="#000000" points="198.1469,-217.9695 205.132,-210.0034 194.7037,-211.8748 198.1469,-217.9695"/>
<text text-anchor="middle" x="196.5" y="-231.8" font-family="Times,serif" font-size="14.00" fill="#000000"> 0 &#45;&gt; 0 </text>
</g>
<!-- CLONE_3 -->
<g id="node13" class="node">
<title>CLONE_3</title>
<polygon fill="#ffffff" stroke="#0000ff" stroke-dasharray="5,2" points="292,-297 184,-297 184,-261 292,-261 292,-297"/>
<text text-anchor="middle" x="238" y="-275.3" font-family="Times,serif" font-size="14.00" fill="#000000">Parameter_0</text>
</g>
<!-- CLONE_3&#45;&gt;Multiply_56 -->
<g id="edge12" class="edge">
<title>CLONE_3&#45;&gt;Multiply_56</title>
<path fill="none" stroke="#000000" d="M237.7928,-260.9735C237.6574,-249.1918 237.4777,-233.5607 237.3237,-220.1581"/>
<polygon fill="#000000" stroke="#000000" points="240.8217,-219.9624 237.2069,-210.0034 233.8222,-220.043 240.8217,-219.9624"/>
<text text-anchor="middle" x="264.5" y="-231.8" font-family="Times,serif" font-size="14.00" fill="#000000"> 0 &#45;&gt; 1 </text>
</g>
<!-- CLONE_4 -->
<g id="node14" class="node">
<title>CLONE_4</title>
<polygon fill="#ffffff" stroke="#000000" stroke-dasharray="5,2" points="136.5,-384 29.5,-384 29.5,-348 136.5,-348 136.5,-384"/>
<text text-anchor="middle" x="83" y="-362.3" font-family="Times,serif" font-size="14.00" fill="#000000">Constant_47</text>
</g>
<!-- CLONE_4&#45;&gt;Broadcast_48 -->
<g id="edge13" class="edge">
<title>CLONE_4&#45;&gt;Broadcast_48</title>
<path fill="none" stroke="#000000" d="M83,-347.9735C83,-336.1918 83,-320.5607 83,-307.1581"/>
<polygon fill="#000000" stroke="#000000" points="86.5001,-307.0033 83,-297.0034 79.5001,-307.0034 86.5001,-307.0033"/>
<text text-anchor="middle" x="109.5" y="-318.8" font-family="Times,serif" font-size="14.00" fill="#000000"> 0 &#45;&gt; 0 </text>
</g>
</g>
</svg>
