<?xml version="1.0" encoding="UTF-8" standalone="no"?>
<!DOCTYPE svg PUBLIC "-//W3C//DTD SVG 1.1//EN"
 "http://www.w3.org/Graphics/SVG/1.1/DTD/svg11.dtd">
<!-- Generated by graphviz version 2.40.1 (20161225.0304)
 -->
<!-- Title: ngraph Pages: 1 -->
<svg width="147pt" height="218pt"
 viewBox="0.00 0.00 147.00 218.00" xmlns="http://www.w3.org/2000/svg" xmlns:xlink="http://www.w3.org/1999/xlink">
<g id="graph0" class="graph" transform="scale(1 1) rotate(0) translate(4 214)">
<title>ngraph</title>
<polygon fill="#ffffff" stroke="transparent" points="-4,4 -4,-214 143,-214 143,4 -4,4"/>
<!-- Gelu_1 -->
<g id="node1" class="node">
<title>Gelu_1</title>
<polygon fill="none" stroke="#000000" points="128,-123 11,-123 11,-87 128,-87 128,-123"/>
<text text-anchor="middle" x="69.5" y="-101.3" font-family="Times,serif" font-size="14.00" fill="#000000">Gelu_1 [2,3,4]</text>
</g>
<!-- Result_13 -->
<g id="node2" class="node">
<title>Result_13</title>
<polygon fill="none" stroke="#dc143c" stroke-width="1.5" points="139,-36 0,-36 0,0 139,0 139,-36"/>
<text text-anchor="middle" x="69.5" y="-14.3" font-family="Times,serif" font-size="14.00" fill="#000000">Result_13 [2,3,4]</text>
</g>
<!-- Gelu_1&#45;&gt;Result_13 -->
<g id="edge1" class="edge">
<title>Gelu_1&#45;&gt;Result_13</title>
<path fill="none" stroke="#000000" d="M69.5,-86.9735C69.5,-75.1918 69.5,-59.5607 69.5,-46.1581"/>
<polygon fill="#000000" stroke="#000000" points="73.0001,-46.0033 69.5,-36.0034 66.0001,-46.0034 73.0001,-46.0033"/>
<text text-anchor="middle" x="96" y="-57.8" font-family="Times,serif" font-size="14.00" fill="#000000"> 0 &#45;&gt; 0 </text>
</g>
<!-- CLONE_0 -->
<g id="node3" class="node">
<title>CLONE_0</title>
<polygon fill="#ffffff" stroke="#0000ff" stroke-dasharray="5,2" points="123.5,-210 15.5,-210 15.5,-174 123.5,-174 123.5,-210"/>
<text text-anchor="middle" x="69.5" y="-188.3" font-family="Times,serif" font-size="14.00" fill="#000000">Parameter_0</text>
</g>
<!-- CLONE_0&#45;&gt;Gelu_1 -->
<g id="edge2" class="edge">
<title>CLONE_0&#45;&gt;Gelu_1</title>
<path fill="none" stroke="#000000" d="M69.5,-173.9735C69.5,-162.1918 69.5,-146.5607 69.5,-133.1581"/>
<polygon fill="#000000" stroke="#000000" points="73.0001,-133.0033 69.5,-123.0034 66.0001,-133.0034 73.0001,-133.0033"/>
<text text-anchor="middle" x="96" y="-144.8" font-family="Times,serif" font-size="14.00" fill="#000000"> 0 &#45;&gt; 0 </text>
</g>
</g>
</svg>
