<?xml version="1.0" encoding="UTF-8" standalone="no"?>
<!DOCTYPE svg PUBLIC "-//W3C//DTD SVG 1.1//EN"
 "http://www.w3.org/Graphics/SVG/1.1/DTD/svg11.dtd">
<!-- Generated by graphviz version 2.40.1 (20161225.0304)
 -->
<!-- Title: ngraph Pages: 1 -->
<svg width="136pt" height="218pt"
 viewBox="0.00 0.00 136.00 218.00" xmlns="http://www.w3.org/2000/svg" xmlns:xlink="http://www.w3.org/1999/xlink">
<g id="graph0" class="graph" transform="scale(1 1) rotate(0) translate(4 214)">
<title>ngraph</title>
<polygon fill="#ffffff" stroke="transparent" points="-4,4 -4,-214 132,-214 132,4 -4,4"/>
<!-- Broadcast_228 -->
<g id="node1" class="node">
<title>Broadcast_228</title>
<polygon fill="none" stroke="#000000" points="128,-123 0,-123 0,-87 128,-87 128,-123"/>
<text text-anchor="middle" x="64" y="-101.3" font-family="Times,serif" font-size="14.00" fill="#000000">Broadcast_228 [2,3]</text>
</g>
<!-- Result_13 -->
<g id="node2" class="node">
<title>Result_13</title>
<polygon fill="none" stroke="#dc143c" stroke-width="1.5" points="111.5,-36 16.5,-36 16.5,0 111.5,0 111.5,-36"/>
<text text-anchor="middle" x="64" y="-14.3" font-family="Times,serif" font-size="14.00" fill="#000000">Result_6 [2,3]</text>
</g>
<!-- Broadcast_228&#45;&gt;Result_13 -->
<g id="edge1" class="edge">
<title>Broadcast_228&#45;&gt;Result_13</title>
<path fill="none" stroke="#000000" d="M64,-86.9735C64,-75.1918 64,-59.5607 64,-46.1581"/>
<polygon fill="#000000" stroke="#000000" points="67.5001,-46.0033 64,-36.0034 60.5001,-46.0034 67.5001,-46.0033"/>
<text text-anchor="middle" x="85" y="-57.8" font-family="Times,serif" font-size="14.00" fill="#000000"> 0 &#45;&gt; 0 </text>
</g>
<!-- CLONE_0 -->
<g id="node3" class="node">
<title>CLONE_0</title>
<polygon fill="#ffffff" stroke="#0000ff" stroke-dasharray="5,2" points="107,-210 21,-210 21,-174 107,-174 107,-210"/>
<text text-anchor="middle" x="64" y="-188.3" font-family="Times,serif" font-size="14.00" fill="#000000">Parameter_0</text>
</g>
<!-- CLONE_0&#45;&gt;Broadcast_228 -->
<g id="edge2" class="edge">
<title>CLONE_0&#45;&gt;Broadcast_228</title>
<path fill="none" stroke="#000000" d="M64,-173.9735C64,-162.1918 64,-146.5607 64,-133.1581"/>
<polygon fill="#000000" stroke="#000000" points="67.5001,-133.0033 64,-123.0034 60.5001,-133.0034 67.5001,-133.0033"/>
<text text-anchor="middle" x="85" y="-144.8" font-family="Times,serif" font-size="14.00" fill="#000000"> 0 &#45;&gt; 0 </text>
</g>
</g>
</svg>
