<?xml version="1.0" encoding="UTF-8" standalone="no"?>
<!DOCTYPE svg PUBLIC "-//W3C//DTD SVG 1.1//EN"
 "http://www.w3.org/Graphics/SVG/1.1/DTD/svg11.dtd">
<!-- Generated by graphviz version 2.40.1 (20161225.0304)
 -->
<!-- Title: ngraph Pages: 1 -->
<svg width="314pt" height="305pt"
 viewBox="0.00 0.00 314.00 305.00" xmlns="http://www.w3.org/2000/svg" xmlns:xlink="http://www.w3.org/1999/xlink">
<g id="graph0" class="graph" transform="scale(1 1) rotate(0) translate(4 301)">
<title>ngraph</title>
<polygon fill="#ffffff" stroke="transparent" points="-4,4 -4,-301 310,-301 310,4 -4,4"/>
<!-- DynBroadcast_5 -->
<g id="node1" class="node">
<title>DynBroadcast_5</title>
<polygon fill="none" stroke="#000000" points="208.5,-123 91.5,-123 91.5,-87 208.5,-87 208.5,-123"/>
<text text-anchor="middle" x="150" y="-101.3" font-family="Times,serif" font-size="14.00" fill="#000000">DynBroadcast_5 ?</text>
</g>
<!-- Result_6 -->
<g id="node2" class="node">
<title>Result_6</title>
<polygon fill="none" stroke="#dc143c" stroke-width="1.5" points="187,-36 113,-36 113,0 187,0 187,-36"/>
<text text-anchor="middle" x="150" y="-14.3" font-family="Times,serif" font-size="14.00" fill="#000000">Result_6 ?</text>
</g>
<!-- DynBroadcast_5&#45;&gt;Result_6 -->
<g id="edge1" class="edge">
<title>DynBroadcast_5&#45;&gt;Result_6</title>
<path fill="none" stroke="#000000" d="M150,-86.9735C150,-75.1918 150,-59.5607 150,-46.1581"/>
<polygon fill="#000000" stroke="#000000" points="153.5001,-46.0033 150,-36.0034 146.5001,-46.0034 153.5001,-46.0033"/>
<text text-anchor="middle" x="171" y="-57.8" font-family="Times,serif" font-size="14.00" fill="#000000"> 0 &#45;&gt; 0 </text>
</g>
<!-- CLONE_0 -->
<g id="node3" class="node">
<title>CLONE_0</title>
<polygon fill="#ffffff" stroke="#0000ff" stroke-dasharray="5,2" points="86,-210 0,-210 0,-174 86,-174 86,-210"/>
<text text-anchor="middle" x="43" y="-188.3" font-family="Times,serif" font-size="14.00" fill="#000000">Parameter_0</text>
</g>
<!-- CLONE_0&#45;&gt;DynBroadcast_5 -->
<g id="edge2" class="edge">
<title>CLONE_0&#45;&gt;DynBroadcast_5</title>
<path fill="none" stroke="#000000" d="M64.315,-173.8918C75.9648,-164.0676 90.6924,-151.7656 104,-141 108.6467,-137.2409 113.592,-133.3045 118.4521,-129.4718"/>
<polygon fill="#000000" stroke="#000000" points="120.7773,-132.0961 126.4831,-123.1689 116.4556,-126.5895 120.7773,-132.0961"/>
<text text-anchor="middle" x="125" y="-144.8" font-family="Times,serif" font-size="14.00" fill="#000000"> 0 &#45;&gt; 0 </text>
</g>
<!-- Convert_3 -->
<g id="node4" class="node">
<title>Convert_3</title>
<polygon fill="none" stroke="#000000" points="196,-210 104,-210 104,-174 196,-174 196,-210"/>
<text text-anchor="middle" x="150" y="-188.3" font-family="Times,serif" font-size="14.00" fill="#000000">Convert_3 [?]</text>
</g>
<!-- Convert_3&#45;&gt;DynBroadcast_5 -->
<g id="edge3" class="edge">
<title>Convert_3&#45;&gt;DynBroadcast_5</title>
<path fill="none" stroke="#000000" d="M150,-173.9735C150,-162.1918 150,-146.5607 150,-133.1581"/>
<polygon fill="#000000" stroke="#000000" points="153.5001,-133.0033 150,-123.0034 146.5001,-133.0034 153.5001,-133.0033"/>
<text text-anchor="middle" x="171" y="-144.8" font-family="Times,serif" font-size="14.00" fill="#000000"> 0 &#45;&gt; 1 </text>
</g>
<!-- Convert_4 -->
<g id="node5" class="node">
<title>Convert_4</title>
<polygon fill="none" stroke="#000000" points="306,-210 214,-210 214,-174 306,-174 306,-210"/>
<text text-anchor="middle" x="260" y="-188.3" font-family="Times,serif" font-size="14.00" fill="#000000">Convert_4 [?]</text>
</g>
<!-- Convert_4&#45;&gt;DynBroadcast_5 -->
<g id="edge4" class="edge">
<title>Convert_4&#45;&gt;DynBroadcast_5</title>
<path fill="none" stroke="#000000" d="M237.231,-173.7765C225.0245,-164.0269 209.7144,-151.8305 196,-141 191.3094,-137.2958 186.3404,-133.389 181.4699,-129.5693"/>
<polygon fill="#000000" stroke="#000000" points="183.4635,-126.685 173.4326,-123.2744 179.1472,-132.196 183.4635,-126.685"/>
<text text-anchor="middle" x="234" y="-144.8" font-family="Times,serif" font-size="14.00" fill="#000000"> 0 &#45;&gt; 2 </text>
</g>
<!-- CLONE_1 -->
<g id="node6" class="node">
<title>CLONE_1</title>
<polygon fill="#ffffff" stroke="#0000ff" stroke-dasharray="5,2" points="303,-297 217,-297 217,-261 303,-261 303,-297"/>
<text text-anchor="middle" x="260" y="-275.3" font-family="Times,serif" font-size="14.00" fill="#000000">Parameter_2</text>
</g>
<!-- CLONE_1&#45;&gt;Convert_4 -->
<g id="edge5" class="edge">
<title>CLONE_1&#45;&gt;Convert_4</title>
<path fill="none" stroke="#000000" d="M260,-260.9735C260,-249.1918 260,-233.5607 260,-220.1581"/>
<polygon fill="#000000" stroke="#000000" points="263.5001,-220.0033 260,-210.0034 256.5001,-220.0034 263.5001,-220.0033"/>
<text text-anchor="middle" x="281" y="-231.8" font-family="Times,serif" font-size="14.00" fill="#000000"> 0 &#45;&gt; 0 </text>
</g>
<!-- CLONE_2 -->
<g id="node7" class="node">
<title>CLONE_2</title>
<polygon fill="#ffffff" stroke="#0000ff" stroke-dasharray="5,2" points="193,-297 107,-297 107,-261 193,-261 193,-297"/>
<text text-anchor="middle" x="150" y="-275.3" font-family="Times,serif" font-size="14.00" fill="#000000">Parameter_1</text>
</g>
<!-- CLONE_2&#45;&gt;Convert_3 -->
<g id="edge6" class="edge">
<title>CLONE_2&#45;&gt;Convert_3</title>
<path fill="none" stroke="#000000" d="M150,-260.9735C150,-249.1918 150,-233.5607 150,-220.1581"/>
<polygon fill="#000000" stroke="#000000" points="153.5001,-220.0033 150,-210.0034 146.5001,-220.0034 153.5001,-220.0033"/>
<text text-anchor="middle" x="171" y="-231.8" font-family="Times,serif" font-size="14.00" fill="#000000"> 0 &#45;&gt; 0 </text>
</g>
</g>
</svg>
