<?xml version="1.0" encoding="UTF-8" standalone="no"?>
<!DOCTYPE svg PUBLIC "-//W3C//DTD SVG 1.1//EN"
 "http://www.w3.org/Graphics/SVG/1.1/DTD/svg11.dtd">
<!-- Generated by graphviz version 2.40.1 (20161225.0304)
 -->
<!-- Title: ngraph Pages: 1 -->
<svg width="314pt" height="218pt"
 viewBox="0.00 0.00 314.00 218.00" xmlns="http://www.w3.org/2000/svg" xmlns:xlink="http://www.w3.org/1999/xlink">
<g id="graph0" class="graph" transform="scale(1 1) rotate(0) translate(4 214)">
<title>ngraph</title>
<polygon fill="#ffffff" stroke="transparent" points="-4,4 -4,-214 310,-214 310,4 -4,4"/>
<!-- DynBroadcast_12 -->
<g id="node1" class="node">
<title>DynBroadcast_12</title>
<polygon fill="none" stroke="#000000" points="218.5,-123 81.5,-123 81.5,-87 218.5,-87 218.5,-123"/>
<text text-anchor="middle" x="150" y="-101.3" font-family="Times,serif" font-size="14.00" fill="#000000">DynBroadcast_5 [2,3]</text>
</g>
<!-- Result_13 -->
<g id="node2" class="node">
<title>Result_13</title>
<polygon fill="none" stroke="#dc143c" stroke-width="1.5" points="197.5,-36 102.5,-36 102.5,0 197.5,0 197.5,-36"/>
<text text-anchor="middle" x="150" y="-14.3" font-family="Times,serif" font-size="14.00" fill="#000000">Result_6 [2,3]</text>
</g>
<!-- DynBroadcast_12&#45;&gt;Result_13 -->
<g id="edge1" class="edge">
<title>DynBroadcast_12&#45;&gt;Result_13</title>
<path fill="none" stroke="#000000" d="M150,-86.9735C150,-75.1918 150,-59.5607 150,-46.1581"/>
<polygon fill="#000000" stroke="#000000" points="153.5001,-46.0033 150,-36.0034 146.5001,-46.0034 153.5001,-46.0033"/>
<text text-anchor="middle" x="171" y="-57.8" font-family="Times,serif" font-size="14.00" fill="#000000"> 0 &#45;&gt; 0 </text>
</g>
<!-- CLONE_0 -->
<g id="node3" class="node">
<title>CLONE_0</title>
<polygon fill="#ffffff" stroke="#0000ff" stroke-dasharray="5,2" points="86,-210 0,-210 0,-174 86,-174 86,-210"/>
<text text-anchor="middle" x="43" y="-188.3" font-family="Times,serif" font-size="14.00" fill="#000000">Parameter_0</text>
</g>
<!-- CLONE_0&#45;&gt;DynBroadcast_12 -->
<g id="edge2" class="edge">
<title>CLONE_0&#45;&gt;DynBroadcast_12</title>
<path fill="none" stroke="#000000" d="M64.315,-173.8918C75.9648,-164.0676 90.6924,-151.7656 104,-141 108.6467,-137.2409 113.592,-133.3045 118.4521,-129.4718"/>
<polygon fill="#000000" stroke="#000000" points="120.7773,-132.0961 126.4831,-123.1689 116.4556,-126.5895 120.7773,-132.0961"/>
<text text-anchor="middle" x="125" y="-144.8" font-family="Times,serif" font-size="14.00" fill="#000000"> 0 &#45;&gt; 0 </text>
</g>
<!-- CLONE_1 -->
<g id="node4" class="node">
<title>CLONE_1</title>
<polygon fill="#ffffff" stroke="#000000" stroke-dasharray="5,2" points="196,-210 104,-210 104,-174 196,-174 196,-210"/>
<text text-anchor="middle" x="150" y="-188.3" font-family="Times,serif" font-size="14.00" fill="#000000">Constant_226</text>
</g>
<!-- CLONE_1&#45;&gt;DynBroadcast_12 -->
<g id="edge3" class="edge">
<title>CLONE_1&#45;&gt;DynBroadcast_12</title>
<path fill="none" stroke="#000000" d="M150,-173.9735C150,-162.1918 150,-146.5607 150,-133.1581"/>
<polygon fill="#000000" stroke="#000000" points="153.5001,-133.0033 150,-123.0034 146.5001,-133.0034 153.5001,-133.0033"/>
<text text-anchor="middle" x="171" y="-144.8" font-family="Times,serif" font-size="14.00" fill="#000000"> 0 &#45;&gt; 1 </text>
</g>
<!-- CLONE_2 -->
<g id="node5" class="node">
<title>CLONE_2</title>
<polygon fill="#ffffff" stroke="#000000" stroke-dasharray="5,2" points="306,-210 214,-210 214,-174 306,-174 306,-210"/>
<text text-anchor="middle" x="260" y="-188.3" font-family="Times,serif" font-size="14.00" fill="#000000">Constant_227</text>
</g>
<!-- CLONE_2&#45;&gt;DynBroadcast_12 -->
<g id="edge4" class="edge">
<title>CLONE_2&#45;&gt;DynBroadcast_12</title>
<path fill="none" stroke="#000000" d="M237.231,-173.7765C225.0245,-164.0269 209.7144,-151.8305 196,-141 191.3094,-137.2958 186.3404,-133.389 181.4699,-129.5693"/>
<polygon fill="#000000" stroke="#000000" points="183.4635,-126.685 173.4326,-123.2744 179.1472,-132.196 183.4635,-126.685"/>
<text text-anchor="middle" x="234" y="-144.8" font-family="Times,serif" font-size="14.00" fill="#000000"> 0 &#45;&gt; 2 </text>
</g>
</g>
</svg>
